<svg width="65" height="42" viewBox="0 0 65 42" fill="none" xmlns="http://www.w3.org/2000/svg">
<path d="M1.35547 25.998C0.802469 25.998 0.355469 25.551 0.355469 24.998C0.355469 21.139 3.49647 17.998 7.35547 17.998C7.90847 17.998 8.35547 18.446 8.35547 18.998C8.35547 19.55 7.90847 19.998 7.35547 19.998C4.59847 19.998 2.35547 22.241 2.35547 24.998C2.35547 25.551 1.90847 25.998 1.35547 25.998ZM63.3555 25.998C62.8035 25.998 62.3555 25.551 62.3555 24.998C62.3545 22.241 60.1115 19.998 57.3555 19.998C56.8025 19.998 56.3555 19.55 56.3555 18.998C56.3555 18.446 56.8025 17.998 57.3555 17.998C61.2135 17.998 64.3545 21.138 64.3555 24.998C64.3555 25.55 63.9085 25.998 63.3555 25.998Z" fill="#C9AB00"/>
<path d="M57.3555 19.999H7.35547C6.80247 19.999 6.35547 19.551 6.35547 18.999C6.35547 18.447 6.80247 17.999 7.35547 17.999H57.3555C57.9085 17.999 58.3555 18.447 58.3555 18.999C58.3555 19.551 57.9085 19.999 57.3555 19.999ZM1.35547 36.004C0.802469 36.004 0.355469 35.557 0.355469 35.004V24.998C0.355469 24.445 0.802469 23.998 1.35547 23.998C1.90847 23.998 2.35547 24.445 2.35547 24.998V35.004C2.35547 35.557 1.90847 36.004 1.35547 36.004Z" fill="#C9AB00"/>
<path d="M3.35547 38.004C1.70147 38.004 0.355469 36.658 0.355469 35.004C0.355469 34.451 0.802469 34.004 1.35547 34.004C1.90847 34.004 2.35547 34.451 2.35547 35.004C2.35547 35.556 2.80347 36.004 3.35547 36.004C3.90847 36.004 4.35547 36.451 4.35547 37.004C4.35547 37.557 3.90847 38.004 3.35547 38.004ZM63.3555 36.004C62.8025 36.004 62.3555 35.557 62.3555 35.004V24.998C62.3555 24.445 62.8025 23.998 63.3555 23.998C63.9085 23.998 64.3555 24.445 64.3555 24.998V35.004C64.3555 35.557 63.9085 36.004 63.3555 36.004Z" fill="#C9AB00"/>
<path d="M61.3555 38.0039C60.8025 38.0039 60.3555 37.5569 60.3555 37.0039C60.3555 36.4509 60.8025 36.0039 61.3555 36.0039C61.9075 36.0039 62.3555 35.5559 62.3555 35.0039C62.3555 34.4509 62.8025 34.0039 63.3555 34.0039C63.9085 34.0039 64.3555 34.4509 64.3555 35.0039C64.3555 36.6579 63.0095 38.0039 61.3555 38.0039Z" fill="#C9AB00"/>
<path d="M61.3555 38.004H3.35547C2.80247 38.004 2.35547 37.557 2.35547 37.004C2.35547 36.451 2.80247 36.004 3.35547 36.004H61.3555C61.9085 36.004 62.3555 36.451 62.3555 37.004C62.3555 37.557 61.9085 38.004 61.3555 38.004ZM63.3555 33.002H1.35547C0.802469 33.002 0.355469 32.555 0.355469 32.002C0.355469 31.449 0.802469 31.002 1.35547 31.002H63.3555C63.9085 31.002 64.3555 31.449 64.3555 32.002C64.3555 32.555 63.9085 33.002 63.3555 33.002Z" fill="#C9AB00"/>
<path d="M5.35742 42.0019C4.80442 42.0019 4.35742 41.5549 4.35742 41.0019V37.0039C4.35742 36.4509 4.80442 36.0039 5.35742 36.0039C5.91042 36.0039 6.35742 36.4509 6.35742 37.0039V41.0019C6.35742 41.5549 5.91042 42.0019 5.35742 42.0019Z" fill="#C9AB00"/>
<path d="M15.3574 42.002H5.35742C4.80442 42.002 4.35742 41.555 4.35742 41.002C4.35742 40.449 4.80442 40.002 5.35742 40.002H15.3574C15.9104 40.002 16.3574 40.449 16.3574 41.002C16.3574 41.555 15.9104 42.002 15.3574 42.002Z" fill="#C9AB00"/>
<path d="M15.3574 42.0019C14.8044 42.0019 14.3574 41.5549 14.3574 41.0019V37.0039C14.3574 36.4509 14.8044 36.0039 15.3574 36.0039C15.9104 36.0039 16.3574 36.4509 16.3574 37.0039V41.0019C16.3574 41.5549 15.9104 42.0019 15.3574 42.0019ZM49.3534 42.0019C48.8004 42.0019 48.3534 41.5549 48.3534 41.0019V37.0039C48.3534 36.4509 48.8004 36.0039 49.3534 36.0039C49.9064 36.0039 50.3534 36.4509 50.3534 37.0039V41.0019C50.3534 41.5549 49.9064 42.0019 49.3534 42.0019Z" fill="#C9AB00"/>
<path d="M59.3535 42.002H49.3535C48.8005 42.002 48.3535 41.555 48.3535 41.002C48.3535 40.449 48.8005 40.002 49.3535 40.002H59.3535C59.9065 40.002 60.3535 40.449 60.3535 41.002C60.3535 41.555 59.9065 42.002 59.3535 42.002Z" fill="#C9AB00"/>
<path d="M59.3535 42.002C58.8005 42.002 58.3535 41.555 58.3535 41.002V37.004C58.3535 36.451 58.8005 36.004 59.3535 36.004C59.9065 36.004 60.3535 36.451 60.3535 37.004V41.002C60.3535 41.555 59.9065 42.002 59.3535 42.002ZM7.35547 19.999C6.80247 19.999 6.35547 19.551 6.35547 18.999V3C6.35547 2.448 6.80247 2 7.35547 2C7.90847 2 8.35547 2.448 8.35547 3V18.998C8.35547 19.551 7.90847 19.999 7.35547 19.999ZM57.3555 19.999C56.8025 19.999 56.3555 19.551 56.3555 18.999V3C56.3555 2.448 56.8025 2 57.3555 2C57.9085 2 58.3555 2.448 58.3555 3V18.998C58.3555 19.551 57.9085 19.999 57.3555 19.999ZM55.3535 2H9.35747C8.80447 2 8.35747 1.552 8.35747 1C8.35747 0.448 8.80447 0 9.35747 0H55.3535C55.9065 0 56.3535 0.448 56.3535 1C56.3535 1.552 55.9065 2 55.3535 2ZM13.3535 16.001C12.8005 16.001 12.3535 15.553 12.3535 15.001C12.3535 13.346 13.6995 12 15.3535 12C15.9065 12 16.3535 12.448 16.3535 13C16.3535 13.552 15.9065 14 15.3535 14C14.8015 14 14.3535 14.449 14.3535 15.001C14.3535 15.554 13.9065 16.001 13.3535 16.001ZM29.3575 16.001C28.8045 16.001 28.3575 15.553 28.3575 15.001C28.3575 14.45 27.9095 14.002 27.3575 14.002C26.8045 14.002 26.3575 13.554 26.3575 13.002C26.3575 12.45 26.8045 12.002 27.3575 12.002C29.0115 12.002 30.3575 13.347 30.3575 15.001C30.3575 15.554 29.9105 16.001 29.3575 16.001Z" fill="#C9AB00"/>
<path d="M13.3535 20.001C12.8005 20.001 12.3535 19.553 12.3535 19.001V15.001C12.3535 14.449 12.8005 14.001 13.3535 14.001C13.9065 14.001 14.3535 14.449 14.3535 15.001V19.001C14.3535 19.554 13.9065 20.001 13.3535 20.001ZM29.3575 19.999C28.8045 19.999 28.3575 19.551 28.3575 18.999V15.002C28.3575 14.45 28.8045 14.002 29.3575 14.002C29.9105 14.002 30.3575 14.45 30.3575 15.002V18.999C30.3575 19.551 29.9105 19.999 29.3575 19.999ZM27.3575 14.002H15.3535C14.8005 14.002 14.3535 13.554 14.3535 13.002C14.3535 12.45 14.8005 12.002 15.3535 12.002H27.3575C27.9105 12.002 28.3575 12.45 28.3575 13.002C28.3575 13.554 27.9105 14.002 27.3575 14.002Z" fill="#C9AB00"/>
<path d="M35.3555 16.001C34.8025 16.001 34.3555 15.553 34.3555 15.001C34.3555 13.347 35.7015 12 37.3555 12C37.9085 12 38.3555 12.448 38.3555 13C38.3555 13.552 37.9085 14 37.3555 14C36.8035 14 36.3555 14.449 36.3555 15.001C36.3555 15.554 35.9085 16.001 35.3555 16.001ZM51.3595 16.001C50.8065 16.001 50.3595 15.553 50.3595 15.001C50.3595 14.45 49.9115 14.002 49.3595 14.002C48.8065 14.002 48.3595 13.554 48.3595 13.002C48.3595 12.45 48.8065 12.002 49.3595 12.002C51.0135 12.002 52.3595 13.347 52.3595 15.001C52.3595 15.554 51.9125 16.001 51.3595 16.001Z" fill="#C9AB00"/>
<path d="M35.3555 20.001C34.8025 20.001 34.3555 19.553 34.3555 19.001V15.001C34.3555 14.449 34.8025 14.001 35.3555 14.001C35.9085 14.001 36.3555 14.449 36.3555 15.001V19.001C36.3555 19.554 35.9085 20.001 35.3555 20.001ZM51.3595 19.999C50.8065 19.999 50.3595 19.551 50.3595 18.999V15.002C50.3595 14.45 50.8065 14.002 51.3595 14.002C51.9125 14.002 52.3595 14.45 52.3595 15.002V18.999C52.3595 19.551 51.9125 19.999 51.3595 19.999ZM49.3595 14.002H37.3555C36.8025 14.002 36.3555 13.554 36.3555 13.002C36.3555 12.45 36.8025 12.002 37.3555 12.002H49.3595C49.9125 12.002 50.3595 12.45 50.3595 13.002C50.3595 13.554 49.9125 14.002 49.3595 14.002Z" fill="#C9AB00"/>
<path d="M7.35547 4.00005C6.80247 4.00005 6.35547 3.55205 6.35547 3.00005C6.35547 1.34505 7.70247 -0.00195312 9.35747 -0.00195312C9.91047 -0.00195312 10.3575 0.446047 10.3575 0.998047C10.3575 1.55005 9.91047 1.99805 9.35747 1.99805C8.80447 1.99805 8.35547 2.44805 8.35547 3.00005C8.35547 3.55205 7.90847 4.00005 7.35547 4.00005Z" fill="#C9AB00"/>
<path d="M57.3555 14C56.8025 14 56.3555 13.552 56.3555 13C56.3555 12.448 55.9065 11.998 55.3535 11.998C54.8005 11.998 54.3535 11.55 54.3535 10.998C54.3535 10.446 54.8005 9.99805 55.3535 9.99805C57.0085 9.99905 58.3555 11.345 58.3555 13C58.3555 13.553 57.9085 14 57.3555 14Z" fill="#C9AB00"/>
</svg>
