<svg width="54" height="27" viewBox="0 0 54 27" fill="none" xmlns="http://www.w3.org/2000/svg">
<path d="M16.8687 0.120117C16.2185 0.120117 15.7212 0.654563 15.7212 1.26536V19.8564C15.7212 20.5054 16.2567 21.0017 16.8687 21.0017C17.519 21.0017 18.0162 20.4672 18.0162 19.8564V1.26536C18.0162 0.616388 17.4807 0.120117 16.8687 0.120117Z" fill="white"/>
<path d="M6.73214 7.56419C5.08736 7.56419 3.55732 8.13681 2.29505 9.2057V1.26536C2.29505 0.616389 1.75954 0.120117 1.14752 0.120117C0.535511 0.120117 0 0.654563 0 1.26536V14.2829C0 16.0772 0.688514 17.7568 1.98904 19.0548C3.25132 20.3145 4.9726 21.0399 6.77039 21.0399C8.56818 21.0399 10.2512 20.3527 11.5517 19.0548C12.814 17.795 13.5408 16.0772 13.5408 14.2829C13.5408 12.4887 12.8523 10.809 11.5517 9.5111C10.2512 8.25134 8.52993 7.56419 6.73214 7.56419ZM6.73214 18.7112C4.28409 18.7112 2.29505 16.7261 2.29505 14.2829C2.29505 11.8398 4.28409 9.85467 6.73214 9.85467C9.18019 9.85467 11.1692 11.8398 11.1692 14.2829C11.1692 16.7261 9.18019 18.7112 6.73214 18.7112Z" fill="white"/>
<path d="M45.2124 9.51048C43.9501 8.25071 42.2288 7.52539 40.431 7.52539C38.6332 7.52539 36.9502 8.21254 35.6497 9.51048C34.3874 10.7702 33.6606 12.4881 33.6606 14.2823C33.6606 16.0765 34.3492 17.7562 35.6497 19.0542C36.912 20.3139 38.6332 21.0392 40.431 21.0392C41.3873 21.0392 42.3053 20.8484 43.1468 20.4666C43.9884 20.0849 44.7151 19.5886 45.3271 18.9396C45.7861 18.4815 45.7479 17.7562 45.2889 17.2981C44.8299 16.84 44.1031 16.8782 43.6441 17.3363C42.8026 18.2143 41.6551 18.7106 40.431 18.7106C37.983 18.7106 35.9939 16.7255 35.9939 14.2823C35.9939 11.8391 37.983 9.85405 40.431 9.85405C42.4583 9.85405 44.1796 11.2283 44.6769 13.0989H38.5185C37.8682 13.0989 37.371 13.6333 37.371 14.2441C37.371 14.8931 37.9065 15.3894 38.5185 15.3894H46.0156C46.6659 15.3894 47.1632 14.8549 47.1632 14.2441C47.1632 12.4881 46.4747 10.8084 45.2124 9.51048Z" fill="white"/>
<path d="M30.2947 7.56445C29.6444 7.56445 29.1471 8.0989 29.1471 8.70969V15.3903C29.1471 17.2227 27.6554 18.6733 25.8576 18.6733C24.0215 18.6733 22.568 17.1845 22.568 15.3903V8.70969C22.568 8.06072 22.0325 7.56445 21.4205 7.56445C20.7702 7.56445 20.2729 8.0989 20.2729 8.70969V15.3903C20.2729 18.4824 22.7975 21.002 25.8958 21.002C28.9941 21.002 31.5187 18.4824 31.5187 15.3903V8.70969C31.4804 8.06072 30.9449 7.56445 30.2947 7.56445Z" fill="white"/>
<path d="M50.7578 21.9555C50.643 21.9555 50.5283 21.9174 50.4135 21.841C50.1458 21.6501 50.0693 21.2684 50.2605 20.963C51.1021 19.7032 51.7141 18.2908 52.0583 16.802C52.1348 16.4584 52.4791 16.2675 52.7851 16.3439C53.1293 16.4202 53.3206 16.7638 53.2441 17.0692C52.8998 18.7107 52.2113 20.2759 51.2551 21.6501C51.1786 21.841 50.9873 21.9555 50.7578 21.9555Z" fill="white"/>
<path d="M50.909 8.05898C50.7178 8.05898 50.5265 7.94445 50.3735 7.79175C49.532 6.49381 48.461 5.42492 47.1987 4.5469C46.9309 4.35603 46.8544 3.97428 47.0457 3.66888C47.2369 3.40166 47.6195 3.32531 47.9255 3.51618C49.3025 4.47055 50.4883 5.69214 51.4063 7.10461C51.5975 7.37183 51.521 7.79175 51.215 7.94445C51.1385 8.0208 51.0238 8.05898 50.909 8.05898Z" fill="white"/>
<path d="M52.9379 15.0078C52.5937 15.0078 52.3259 14.7405 52.3259 14.397C52.3259 12.87 52.0582 11.3812 51.4844 9.93051C51.3696 9.62512 51.5226 9.24337 51.8286 9.12884C52.1347 9.01432 52.5172 9.16702 52.6319 9.47242C53.2439 11.0376 53.5499 12.7173 53.5499 14.397C53.5499 14.7405 53.2822 15.0078 52.9379 15.0078Z" fill="white"/>
<path d="M48.6912 9.20599C48.4999 9.20599 48.3087 9.12964 48.1939 8.93877C47.5819 8.06075 46.8552 7.33543 46.0136 6.72464C45.7459 6.53376 45.6694 6.15202 45.8606 5.84662C46.0519 5.5794 46.4344 5.50305 46.7404 5.69392C47.6967 6.38106 48.5382 7.25908 49.1885 8.21345C49.3797 8.48067 49.3032 8.86242 49.0355 9.09147C48.9207 9.16782 48.8059 9.20599 48.6912 9.20599Z" fill="white"/>
<path d="M50.4515 14.7394C50.1072 14.7394 49.8395 14.4722 49.8395 14.1286C49.8395 13.0979 49.6482 12.0672 49.2657 11.0746C49.1509 10.7692 49.304 10.3875 49.6482 10.273C49.9542 10.1584 50.3367 10.3111 50.4515 10.6547C50.8722 11.7618 51.0635 12.9452 51.1017 14.1286C51.1017 14.4722 50.834 14.7394 50.4515 14.7394C50.4897 14.7394 50.4897 14.7394 50.4515 14.7394Z" fill="white"/>
<path d="M48.8815 20.3519C48.7667 20.3519 48.652 20.3137 48.5372 20.2373C48.2312 20.0465 48.1547 19.6647 48.346 19.3975C48.9197 18.5195 49.3405 17.5651 49.57 16.5344C49.6465 16.1908 49.9908 15.9999 50.335 16.0763C50.6793 16.1526 50.8705 16.4962 50.794 16.8398C50.5263 17.985 50.029 19.0921 49.417 20.0846C49.264 20.2373 49.0727 20.3519 48.8815 20.3519Z" fill="white"/>
<path d="M45.326 3.4027C45.2495 3.4027 45.173 3.4027 45.0965 3.36452C43.6812 2.75373 42.1894 2.44833 40.6594 2.41016C40.3151 2.41016 40.0474 2.10476 40.0474 1.76119C40.0474 1.41761 40.3151 1.15039 40.6594 1.15039C42.3424 1.18857 43.9872 1.53214 45.5555 2.18111C45.8615 2.29563 46.0145 2.67738 45.8997 2.98278C45.785 3.25 45.5555 3.4027 45.326 3.4027Z" fill="white"/>
<path d="M44.1013 5.57839C44.0248 5.57839 43.9483 5.57839 43.8718 5.54021C42.8773 5.15847 41.8828 4.92942 40.8118 4.89124C40.4675 4.89124 40.1998 4.58585 40.238 4.24227C40.238 3.8987 40.544 3.63148 40.8883 3.66965C42.0741 3.70783 43.2216 3.97505 44.3309 4.39497C44.6369 4.5095 44.7899 4.89124 44.6751 5.19664C44.5986 5.42569 44.3691 5.57839 44.1013 5.57839Z" fill="white"/>
<path d="M33.6588 4.39468C33.4675 4.39468 33.238 4.28016 33.1233 4.12746C32.932 3.82206 33.0468 3.44032 33.3145 3.24944C34.7298 2.33325 36.2981 1.72245 37.9811 1.41706C38.3254 1.34071 38.6314 1.56975 38.7079 1.91333C38.7844 2.2569 38.5549 2.5623 38.2106 2.63865C36.7189 2.94404 35.2653 3.47849 34.0031 4.31833C33.8883 4.35651 33.7736 4.39468 33.6588 4.39468Z" fill="white"/>
<path d="M35.2277 6.34079C35.0364 6.34079 34.8069 6.22627 34.6921 6.0354C34.5009 5.73 34.6156 5.34825 34.8834 5.19555C35.9162 4.58476 36.9872 4.12666 38.173 3.89761C38.5172 3.82126 38.8232 4.05031 38.8997 4.35571C38.9762 4.69928 38.7467 5.00468 38.4407 5.08103C37.4079 5.31008 36.4517 5.69182 35.5337 6.22627C35.4189 6.30262 35.3042 6.34079 35.2277 6.34079Z" fill="white"/>
<path d="M3.67208 24.0169C3.59557 23.9787 3.48082 23.9405 3.36607 23.9405C3.25132 23.9405 3.09831 23.9787 2.98356 24.055C2.98356 24.2077 2.94531 24.3986 2.94531 24.5513C2.94531 24.704 2.90706 24.8949 2.90706 25.0476C2.90706 25.2003 2.86881 25.3912 2.83056 25.5439C2.79231 25.7347 2.79231 25.8874 2.75406 26.0783C2.71581 25.9638 2.71581 25.8493 2.67756 25.7729C2.6393 25.6584 2.6393 25.582 2.60105 25.4675C2.5628 25.353 2.5628 25.2766 2.52455 25.1621C2.4863 25.0476 2.44805 24.9331 2.4098 24.8185C2.4098 24.7422 2.3333 24.704 2.2568 24.6658C2.18029 24.6277 2.06554 24.5895 1.91254 24.5895C1.83604 24.5895 1.75954 24.5895 1.68303 24.6277C1.60653 24.6658 1.56828 24.6658 1.53003 24.6658C1.49178 24.8185 1.45353 24.9712 1.45353 25.0858C1.41528 25.2003 1.37703 25.3148 1.37703 25.4293C1.33878 25.5439 1.33878 25.6584 1.30053 25.7347C1.26228 25.8493 1.26228 25.9638 1.22403 26.0783H1.18577C1.18577 26.0401 1.18577 25.9638 1.14752 25.8874C1.14752 25.8111 1.10927 25.6966 1.10927 25.582C1.07102 25.4293 1.07102 25.2766 1.03277 25.0476C0.994521 24.8185 0.95627 24.5895 0.918019 24.2459C0.918019 24.1314 0.841517 24.055 0.765016 23.9787C0.688514 23.9405 0.573762 23.9023 0.45901 23.9023C0.382508 23.9023 0.267756 23.9023 0.191254 23.9405C0.114752 23.9787 0.0382508 24.0169 0 24.055C0 24.1696 0.0382508 24.3223 0.0382508 24.475C0.0765016 24.6277 0.0765016 24.7804 0.114752 24.9712C0.153003 25.1239 0.191254 25.3148 0.229505 25.4675C0.267756 25.6202 0.306006 25.7729 0.344257 25.9256C0.382508 26.0783 0.420759 26.1928 0.45901 26.3074C0.49726 26.4219 0.535511 26.4982 0.535511 26.5746C0.573762 26.6509 0.650263 26.6891 0.765016 26.7273C0.879768 26.7654 0.994521 26.8036 1.14752 26.8036C1.26228 26.8036 1.37703 26.8036 1.45353 26.7654C1.53003 26.7273 1.60653 26.6891 1.68303 26.6509C1.72129 26.4982 1.75954 26.3455 1.79779 26.1547C1.83604 25.9638 1.87429 25.7729 1.95079 25.5439C1.98904 25.7347 2.06554 25.9256 2.10379 26.1165C2.14204 26.2692 2.18029 26.4219 2.21855 26.5746C2.2568 26.6509 2.29505 26.6891 2.4098 26.7273C2.52455 26.7654 2.6393 26.8036 2.79231 26.8036C2.90706 26.8036 3.02181 26.8036 3.13656 26.7654C3.25132 26.7273 3.32782 26.6891 3.36607 26.6509C3.40432 26.5746 3.44257 26.4982 3.48082 26.3455C3.51907 26.231 3.55732 26.0783 3.59557 25.9256C3.63383 25.7729 3.67208 25.6202 3.71033 25.4293C3.74858 25.2766 3.78683 25.0858 3.78683 24.9331C3.82508 24.7804 3.82508 24.6277 3.82508 24.5131C3.82508 24.3986 3.86333 24.2841 3.86333 24.2077C3.82508 24.1314 3.78683 24.055 3.67208 24.0169Z" fill="white"/>
<path d="M6.50141 26.1547H5.31564V25.6584H6.19541C6.27191 25.6584 6.34841 25.6202 6.38666 25.582C6.42491 25.5439 6.46316 25.4293 6.46316 25.3148C6.46316 25.2385 6.46316 25.2003 6.42491 25.1239C6.42491 25.0858 6.38666 25.0094 6.34841 25.0094H5.27739V24.5895H6.27191C6.34841 24.5895 6.42491 24.5513 6.46316 24.5131C6.50141 24.475 6.53966 24.3604 6.53966 24.2459C6.53966 24.1696 6.53966 24.1314 6.50141 24.055C6.50141 24.0169 6.46316 23.9405 6.42491 23.9023H4.89488C4.74188 23.9023 4.66538 23.9405 4.58887 24.0169C4.51237 24.0932 4.47412 24.2077 4.47412 24.3223V26.3074C4.47412 26.4601 4.51237 26.5364 4.58887 26.6127C4.66538 26.6891 4.78013 26.7273 4.89488 26.7273H6.27191C6.34841 26.7273 6.42491 26.6891 6.46316 26.6509C6.50141 26.6128 6.53966 26.4982 6.53966 26.3837C6.53966 26.3074 6.53966 26.2692 6.50141 26.1928C6.53966 26.231 6.53966 26.1928 6.50141 26.1547Z" fill="white"/>
<path d="M9.18028 25.2766C9.33328 25.2385 9.40978 25.1621 9.52453 25.0476C9.60104 24.9331 9.63929 24.8185 9.63929 24.704C9.63929 24.4368 9.52453 24.2077 9.33328 24.0932C9.10378 23.9405 8.79777 23.9023 8.41526 23.9023C8.26226 23.9023 8.071 23.9023 7.918 23.9405C7.765 23.9405 7.61199 23.9787 7.53549 24.0169C7.45899 24.055 7.42074 24.055 7.38249 24.0932C7.34424 24.1314 7.34424 24.1696 7.34424 24.2459V26.4219C7.34424 26.5746 7.42074 26.6891 7.61199 26.7654C7.6885 26.8036 7.72675 26.8036 7.80325 26.8418C7.87975 26.8418 7.95625 26.88 8.03275 26.88C8.10925 26.88 8.18576 26.88 8.26226 26.88C8.33876 26.88 8.41526 26.88 8.45351 26.88C8.87427 26.88 9.21853 26.8036 9.44803 26.6509C9.67754 26.4982 9.79229 26.2692 9.79229 25.9638C9.79229 25.7729 9.75404 25.6584 9.63929 25.5439C9.48628 25.3912 9.33328 25.3148 9.18028 25.2766ZM8.10925 24.5131C8.1475 24.5131 8.18576 24.5131 8.26226 24.5131C8.33876 24.5131 8.37701 24.5131 8.41526 24.5131C8.56826 24.5131 8.64477 24.5513 8.72127 24.5895C8.79777 24.6277 8.83602 24.704 8.83602 24.7804C8.83602 24.8949 8.79777 24.9331 8.75952 25.0094C8.68302 25.0476 8.60651 25.0858 8.45351 25.0858H8.10925V24.5131ZM8.79777 26.1547C8.72127 26.1928 8.60651 26.231 8.49176 26.231C8.41526 26.231 8.37701 26.231 8.30051 26.231C8.22401 26.231 8.18576 26.231 8.14751 26.1928V25.6202H8.53001C8.68302 25.6202 8.75952 25.6584 8.83602 25.6966C8.91252 25.7347 8.95077 25.8111 8.95077 25.9256C8.91252 26.0401 8.87427 26.1165 8.79777 26.1547Z" fill="white"/>
<path d="M13.8097 24.2459C13.6567 24.1314 13.5037 24.0169 13.3124 23.9787C13.1212 23.9023 12.8917 23.9023 12.6622 23.9023C12.5474 23.9023 12.3944 23.9023 12.2414 23.9405C12.0884 23.9405 11.9354 23.9787 11.8206 24.0169C11.7441 24.055 11.7059 24.055 11.6676 24.0932C11.6294 24.1314 11.6294 24.1696 11.6294 24.2459V26.4219C11.6294 26.5746 11.7059 26.6891 11.8971 26.7654C11.9737 26.8036 12.0119 26.8036 12.0884 26.8418C12.1649 26.8418 12.2414 26.88 12.3179 26.88C12.3944 26.88 12.4709 26.88 12.5474 26.88C12.6239 26.88 12.6622 26.88 12.7387 26.88C12.9682 26.88 13.1977 26.8418 13.3889 26.8036C13.5802 26.7273 13.7332 26.6509 13.8862 26.5364C14.0392 26.4219 14.1157 26.2692 14.1922 26.0783C14.2687 25.8874 14.307 25.6584 14.307 25.4293C14.307 25.1621 14.2687 24.9331 14.1922 24.7804C14.0774 24.5131 13.9627 24.3604 13.8097 24.2459ZM13.3507 25.7729C13.3124 25.8874 13.2742 25.9638 13.1977 26.0401C13.1212 26.1165 13.0447 26.1547 12.9682 26.1928C12.8917 26.231 12.7769 26.231 12.6622 26.231C12.6239 26.231 12.5857 26.231 12.5092 26.231C12.4709 26.231 12.4327 26.231 12.3944 26.231V24.5895C12.4327 24.5895 12.4709 24.5895 12.5474 24.5895C12.5857 24.5895 12.6239 24.5895 12.6622 24.5895C12.8917 24.5895 13.0447 24.6658 13.1977 24.8185C13.3124 24.9712 13.3889 25.1621 13.3889 25.4675C13.4272 25.5439 13.3889 25.6584 13.3507 25.7729Z" fill="white"/>
<path d="M16.9838 26.1547H15.7981V25.6584H16.6778C16.7543 25.6584 16.8308 25.6202 16.8691 25.582C16.9073 25.5439 16.9456 25.4293 16.9456 25.3148C16.9456 25.2385 16.9456 25.2003 16.9073 25.1239C16.9073 25.0858 16.8691 25.0094 16.8308 25.0094H15.7598V24.5895H16.7543C16.8308 24.5895 16.9073 24.5513 16.9456 24.5131C16.9838 24.475 17.0221 24.3604 17.0221 24.2459C17.0221 24.1696 17.0221 24.1314 16.9838 24.055C16.9838 24.0169 16.9456 23.9405 16.9073 23.9023H15.3773C15.2243 23.9023 15.1478 23.9405 15.0713 24.0169C14.9948 24.0932 14.9565 24.2077 14.9565 24.3223V26.3074C14.9565 26.4601 14.9948 26.5364 15.0713 26.6127C15.1478 26.6891 15.2625 26.7273 15.3773 26.7273H16.7543C16.8308 26.7273 16.9073 26.6891 16.9456 26.6509C16.9838 26.6128 17.0221 26.4982 17.0221 26.3837C17.0221 26.3074 17.0221 26.2692 16.9838 26.1928C17.0221 26.231 16.9838 26.1928 16.9838 26.1547Z" fill="white"/>
<path d="M19.6992 25.3903C19.5462 25.2376 19.3167 25.123 19.0107 25.0467L18.7811 24.9703C18.7046 24.9322 18.6281 24.9322 18.5899 24.894C18.5516 24.8558 18.5134 24.8177 18.5134 24.7795C18.5134 24.7031 18.5516 24.665 18.6281 24.6268C18.7046 24.5886 18.7811 24.5504 18.9342 24.5504C19.0872 24.5504 19.2019 24.5504 19.3167 24.5886C19.4314 24.6268 19.5079 24.6649 19.5844 24.7031C19.6227 24.6649 19.6992 24.6268 19.7374 24.5504C19.7757 24.5123 19.7757 24.4359 19.7757 24.3596C19.7757 24.2832 19.7374 24.2069 19.6992 24.1305C19.6609 24.0542 19.5844 24.016 19.5079 23.9778C19.4314 23.9396 19.3167 23.9015 19.2019 23.9015C19.0872 23.9015 18.9724 23.8633 18.8194 23.8633C18.4369 23.8633 18.1691 23.9396 17.9779 24.0923C17.7866 24.245 17.6719 24.4741 17.6719 24.7413C17.6719 24.894 17.7101 25.0085 17.7484 25.0849C17.7866 25.1612 17.8631 25.2757 17.9396 25.3139C18.0161 25.3903 18.1309 25.4284 18.2456 25.5048C18.3604 25.543 18.4751 25.6193 18.6281 25.6575L18.8194 25.7338C18.8959 25.772 18.9724 25.8102 19.0489 25.8484C19.0872 25.8865 19.1254 25.9247 19.1254 26.0011C19.1254 26.0774 19.0872 26.1156 19.0489 26.1538C18.9724 26.1919 18.8959 26.2301 18.7429 26.2301C18.5899 26.2301 18.4369 26.1919 18.3221 26.1538C18.2074 26.1156 18.0926 26.0392 18.0161 25.9629C17.9396 26.0011 17.9014 26.0392 17.8249 26.1156C17.7866 26.1919 17.7484 26.2683 17.7484 26.3446C17.7484 26.421 17.7866 26.4973 17.8249 26.5737C17.8631 26.65 17.9396 26.6882 18.0544 26.7264C18.1309 26.7646 18.2456 26.8027 18.3604 26.8409C18.4751 26.8791 18.6281 26.8791 18.7429 26.8791C19.1637 26.8791 19.4697 26.8027 19.6609 26.65C19.8522 26.4973 19.9669 26.2683 19.9669 26.0011C19.9287 25.7338 19.8522 25.543 19.6992 25.3903Z" fill="white"/>
<path d="M21.3059 23.9787C21.2676 23.9405 21.2294 23.9405 21.1529 23.9023C21.1146 23.9023 21.0381 23.9023 20.9616 23.9023C20.8851 23.9023 20.8086 23.9023 20.7321 23.9023C20.6556 23.9023 20.6174 23.9405 20.5791 23.9405V26.4219C20.5791 26.4982 20.5791 26.5746 20.6174 26.6127C20.6174 26.6509 20.6556 26.6891 20.6939 26.7273C20.7321 26.7654 20.7704 26.7654 20.8469 26.8036C20.8851 26.8036 20.9616 26.8036 21.0381 26.8036C21.1146 26.8036 21.1911 26.8036 21.2676 26.8036C21.3441 26.8036 21.3824 26.8036 21.4206 26.7654V24.2841C21.4206 24.2077 21.4206 24.1314 21.3824 24.0932C21.3824 24.055 21.3441 24.0169 21.3059 23.9787Z" fill="white"/>
<path d="M24.5569 25.0849H23.7537C23.6772 25.0849 23.6007 25.123 23.5624 25.1612C23.5242 25.1994 23.4859 25.2757 23.4859 25.3903C23.4859 25.4666 23.4859 25.5048 23.5242 25.5811C23.5242 25.6193 23.5624 25.6957 23.5624 25.7338H24.0597V26.1919C24.0214 26.1919 23.9832 26.2301 23.9449 26.2301C23.9067 26.2301 23.8302 26.2301 23.7537 26.2301C23.6389 26.2301 23.5624 26.2301 23.4477 26.1919C23.3712 26.1538 23.2564 26.1156 23.2182 26.0392C23.1417 25.9629 23.1034 25.8865 23.0652 25.772C23.0269 25.6575 22.9887 25.543 22.9887 25.3903C22.9887 25.123 23.0652 24.9322 23.2182 24.7795C23.3712 24.6268 23.5624 24.5504 23.8302 24.5504C23.9832 24.5504 24.0979 24.5886 24.2127 24.6268C24.3274 24.665 24.4422 24.7031 24.5187 24.7795C24.5569 24.7413 24.6334 24.7031 24.6717 24.6268C24.7099 24.5504 24.7482 24.5123 24.7482 24.3977C24.7482 24.245 24.6717 24.1305 24.4804 24.016C24.2892 23.9396 24.0597 23.8633 23.7919 23.8633C23.6007 23.8633 23.3712 23.9015 23.1799 23.9396C22.9887 24.016 22.7974 24.0923 22.6444 24.2069C22.4914 24.3214 22.3766 24.4741 22.2619 24.6649C22.1854 24.8558 22.1089 25.0849 22.1089 25.3521C22.1089 25.5811 22.1471 25.8102 22.2236 26.0011C22.3001 26.1919 22.4149 26.3446 22.5679 26.4592C22.7209 26.5737 22.8739 26.6882 23.0652 26.7264C23.2564 26.8027 23.4859 26.8027 23.7154 26.8027C23.7919 26.8027 23.8684 26.8027 23.9832 26.8027C24.0597 26.8027 24.1362 26.7646 24.2127 26.7646C24.2892 26.7646 24.3657 26.7264 24.4422 26.6882C24.5187 26.65 24.5569 26.65 24.5952 26.6119C24.6717 26.5737 24.7099 26.5355 24.7482 26.4592C24.7864 26.421 24.7864 26.3446 24.7864 26.2301V25.2757C24.7864 25.1994 24.7482 25.123 24.7099 25.0467C24.7099 25.0849 24.6334 25.0849 24.5569 25.0849Z" fill="white"/>
<path d="M28.076 23.9787C27.9995 23.9405 27.8847 23.9023 27.77 23.9023C27.6935 23.9023 27.617 23.9023 27.5787 23.9023C27.5022 23.9023 27.464 23.9023 27.4257 23.9405V24.704C27.4257 24.8567 27.4257 25.0476 27.4257 25.2003C27.4257 25.353 27.4257 25.5439 27.464 25.6966H27.4257C27.3875 25.582 27.3492 25.4675 27.311 25.3912C27.2727 25.3148 27.2345 25.2003 27.1962 25.1239L26.7372 24.1696C26.6607 24.055 26.5842 23.9787 26.4694 23.9405C26.3547 23.9023 26.2399 23.9023 26.1252 23.9023C26.0104 23.9023 25.9339 23.9023 25.8192 23.9405C25.7427 23.9787 25.6662 24.0169 25.6279 24.0932V26.4219C25.6279 26.4982 25.6279 26.5746 25.6662 26.6127C25.6662 26.6509 25.7044 26.6891 25.7427 26.7273C25.7809 26.7654 25.8192 26.7654 25.8574 26.7654C25.8957 26.7654 25.9722 26.7654 26.0487 26.7654C26.1252 26.7654 26.2017 26.7654 26.2399 26.7654C26.3164 26.7654 26.3547 26.7654 26.3929 26.7273V26.002C26.3929 25.8493 26.3929 25.6584 26.3929 25.5057C26.3929 25.3148 26.3929 25.1621 26.3547 25.0094H26.3929C26.4312 25.1239 26.4694 25.2385 26.5077 25.3148C26.5459 25.3912 26.5842 25.5057 26.6224 25.582L27.0815 26.5364C27.158 26.6509 27.2345 26.7654 27.3492 26.7654C27.464 26.8036 27.5787 26.8036 27.6935 26.8036C27.8082 26.8036 27.923 26.8036 27.9995 26.7654C28.076 26.7273 28.1525 26.7273 28.1907 26.6509V24.2459C28.1907 24.1314 28.1525 24.0169 28.076 23.9787Z" fill="white"/>
<path d="M32.7811 25.3903C32.7811 25.3139 32.7811 25.2757 32.7811 25.1994C32.7811 25.1612 32.7428 25.0849 32.7428 25.0467C32.7046 25.0085 32.6663 24.9703 32.6281 24.9703C32.5898 24.9322 32.5133 24.9322 32.4368 24.9322C32.3986 24.9322 32.3221 24.9322 32.2838 24.9322C32.2456 24.9322 32.1691 24.9703 32.1308 24.9703C32.1308 25.0849 32.1308 25.1994 32.1308 25.2757C32.1308 25.3521 32.0926 25.4666 32.0926 25.5048L31.4806 24.9322C31.404 24.8558 31.3658 24.8177 31.3275 24.7795C31.251 24.7795 31.251 24.7413 31.251 24.7031C31.251 24.6268 31.2893 24.5886 31.3275 24.5504C31.3658 24.5123 31.4423 24.5123 31.5188 24.5123C31.5571 24.5123 31.6336 24.5123 31.6718 24.5123C31.7101 24.5123 31.7483 24.5504 31.7866 24.5504C31.8248 24.5123 31.8631 24.4741 31.8631 24.3977C31.9013 24.3596 31.9013 24.2832 31.9013 24.245C31.9013 24.1305 31.8631 24.0542 31.7866 23.9778C31.7101 23.9015 31.5571 23.8633 31.3658 23.8633C31.2128 23.8633 31.098 23.8633 30.9833 23.9015C30.8685 23.9396 30.792 23.9778 30.7155 24.0542C30.639 24.1305 30.6008 24.2069 30.5243 24.2832C30.486 24.3596 30.4478 24.4741 30.4478 24.5504C30.4478 24.6268 30.4478 24.7031 30.486 24.7795C30.5243 24.8558 30.5625 24.9322 30.6008 25.0085C30.5243 25.0467 30.4478 25.0849 30.3713 25.123C30.2948 25.1612 30.2565 25.2376 30.18 25.3139C30.1418 25.3903 30.0653 25.4666 30.027 25.543C29.9888 25.6193 29.9888 25.7338 29.9888 25.8484C29.9888 26.0011 30.027 26.1156 30.0653 26.2301C30.1035 26.3446 30.18 26.4592 30.2948 26.5355C30.4095 26.6119 30.5243 26.6882 30.639 26.7264C30.792 26.7646 30.945 26.8027 31.1363 26.8027C31.3275 26.8027 31.4806 26.7646 31.6336 26.7264C31.7866 26.6882 31.9013 26.6119 32.0161 26.5355L32.0926 26.6119C32.2073 26.7264 32.3221 26.8027 32.4751 26.8027C32.5898 26.8027 32.6663 26.7646 32.7428 26.6882C32.8193 26.6119 32.8576 26.5355 32.8576 26.3828L32.5133 26.0392C32.7046 25.8865 32.7811 25.6193 32.7811 25.3903ZM31.4423 26.2301C31.3658 26.2301 31.2893 26.2683 31.251 26.2683C31.098 26.2683 30.9833 26.2301 30.9068 26.1538C30.8303 26.0774 30.792 26.0011 30.792 25.8865C30.792 25.8102 30.8303 25.772 30.8685 25.6957C30.9068 25.6193 30.9833 25.5811 31.0215 25.543L31.6336 26.1538C31.5953 26.1919 31.5188 26.1919 31.4423 26.2301Z" fill="white"/>
<path d="M37.9453 25.9627C37.9453 25.81 37.9071 25.6191 37.9071 25.4283C37.9071 25.2374 37.8688 25.0847 37.8688 24.932C37.8688 24.7793 37.8306 24.6266 37.8306 24.5121C37.8306 24.3975 37.7923 24.283 37.7923 24.2067C37.7923 24.1303 37.7158 24.054 37.6393 24.0158C37.5246 23.9776 37.4098 23.9395 37.2568 23.9395C37.1803 23.9395 37.0656 23.9395 37.0273 23.9776C36.9508 23.9776 36.9126 24.0158 36.8361 24.054C36.7595 24.2067 36.7213 24.4357 36.6448 24.6648C36.5683 24.8938 36.4918 25.161 36.4153 25.4283H36.377C36.3388 25.3519 36.3388 25.2374 36.3005 25.161C36.2623 25.0465 36.224 24.9702 36.1858 24.8556C36.1475 24.7411 36.1093 24.6648 36.071 24.5502C36.0328 24.4357 35.9945 24.3594 35.9945 24.283C35.9563 24.1685 35.8798 24.0922 35.8033 24.0158C35.7268 23.9776 35.5738 23.9395 35.4208 23.9395C35.2678 23.9395 35.153 23.9776 35.0765 24.0158C35 24.054 34.9235 24.0922 34.9235 24.1303L34.7705 26.4972C34.7705 26.6117 34.8088 26.688 34.8853 26.7262C34.9618 26.7644 35.0765 26.8026 35.1913 26.8026C35.2678 26.8026 35.306 26.8026 35.3825 26.8026C35.459 26.8026 35.4973 26.7644 35.5355 26.7644C35.5355 26.5735 35.5355 26.4208 35.5738 26.2681C35.5738 26.1154 35.5738 25.9627 35.5738 25.8482C35.5738 25.6955 35.5738 25.5428 35.5738 25.3901C35.5738 25.2374 35.5738 25.0847 35.612 24.8938H35.6503C35.6885 25.0083 35.7268 25.161 35.765 25.3519C35.8033 25.5046 35.8798 25.7337 35.9945 26.0009C36.0328 26.0772 36.071 26.1154 36.1475 26.1536C36.224 26.1918 36.3005 26.1918 36.4153 26.1918C36.4918 26.1918 36.5683 26.1918 36.6448 26.1536C36.7213 26.1154 36.7596 26.1154 36.7978 26.0772C36.8743 25.7718 36.9508 25.5428 37.0273 25.3519C37.1038 25.161 37.1421 25.0083 37.1803 24.8938H37.2186C37.2186 25.0847 37.2186 25.3137 37.2568 25.581C37.2568 25.8482 37.2568 26.1536 37.2951 26.4972C37.2951 26.6117 37.3333 26.688 37.4098 26.7262C37.4863 26.7644 37.6011 26.8026 37.7158 26.8026C37.7923 26.8026 37.8688 26.8026 37.9453 26.7644C38.0218 26.7644 38.0601 26.7262 38.0983 26.688C38.0983 26.6117 38.0983 26.4972 38.0983 26.3826C37.9453 26.2681 37.9453 26.1154 37.9453 25.9627Z" fill="white"/>
<path d="M41.1191 24.2451C40.9661 24.1306 40.8131 24.0161 40.6601 23.9397C40.4688 23.8634 40.2776 23.8252 40.0863 23.8252C39.8951 23.8252 39.6656 23.8634 39.5126 23.9397C39.3213 24.0161 39.1683 24.0924 39.0536 24.2451C38.9388 24.3596 38.8241 24.5123 38.7476 24.7032C38.6711 24.8941 38.6328 25.1231 38.6328 25.3522C38.6328 25.5812 38.6711 25.8103 38.7476 26.0012C38.8241 26.192 38.9388 26.3447 39.0536 26.4593C39.1683 26.5738 39.3596 26.6883 39.5126 26.7646C39.7038 26.841 39.8951 26.8792 40.0863 26.8792C40.3158 26.8792 40.5071 26.841 40.6601 26.7646C40.8514 26.6883 41.0044 26.612 41.1191 26.4593C41.2339 26.3447 41.3486 26.192 41.4251 26.0012C41.5016 25.8103 41.5399 25.5812 41.5399 25.3522C41.5399 25.1231 41.5016 24.8941 41.4251 24.7032C41.3486 24.5123 41.2339 24.3596 41.1191 24.2451ZM40.5454 26.0012C40.4306 26.1539 40.2776 26.2302 40.0863 26.2302C39.8951 26.2302 39.7421 26.1539 39.6273 26.0012C39.5126 25.8485 39.4361 25.6576 39.4361 25.3522C39.4361 25.085 39.5126 24.8559 39.6273 24.7032C39.7421 24.5505 39.8951 24.5123 40.0863 24.5123C40.2776 24.5123 40.4306 24.5887 40.5454 24.7414C40.6601 24.8941 40.6984 25.085 40.6984 25.3904C40.6984 25.6576 40.6601 25.8485 40.5454 26.0012Z" fill="white"/>
<path d="M44.0636 25.6966C44.2166 25.6202 44.3313 25.5057 44.4078 25.3912C44.5226 25.2385 44.5608 25.0858 44.5608 24.8949C44.5608 24.5895 44.4461 24.3223 44.2166 24.1696C43.9871 23.9787 43.6811 23.9023 43.2603 23.9023C43.1073 23.9023 42.9543 23.9023 42.8013 23.9405C42.6483 23.9405 42.5335 23.9787 42.4188 24.0169C42.3423 24.055 42.304 24.055 42.2658 24.0932C42.2275 24.1314 42.2275 24.1696 42.2275 24.2459V26.4601C42.2275 26.5364 42.2275 26.6128 42.2658 26.6509C42.2658 26.6891 42.304 26.7273 42.3423 26.7654C42.3805 26.8036 42.4188 26.8036 42.4953 26.8418C42.5335 26.8418 42.61 26.8418 42.6866 26.8418C42.7631 26.8418 42.8396 26.8418 42.9161 26.8418C42.9926 26.8418 43.0308 26.8418 43.0691 26.8036V25.8874H43.2986L43.6811 26.5364C43.7193 26.5746 43.7576 26.6128 43.7576 26.6509C43.7958 26.6891 43.8341 26.7273 43.8723 26.7654C43.9106 26.8036 43.9488 26.8036 43.9871 26.8418C44.0253 26.8418 44.1018 26.88 44.1783 26.88C44.2931 26.88 44.3696 26.8418 44.4461 26.8036C44.5226 26.7273 44.5991 26.6509 44.5991 26.5364C44.5226 26.4219 44.4461 26.3074 44.3313 26.1547C44.2931 26.002 44.1783 25.8493 44.0636 25.6966ZM43.6428 25.1621C43.5663 25.2385 43.4898 25.2385 43.3751 25.2385H43.0691V24.5513C43.1073 24.5513 43.1456 24.5513 43.1456 24.5513C43.1838 24.5513 43.2221 24.5513 43.2603 24.5513C43.4133 24.5513 43.5281 24.5895 43.6046 24.6277C43.6811 24.704 43.7193 24.7804 43.7193 24.8949C43.7576 25.0094 43.7193 25.0858 43.6428 25.1621Z" fill="white"/>
<path d="M47.3535 26.1547H46.1677V25.6584H47.0475C47.124 25.6584 47.2005 25.6202 47.2387 25.582C47.277 25.5439 47.3152 25.4293 47.3152 25.3148C47.3152 25.2385 47.3152 25.2003 47.277 25.1239C47.277 25.0858 47.2387 25.0094 47.2005 25.0094H46.1294V24.5895H47.124C47.2005 24.5895 47.277 24.5513 47.3152 24.5131C47.3535 24.475 47.3917 24.3604 47.3917 24.2459C47.3917 24.1696 47.3917 24.1314 47.3535 24.055C47.3535 24.0169 47.3152 23.9405 47.277 23.9023H45.7469C45.5939 23.9023 45.5174 23.9405 45.4409 24.0169C45.3644 24.0932 45.3262 24.2077 45.3262 24.3223V26.3074C45.3262 26.4601 45.3644 26.5364 45.4409 26.6127C45.5174 26.6891 45.6322 26.7273 45.7469 26.7273H47.124C47.2005 26.7273 47.277 26.6891 47.3152 26.6509C47.3535 26.6128 47.3917 26.4982 47.3917 26.3837C47.3917 26.3074 47.3917 26.2692 47.3535 26.1928C47.3917 26.231 47.3535 26.1928 47.3535 26.1547Z" fill="white"/>
<path d="M49.5728 25.9629C49.4198 25.9629 49.305 26.0011 49.2285 26.0774C49.152 26.1538 49.1138 26.2683 49.1138 26.421C49.1138 26.5355 49.152 26.65 49.2285 26.7646C49.305 26.8409 49.4198 26.8791 49.5728 26.8791C49.7258 26.8791 49.8405 26.8409 49.917 26.7646C49.9935 26.6882 50.0318 26.5737 50.0318 26.421C50.0318 26.3065 49.9935 26.1919 49.917 26.0774C49.8023 26.0011 49.7258 25.9629 49.5728 25.9629Z" fill="white"/>
<path d="M51.2559 26.0774C51.1794 26.0011 51.0646 25.9629 50.9116 25.9629C50.7586 25.9629 50.6439 26.0011 50.5674 26.0774C50.4909 26.1538 50.4526 26.2683 50.4526 26.421C50.4526 26.5355 50.4909 26.65 50.5674 26.7646C50.6439 26.8409 50.7586 26.8791 50.9116 26.8791C51.0646 26.8791 51.1794 26.8409 51.2559 26.7646C51.3324 26.6882 51.3707 26.5737 51.3707 26.421C51.3707 26.2683 51.3324 26.1538 51.2559 26.0774Z" fill="white"/>
</svg>
