<svg width="77" height="74" viewBox="0 0 77 74" fill="none" xmlns="http://www.w3.org/2000/svg">
<g clip-path="url(#clip0_168_517)">
<mask id="path-1-inside-1_168_517" fill="white">
<path fill-rule="evenodd" clip-rule="evenodd" d="M28.2792 0.421344L28.559 0.484685C30.4683 0.916854 32.1151 1.28964 33.4388 1.71807C34.8385 2.17116 36.1886 2.77831 37.3481 3.85025C37.8493 4.31354 38.2993 4.82485 38.6933 5.37528C39.5679 3.91769 40.8 2.70584 42.2738 1.85495C43.6412 1.06544 45.0919 0.771432 46.5572 0.638608C47.9429 0.513039 49.6312 0.513083 51.5889 0.513172H51.876C53.8336 0.513083 55.522 0.513039 56.9077 0.638608C58.373 0.771432 59.8237 1.06544 61.1915 1.85495C61.7902 2.20076 62.3493 2.60618 62.8607 3.0635C63.3717 2.60618 63.9308 2.20076 64.5299 1.85495C65.8973 1.06544 67.348 0.771432 68.8133 0.638608C70.199 0.513039 71.8874 0.513083 73.845 0.513172H74.1321C76.0898 0.513083 77.7781 0.513039 79.1638 0.638608C80.6291 0.771432 82.0798 1.06544 83.4476 1.85495C84.9699 2.73398 86.2341 3.9983 87.1132 5.52079C87.9028 6.88825 88.1966 8.33917 88.3297 9.80443C88.4552 11.19 88.4552 12.8784 88.4552 14.8359V59.6353C88.4552 61.593 88.4552 63.2813 88.3297 64.667C88.1966 66.1323 87.9028 67.5834 87.1132 68.9508C86.2341 70.4731 84.9699 71.7373 83.4476 72.6164C82.0798 73.406 80.6291 73.7003 79.1638 73.8329C77.7781 73.9584 76.0898 73.9584 74.1321 73.9584H73.845C71.8878 73.9584 70.199 73.9584 68.8133 73.8329C67.348 73.7003 65.8973 73.406 64.5299 72.6164C63.9308 72.2705 63.3717 71.8655 62.8607 71.4079C62.3493 71.8655 61.7902 72.2705 61.1915 72.6164C59.8237 73.406 58.373 73.7003 56.9077 73.8329C55.522 73.9584 53.8336 73.9584 51.876 73.9584H51.5889C49.6317 73.9584 47.9429 73.9584 46.5572 73.8329C45.0919 73.7003 43.6412 73.406 42.2738 72.6164C40.7511 71.7373 39.4869 70.4731 38.6078 68.9508C37.8182 67.5834 37.5244 66.1323 37.3913 64.667C37.2658 63.2813 37.2658 61.593 37.2662 59.6358V26.8918L29.4739 61.3103C29.0417 63.2194 28.6689 64.8664 28.2405 66.1902C27.7874 67.5896 27.1802 68.9401 26.1083 70.0992C24.9147 71.3901 23.4025 72.344 21.7235 72.8652C20.2154 73.3335 18.7354 73.2997 17.277 73.1056C15.8978 72.9222 14.251 72.5492 12.3417 72.117L12.062 72.0538C10.1529 71.6216 8.50568 71.2485 7.18207 70.8203C5.78229 70.3672 4.4321 69.7601 3.27274 68.6882C1.98189 67.4944 1.02799 65.9823 0.506842 64.3033C0.0387519 62.7952 0.0723588 61.3152 0.266343 59.857C0.449822 58.4775 0.822744 56.8306 1.25505 54.9215L11.147 11.2282C11.5792 9.31893 11.952 7.67203 12.3804 6.34832C12.8335 4.94855 13.4407 3.5984 14.5126 2.43899C15.7061 1.14818 17.2184 0.194242 18.8974 -0.326907C20.4055 -0.794997 21.8855 -0.76139 23.3439 -0.567361C24.7231 -0.383882 26.3699 -0.0110031 28.2792 0.421344ZM66.1991 14.8752V51.7023H81.7784V14.9796C81.7784 12.8381 81.7748 11.4552 81.68 10.4071C81.5892 9.40493 81.4361 9.04109 81.3311 8.85921C81.0377 8.35168 80.6166 7.93029 80.1092 7.63726C79.9271 7.53226 79.5635 7.379 78.5611 7.2882C77.5132 7.19321 76.1303 7.19 73.9888 7.19C71.8468 7.19 70.4643 7.19321 69.416 7.2882C68.4141 7.379 68.05 7.53226 67.8683 7.63726C67.3605 7.93029 66.9394 8.35168 66.646 8.85921C66.541 9.04109 66.3879 9.40493 66.2971 10.4071C66.2036 11.438 66.1991 12.793 66.1991 14.8752ZM59.5223 51.7023H43.943V14.9796C43.943 12.8381 43.9462 11.4552 44.041 10.4071C44.1318 9.40493 44.2849 9.04109 44.3899 8.85921C44.6833 8.35168 45.1044 7.93029 45.6122 7.63726C45.7939 7.53226 46.158 7.379 47.1599 7.2882C48.2082 7.19321 49.5907 7.19 51.7327 7.19C53.8742 7.19 55.2571 7.19321 56.305 7.2882C57.3074 7.379 57.671 7.53226 57.8531 7.63726C58.3605 7.93029 58.7816 8.35168 59.075 8.85921C59.18 9.04109 59.3331 9.40493 59.4239 10.4071C59.5174 11.438 59.5219 12.793 59.5223 14.8753V51.7023ZM59.5223 59.492V58.3792H43.943V59.492C43.943 61.6335 43.9462 63.0165 44.041 64.0643C44.1318 65.0667 44.2849 65.4304 44.3899 65.6124C44.6833 66.1198 45.1044 66.5414 45.6122 66.8343C45.7939 66.9393 46.158 67.0924 47.1599 67.1832C48.2082 67.2785 49.5907 67.2816 51.7327 67.2816C53.8742 67.2816 55.2571 67.2785 56.305 67.1832C57.3074 67.0924 57.671 66.9393 57.8531 66.8343C58.3605 66.5414 58.7816 66.1198 59.075 65.6124C59.18 65.4304 59.3331 65.0667 59.4239 64.0643C59.5187 63.0165 59.5223 61.6335 59.5223 59.492ZM81.7784 59.492V58.3792H66.1991V59.492C66.1991 61.6335 66.2022 63.0165 66.2971 64.0643C66.3879 65.0667 66.541 65.4304 66.646 65.6124C66.9394 66.1198 67.3605 66.5414 67.8683 66.8343C68.05 66.9393 68.4141 67.0924 69.416 67.1832C70.4643 67.2785 71.8468 67.2816 73.9888 67.2816C76.1303 67.2816 77.5132 67.2785 78.5611 67.1832C79.5635 67.0924 79.9271 66.9393 80.1092 66.8343C80.6166 66.5414 81.0377 66.1198 81.3311 65.6124C81.4361 65.4304 81.5892 65.0667 81.68 64.0643C81.7748 63.0165 81.7784 61.6335 81.7784 59.492ZM22.4634 6.05116C21.4659 5.91847 21.0773 5.98755 20.8766 6.04982C20.317 6.22355 19.8129 6.5415 19.415 6.9718C19.2725 7.12599 19.0427 7.44702 18.7328 8.40438C18.4088 9.40564 18.1002 10.7537 17.6274 12.8424L9.22464 49.9579L24.4331 53.3373L32.8221 16.2824C33.295 14.1937 33.5972 12.8443 33.736 11.8011C33.8687 10.8036 33.7996 10.4149 33.7373 10.2143C33.5636 9.65464 33.2456 9.15054 32.8153 8.75269C32.6612 8.61012 32.3401 8.38035 31.3828 8.07045C30.3816 7.74641 29.0335 7.43789 26.9448 6.96504C24.8561 6.49218 23.5066 6.18995 22.4634 6.05116ZM7.75036 56.4696L22.9587 59.8494C22.5054 61.8511 22.2041 63.1576 21.8881 64.1342C21.5782 65.0912 21.3484 65.4125 21.2059 65.5666C20.808 65.997 20.3039 66.3148 19.7443 66.4884C19.5436 66.5507 19.155 66.6197 18.1575 66.4871C17.1143 66.3482 15.7648 66.046 13.6761 65.5732C11.5874 65.1005 10.2393 64.792 9.23813 64.468C8.28076 64.1582 7.95974 63.9281 7.80551 63.7856C7.37525 63.3877 7.05726 62.8838 6.88357 62.3238C6.8213 62.1235 6.75217 61.735 6.88486 60.7374C7.01884 59.7301 7.30523 58.4375 7.75036 56.4696Z"/>
</mask>
<path fill-rule="evenodd" clip-rule="evenodd" d="M28.2792 0.421344L28.559 0.484685C30.4683 0.916854 32.1151 1.28964 33.4388 1.71807C34.8385 2.17116 36.1886 2.77831 37.3481 3.85025C37.8493 4.31354 38.2993 4.82485 38.6933 5.37528C39.5679 3.91769 40.8 2.70584 42.2738 1.85495C43.6412 1.06544 45.0919 0.771432 46.5572 0.638608C47.9429 0.513039 49.6312 0.513083 51.5889 0.513172H51.876C53.8336 0.513083 55.522 0.513039 56.9077 0.638608C58.373 0.771432 59.8237 1.06544 61.1915 1.85495C61.7902 2.20076 62.3493 2.60618 62.8607 3.0635C63.3717 2.60618 63.9308 2.20076 64.5299 1.85495C65.8973 1.06544 67.348 0.771432 68.8133 0.638608C70.199 0.513039 71.8874 0.513083 73.845 0.513172H74.1321C76.0898 0.513083 77.7781 0.513039 79.1638 0.638608C80.6291 0.771432 82.0798 1.06544 83.4476 1.85495C84.9699 2.73398 86.2341 3.9983 87.1132 5.52079C87.9028 6.88825 88.1966 8.33917 88.3297 9.80443C88.4552 11.19 88.4552 12.8784 88.4552 14.8359V59.6353C88.4552 61.593 88.4552 63.2813 88.3297 64.667C88.1966 66.1323 87.9028 67.5834 87.1132 68.9508C86.2341 70.4731 84.9699 71.7373 83.4476 72.6164C82.0798 73.406 80.6291 73.7003 79.1638 73.8329C77.7781 73.9584 76.0898 73.9584 74.1321 73.9584H73.845C71.8878 73.9584 70.199 73.9584 68.8133 73.8329C67.348 73.7003 65.8973 73.406 64.5299 72.6164C63.9308 72.2705 63.3717 71.8655 62.8607 71.4079C62.3493 71.8655 61.7902 72.2705 61.1915 72.6164C59.8237 73.406 58.373 73.7003 56.9077 73.8329C55.522 73.9584 53.8336 73.9584 51.876 73.9584H51.5889C49.6317 73.9584 47.9429 73.9584 46.5572 73.8329C45.0919 73.7003 43.6412 73.406 42.2738 72.6164C40.7511 71.7373 39.4869 70.4731 38.6078 68.9508C37.8182 67.5834 37.5244 66.1323 37.3913 64.667C37.2658 63.2813 37.2658 61.593 37.2662 59.6358V26.8918L29.4739 61.3103C29.0417 63.2194 28.6689 64.8664 28.2405 66.1902C27.7874 67.5896 27.1802 68.9401 26.1083 70.0992C24.9147 71.3901 23.4025 72.344 21.7235 72.8652C20.2154 73.3335 18.7354 73.2997 17.277 73.1056C15.8978 72.9222 14.251 72.5492 12.3417 72.117L12.062 72.0538C10.1529 71.6216 8.50568 71.2485 7.18207 70.8203C5.78229 70.3672 4.4321 69.7601 3.27274 68.6882C1.98189 67.4944 1.02799 65.9823 0.506842 64.3033C0.0387519 62.7952 0.0723588 61.3152 0.266343 59.857C0.449822 58.4775 0.822744 56.8306 1.25505 54.9215L11.147 11.2282C11.5792 9.31893 11.952 7.67203 12.3804 6.34832C12.8335 4.94855 13.4407 3.5984 14.5126 2.43899C15.7061 1.14818 17.2184 0.194242 18.8974 -0.326907C20.4055 -0.794997 21.8855 -0.76139 23.3439 -0.567361C24.7231 -0.383882 26.3699 -0.0110031 28.2792 0.421344ZM66.1991 14.8752V51.7023H81.7784V14.9796C81.7784 12.8381 81.7748 11.4552 81.68 10.4071C81.5892 9.40493 81.4361 9.04109 81.3311 8.85921C81.0377 8.35168 80.6166 7.93029 80.1092 7.63726C79.9271 7.53226 79.5635 7.379 78.5611 7.2882C77.5132 7.19321 76.1303 7.19 73.9888 7.19C71.8468 7.19 70.4643 7.19321 69.416 7.2882C68.4141 7.379 68.05 7.53226 67.8683 7.63726C67.3605 7.93029 66.9394 8.35168 66.646 8.85921C66.541 9.04109 66.3879 9.40493 66.2971 10.4071C66.2036 11.438 66.1991 12.793 66.1991 14.8752ZM59.5223 51.7023H43.943V14.9796C43.943 12.8381 43.9462 11.4552 44.041 10.4071C44.1318 9.40493 44.2849 9.04109 44.3899 8.85921C44.6833 8.35168 45.1044 7.93029 45.6122 7.63726C45.7939 7.53226 46.158 7.379 47.1599 7.2882C48.2082 7.19321 49.5907 7.19 51.7327 7.19C53.8742 7.19 55.2571 7.19321 56.305 7.2882C57.3074 7.379 57.671 7.53226 57.8531 7.63726C58.3605 7.93029 58.7816 8.35168 59.075 8.85921C59.18 9.04109 59.3331 9.40493 59.4239 10.4071C59.5174 11.438 59.5219 12.793 59.5223 14.8753V51.7023ZM59.5223 59.492V58.3792H43.943V59.492C43.943 61.6335 43.9462 63.0165 44.041 64.0643C44.1318 65.0667 44.2849 65.4304 44.3899 65.6124C44.6833 66.1198 45.1044 66.5414 45.6122 66.8343C45.7939 66.9393 46.158 67.0924 47.1599 67.1832C48.2082 67.2785 49.5907 67.2816 51.7327 67.2816C53.8742 67.2816 55.2571 67.2785 56.305 67.1832C57.3074 67.0924 57.671 66.9393 57.8531 66.8343C58.3605 66.5414 58.7816 66.1198 59.075 65.6124C59.18 65.4304 59.3331 65.0667 59.4239 64.0643C59.5187 63.0165 59.5223 61.6335 59.5223 59.492ZM81.7784 59.492V58.3792H66.1991V59.492C66.1991 61.6335 66.2022 63.0165 66.2971 64.0643C66.3879 65.0667 66.541 65.4304 66.646 65.6124C66.9394 66.1198 67.3605 66.5414 67.8683 66.8343C68.05 66.9393 68.4141 67.0924 69.416 67.1832C70.4643 67.2785 71.8468 67.2816 73.9888 67.2816C76.1303 67.2816 77.5132 67.2785 78.5611 67.1832C79.5635 67.0924 79.9271 66.9393 80.1092 66.8343C80.6166 66.5414 81.0377 66.1198 81.3311 65.6124C81.4361 65.4304 81.5892 65.0667 81.68 64.0643C81.7748 63.0165 81.7784 61.6335 81.7784 59.492ZM22.4634 6.05116C21.4659 5.91847 21.0773 5.98755 20.8766 6.04982C20.317 6.22355 19.8129 6.5415 19.415 6.9718C19.2725 7.12599 19.0427 7.44702 18.7328 8.40438C18.4088 9.40564 18.1002 10.7537 17.6274 12.8424L9.22464 49.9579L24.4331 53.3373L32.8221 16.2824C33.295 14.1937 33.5972 12.8443 33.736 11.8011C33.8687 10.8036 33.7996 10.4149 33.7373 10.2143C33.5636 9.65464 33.2456 9.15054 32.8153 8.75269C32.6612 8.61012 32.3401 8.38035 31.3828 8.07045C30.3816 7.74641 29.0335 7.43789 26.9448 6.96504C24.8561 6.49218 23.5066 6.18995 22.4634 6.05116ZM7.75036 56.4696L22.9587 59.8494C22.5054 61.8511 22.2041 63.1576 21.8881 64.1342C21.5782 65.0912 21.3484 65.4125 21.2059 65.5666C20.808 65.997 20.3039 66.3148 19.7443 66.4884C19.5436 66.5507 19.155 66.6197 18.1575 66.4871C17.1143 66.3482 15.7648 66.046 13.6761 65.5732C11.5874 65.1005 10.2393 64.792 9.23813 64.468C8.28076 64.1582 7.95974 63.9281 7.80551 63.7856C7.37525 63.3877 7.05726 62.8838 6.88357 62.3238C6.8213 62.1235 6.75217 61.735 6.88486 60.7374C7.01884 59.7301 7.30523 58.4375 7.75036 56.4696Z" fill="#8C8C8C" fill-opacity="1" stroke="white" stroke-width="2" mask="url(#path-1-inside-1_168_517)"/>
</g>
<defs>
<clipPath id="clip0_168_517">
<rect width="88.1342" height="73" fill="white" transform="translate(0 0.73584)"/>
</clipPath>
</defs>
</svg>
