<svg width="65" height="33" viewBox="0 0 65 33" fill="none" xmlns="http://www.w3.org/2000/svg">
<path d="M62.6777 11.5166H59.7417V7.30615C59.7417 6.20312 58.8447 5.30615 57.7417 5.30615H53.7178V2.37012C53.7178 1.26709 52.8208 0.370117 51.7178 0.370117H46.2388C45.1357 0.370117 44.2388 1.26709 44.2388 2.37012V12.269H21.1167V2.37012C21.1167 1.26709 20.2197 0.370117 19.1167 0.370117H13.6377C12.5347 0.370117 11.6377 1.26709 11.6377 2.37012V5.30615H7.61377C6.51074 5.30615 5.61377 6.20312 5.61377 7.30615V11.5166H2.67773C1.57471 11.5166 0.677734 12.4141 0.677734 13.5166V19.5942C0.677734 20.6973 1.57471 21.5942 2.67773 21.5942H5.61377V25.8047C5.61377 26.9077 6.51074 27.8047 7.61377 27.8047H11.6377V30.7412C11.6377 31.8438 12.5347 32.7412 13.6377 32.7412H19.1167C20.2197 32.7412 21.1167 31.8438 21.1167 30.7412V21.6694H44.2388V30.7412C44.2388 31.8438 45.1357 32.7412 46.2388 32.7412H51.7178C52.8208 32.7412 53.7178 31.8438 53.7178 30.7412V27.8047H57.7417C58.8447 27.8047 59.7417 26.9077 59.7417 25.8047V21.5942H62.6777C63.7808 21.5942 64.6777 20.6973 64.6777 19.5942V13.5166C64.6777 12.4141 63.7808 11.5166 62.6777 11.5166ZM2.67773 19.5942V13.5166L5.61377 13.5156V19.5942H2.67773ZM7.61377 25.8047C7.61377 19.445 7.61377 14.0529 7.61377 7.30615L11.6377 7.30469V25.8047H7.61377ZM19.1167 30.7412H13.6377C13.6377 22.3008 13.6377 10.801 13.6377 2.37012L19.1167 2.36865V30.7412ZM21.1191 19.6694V14.269H44.2388V19.6694H21.1191ZM51.7178 30.7412H46.2388C46.2392 14.566 46.2388 9.77713 46.2388 2.37012H51.7178C51.7178 10.8114 51.7178 22.3105 51.7178 30.7412ZM57.7417 25.8047H53.7178V7.30615H57.7417C57.7417 13.6659 57.7417 19.058 57.7417 25.8047ZM62.6777 19.5942H59.7417V13.5166H62.6777V19.5942Z" fill="black"/>
</svg>
