<svg width="55" height="24" viewBox="0 0 55 24" fill="none" xmlns="http://www.w3.org/2000/svg">
<path d="M2.65508 18.2334C2.22807 18.2306 1.81055 18.1073 1.45059 17.8775C1.09063 17.6478 0.802884 17.3211 0.620493 16.935C0.438101 16.5489 0.368483 16.1191 0.419658 15.6952C0.470832 15.2712 0.640717 14.8704 0.909746 14.5388C1.38575 13.9494 12.9231 0.100098 27.5884 0.100098C42.2537 0.100098 53.7911 13.9494 54.2671 14.5388C54.6488 15.0047 54.8298 15.6031 54.7703 16.2025C54.7108 16.8019 54.4156 17.353 53.9497 17.7348C53.4838 18.1165 52.8854 18.2975 52.286 18.238C51.6867 18.1785 51.1355 17.8833 50.7537 17.4174C50.7537 17.2814 40.0777 4.6561 27.5657 4.6561C15.0537 4.6561 4.51375 17.2814 4.40041 17.3948C4.18949 17.6548 3.92359 17.8648 3.62181 18.0099C3.32003 18.1549 2.98988 18.2312 2.65508 18.2334Z" fill="#9100FF"/>
<path d="M28.1557 23.8998C26.202 23.8998 24.3282 23.1237 22.9467 21.7422C21.5652 20.3607 20.7891 18.4869 20.7891 16.5332C20.7891 15.932 21.0279 15.3555 21.453 14.9304C21.878 14.5053 22.4546 14.2665 23.0557 14.2665C23.6569 14.2665 24.2334 14.5053 24.6585 14.9304C25.0836 15.3555 25.3224 15.932 25.3224 16.5332C25.3224 17.0936 25.4886 17.6413 25.7999 18.1073C26.1112 18.5732 26.5537 18.9364 27.0715 19.1508C27.5892 19.3653 28.1589 19.4214 28.7085 19.3121C29.2581 19.2027 29.763 18.9329 30.1592 18.5366C30.5554 18.1404 30.8253 17.6355 30.9346 17.0859C31.0439 16.5363 30.9878 15.9666 30.7734 15.4489C30.5589 14.9312 30.1958 14.4887 29.7298 14.1773C29.2639 13.866 28.7161 13.6998 28.1557 13.6998C27.5546 13.6998 26.978 13.461 26.553 13.0359C26.1279 12.6109 25.8891 12.0343 25.8891 11.4332C25.8891 10.832 26.1279 10.2555 26.553 9.8304C26.978 9.40531 27.5546 9.1665 28.1557 9.1665C30.1095 9.1665 31.9832 9.94263 33.3648 11.3242C34.7463 12.7057 35.5224 14.5794 35.5224 16.5332C35.5224 18.4869 34.7463 20.3607 33.3648 21.7422C31.9832 23.1237 30.1095 23.8998 28.1557 23.8998Z" fill="#9100FF"/>
</svg>
