<svg width="37" height="42" viewBox="0 0 37 42" fill="none" xmlns="http://www.w3.org/2000/svg">
<g clip-path="url(#clip0_343_2051)">
<path d="M28.6953 -0.0146484L36.8981 8.11997H28.6953V-0.0146484Z" fill="#017B32"/>
<path d="M36.8993 8.11997V42.0142H5.45508V-0.0146484H28.6964V8.11997H36.8993Z" fill="#017B32" fill-opacity="0.81"/>
<path d="M6.82227 5.4082V37.9467C6.82227 38.6658 7.11034 39.3555 7.62312 39.864C8.13589 40.3725 8.83137 40.6582 9.55654 40.6582H32.7979C33.5231 40.6582 34.2185 40.3725 34.7313 39.864C35.2441 39.3555 35.5322 38.6658 35.5322 37.9467V36.5075C6.82227 34.7532 6.82227 5.4082 6.82227 5.4082Z" fill="#017B32"/>
<path d="M36.8982 8.12012H29.3789V9.47589H36.8982V8.12012Z" fill="#C3C3C3"/>
<path d="M24.5948 2.01904H-0.0136719V12.8652H24.5948V2.01904Z" fill="#017B32"/>
<path d="M23.2279 12.8652H5.45508V14.8989H23.2279V12.8652Z" fill="#C3C3C3"/>
<path d="M28.2188 28.7561C26.8187 28.3271 25.3575 28.1267 23.8925 28.163C22.9198 27.3359 22.0504 26.3962 21.3031 25.364C21.983 23.7589 22.4022 22.0571 22.5452 20.3219C22.5452 18.0713 21.7249 17.6104 20.4944 17.6104C19.264 17.6104 18.6625 18.9865 18.5182 20.1653C18.3028 22.0677 18.762 23.9852 19.817 25.5884C19.3105 26.8282 18.7415 28.042 18.1122 29.2252C15.7582 30.0488 13.6894 31.5203 12.1481 33.4674C11.999 33.7006 11.2793 34.9134 11.7851 35.8265C11.9522 36.0923 12.1923 36.3054 12.4771 36.4408C12.762 36.5763 13.0799 36.6284 13.3935 36.5911C14.9842 36.5911 17.1935 33.723 19.0432 30.299C20.4529 29.8465 21.9189 29.5897 23.3996 29.5357C24.3553 30.325 25.3559 31.0592 26.3964 31.7348C27.8086 32.6594 28.9023 32.9305 29.7411 32.5611C30.0001 32.4423 30.2262 32.2631 30.4002 32.0388C30.5743 31.8145 30.691 31.5518 30.7405 31.2731C30.7455 31.2383 30.748 31.2032 30.748 31.168C30.748 30.1587 29.8498 29.3018 28.2188 28.7561ZM13.3935 35.2354C13.2536 35.2475 13.1127 35.2254 12.9834 35.1709C12.9832 34.8389 13.0829 34.5143 13.2698 34.2389C14.2754 32.9408 15.5596 31.881 17.0294 31.1362C15.6015 33.4966 14.168 35.2354 13.3935 35.2354ZM19.8751 20.3287C19.9756 19.5084 20.3147 18.9661 20.4944 18.9661C20.9777 18.9661 21.178 18.9661 21.178 20.3219C21.1155 21.5435 20.8682 22.7489 20.4445 23.8977C19.8961 22.7922 19.6976 21.5481 19.8751 20.3287ZM19.8697 28.6836C20.1663 28.0735 20.4473 27.4539 20.7084 26.8418C21.1168 27.3492 21.5548 27.8324 22.0202 28.2891C21.2957 28.3759 20.5775 28.5077 19.8697 28.6836ZM29.1778 31.3273C29.0411 31.3816 28.5025 31.4921 27.1497 30.6054C26.6379 30.2696 26.1594 29.9399 25.7142 29.6164C26.4156 29.6867 27.1078 29.8296 27.7792 30.0428C28.8046 30.3817 29.3077 30.8216 29.3713 31.1111C29.3552 31.1581 29.3295 31.2014 29.2959 31.2383C29.2623 31.2751 29.2214 31.3047 29.1758 31.3253L29.1778 31.3273Z" fill="#F2F2F2"/>
<path d="M19.8167 25.5863C18.7616 23.9831 18.3024 22.0657 18.5179 20.1632C18.5821 19.5715 18.7725 19 19.0764 18.4868C18.7094 18.7663 18.4082 19.1217 18.1937 19.5282C17.9792 19.9348 17.8566 20.3828 17.8343 20.8411C17.6188 22.7435 18.0781 24.661 19.1331 26.2642C18.71 27.3068 18.2082 28.3656 17.6798 29.3967C17.8241 29.3384 17.9663 29.2767 18.1119 29.2232C18.7411 28.0399 19.3101 26.8261 19.8167 25.5863ZM13.873 33.5406C14.617 32.8594 15.448 32.2782 16.3448 31.812C15.723 32.8719 15.0113 33.8775 14.2176 34.8177C15.3288 33.7308 16.2756 32.4901 17.0284 31.1341C15.8414 31.745 14.7731 32.5597 13.873 33.5406Z" fill="#C3C3C3"/>
<path d="M11.7851 35.8246C11.2792 34.9115 11.999 33.6988 12.148 33.4656C12.3709 33.1748 12.6088 32.9009 12.8542 32.6365C12.3473 33.0975 11.8823 33.6018 11.4645 34.1435C11.3155 34.3767 10.5957 35.5894 11.1015 36.5025C11.2683 36.7685 11.508 36.9819 11.7926 37.1176C12.0772 37.2534 12.3949 37.306 12.7086 37.2692C13.4359 37.2692 14.2924 36.6652 15.1845 35.6877C14.7123 36.188 14.0779 36.5078 13.3921 36.5913C13.0785 36.6281 12.7608 36.5755 12.4762 36.4397C12.1916 36.304 11.9518 36.0906 11.7851 35.8246ZM26.395 31.7349C25.3545 31.0594 24.3539 30.3252 23.3982 29.5359C21.9175 29.5899 20.4515 29.8467 19.0418 30.2992C18.9373 30.4931 18.8313 30.6835 18.7247 30.8734C20.0216 30.4888 21.3621 30.2672 22.7147 30.2138C23.6703 31.003 24.6709 31.7373 25.7114 32.4128C27.1237 33.3375 28.2174 33.6086 29.0561 33.2392C29.4016 33.0875 29.6855 32.8248 29.8621 32.4935C29.821 32.5159 29.7848 32.5423 29.7397 32.5613C28.901 32.9307 27.8072 32.6596 26.395 31.7349ZM20.4931 21C20.4695 21.7414 20.3577 22.4775 20.1602 23.1929C20.2388 23.4187 20.329 23.6518 20.4432 23.8979C20.8669 22.7491 21.1141 21.5437 21.1766 20.3221C21.1766 18.9663 20.9763 18.9663 20.4931 18.9663C20.3693 18.9663 20.1725 19.2273 20.0275 19.653C20.3516 19.6855 20.4931 19.8726 20.4931 21ZM20.707 26.842C20.5703 27.1626 20.4151 27.4846 20.2682 27.8066C20.455 28.0285 20.6519 28.2497 20.8588 28.4703C21.247 28.3977 21.6346 28.3347 22.0208 28.2893C21.5548 27.8327 21.1161 27.3494 20.707 26.842ZM27.7806 30.0409C27.1091 29.8278 26.417 29.6848 25.7155 29.6145C26.1598 29.9385 26.6383 30.2682 27.151 30.6036C28.5038 31.4902 29.0445 31.3797 29.1792 31.3255C29.2251 31.3048 29.2662 31.2749 29.3 31.2377C29.3337 31.2004 29.3594 31.1567 29.3754 31.1093C29.3111 30.8198 28.8053 30.3832 27.7806 30.0409Z" fill="#C3C3C3"/>
<path d="M15.7086 4.73062V10.8316H17.0757V8.12004H19.81V6.76427H17.0757V5.4085H19.81V4.05273H16.3921C16.2108 4.05273 16.037 4.12415 15.9088 4.25128C15.7806 4.37841 15.7086 4.55083 15.7086 4.73062ZM6.82217 4.05273H4.77146C4.59017 4.05273 4.4163 4.12415 4.2881 4.25128C4.15991 4.37841 4.08789 4.55083 4.08789 4.73062V10.8316H5.45503V8.12004H6.82217C7.36605 8.12004 7.88765 7.90578 8.27224 7.5244C8.65682 7.14301 8.87287 6.62575 8.87287 6.08639C8.87287 5.54703 8.65682 5.02976 8.27224 4.64838C7.88765 4.26699 7.36605 4.05273 6.82217 4.05273ZM6.82217 6.76427H5.45503V5.4085H6.82217C7.00346 5.4085 7.17733 5.47992 7.30552 5.60705C7.43372 5.73418 7.50574 5.9066 7.50574 6.08639C7.50574 6.26617 7.43372 6.4386 7.30552 6.56573C7.17733 6.69285 7.00346 6.76427 6.82217 6.76427ZM11.6072 4.05273H10.24C10.0587 4.05273 9.88485 4.12415 9.75666 4.25128C9.62846 4.37841 9.55644 4.55083 9.55644 4.73062V10.1537C9.55644 10.3335 9.62846 10.5059 9.75666 10.633C9.88485 10.7602 10.0587 10.8316 10.24 10.8316H11.6072C12.5136 10.8316 13.383 10.4745 14.0239 9.83884C14.6649 9.2032 15.025 8.34109 15.025 7.44216C15.025 6.54323 14.6649 5.68111 14.0239 5.04547C13.383 4.40983 12.5136 4.05273 11.6072 4.05273ZM11.6072 9.47581H10.9236V5.4085H11.6072C12.151 5.4085 12.6726 5.62276 13.0572 6.00415C13.4418 6.38553 13.6579 6.9028 13.6579 7.44216C13.6579 7.98152 13.4418 8.49878 13.0572 8.88017C12.6726 9.26155 12.151 9.47581 11.6072 9.47581Z" fill="#F2F2F2"/>
<path d="M19.1269 5.4082H17.0762V6.08609H19.1269V5.4082Z" fill="#C3C3C3"/>
<path d="M15.709 4.73047C15.5277 4.73047 15.3538 4.80189 15.2256 4.92902C15.0974 5.05614 15.0254 5.22857 15.0254 5.40835V11.5093H16.3925V10.8314H15.709V4.73047Z" fill="#C3C3C3"/>
<path d="M19.1269 8.12012H17.0762V8.798H19.1269V8.12012Z" fill="#C3C3C3"/>
<path d="M6.82214 5.40835H5.455V6.08624H6.13857C6.31987 6.08624 6.49374 6.15766 6.62193 6.28479C6.75012 6.41191 6.82214 6.58434 6.82214 6.76412C7.00344 6.76412 7.1773 6.6927 7.3055 6.56557C7.43369 6.43845 7.50571 6.26602 7.50571 6.08624C7.50571 5.90645 7.43369 5.73403 7.3055 5.6069C7.1773 5.47977 7.00344 5.40835 6.82214 5.40835ZM5.455 8.11989V8.79778H6.13857C6.48996 8.79682 6.83518 8.70613 7.14096 8.53445C7.44675 8.36276 7.70279 8.11587 7.88441 7.81756C7.56524 8.01361 7.19758 8.11825 6.82214 8.11989H5.455ZM4.08787 4.73047C3.90657 4.73047 3.7327 4.80189 3.60451 4.92902C3.47632 5.05614 3.4043 5.22857 3.4043 5.40835V11.5093H4.77144V10.8314H4.08787V4.73047ZM13.6578 7.44201C13.6578 6.90265 13.4418 6.38538 13.0572 6.004C12.6726 5.62261 12.151 5.40835 11.6071 5.40835H10.9236V6.08624C11.2878 6.08425 11.646 6.17903 11.9608 6.36075C12.2757 6.54246 12.5357 6.80447 12.7139 7.11956C12.8921 7.43464 12.9819 7.79129 12.9741 8.15246C12.9663 8.51362 12.8611 8.86612 12.6694 9.17332C12.9702 8.99321 13.2192 8.7393 13.3923 8.43606C13.5654 8.13282 13.6569 7.79047 13.6578 7.44201Z" fill="#C3C3C3"/>
<path d="M10.2402 10.8314C10.0589 10.8314 9.88502 10.76 9.75683 10.6329C9.62863 10.5058 9.55662 10.3333 9.55662 10.1535V4.73047C9.37532 4.73047 9.20145 4.80189 9.07326 4.92902C8.94507 5.05614 8.87305 5.22857 8.87305 5.40835V10.8314C8.87305 11.0112 8.94507 11.1836 9.07326 11.3108C9.20145 11.4379 9.37532 11.5093 9.55662 11.5093H10.9238C11.4537 11.5077 11.976 11.3835 12.449 11.1465C12.9221 10.9095 13.3328 10.5662 13.6485 10.1441C13.0618 10.5876 12.345 10.829 11.6073 10.8314H10.2402Z" fill="#C3C3C3"/>
</g>
<defs>
<clipPath id="clip0_343_2051">
<rect width="37" height="42" fill="white"/>
</clipPath>
</defs>
</svg>
