<svg width="63" height="76" viewBox="0 0 63 76" fill="none" xmlns="http://www.w3.org/2000/svg">
<path d="M23.8584 -3.07642C15.7805 -3.07642 8.09154 2.11124 4.54883 10.1707L4.5459 10.1785C0.750267 18.5642 2.32332 27.8393 8.71777 35.1218C16.7376 44.0527 24.256 51.7089 29.793 57.1433C32.5616 59.8607 34.8342 62.0218 36.4248 63.5085C37.2202 64.252 37.8453 64.8263 38.2754 65.2166C38.4906 65.4119 38.6555 65.5603 38.7686 65.6599C38.8129 65.699 38.8482 65.7286 38.874 65.7507L38.8887 65.7585L38.9609 65.822C39.5444 66.3325 40.1865 66.5495 40.9316 66.5496C41.677 66.5496 42.3198 66.3326 42.9033 65.822L42.9756 65.7585L42.9932 65.7498C43.0192 65.7277 43.0545 65.6972 43.0996 65.658C43.2133 65.559 43.3794 65.4116 43.5957 65.2175C44.0279 64.8297 44.6554 64.259 45.4541 63.5193C47.0514 62.04 49.3324 59.8879 52.1064 57.1765C57.6551 51.7532 65.1746 44.0963 73.1494 35.1189L73.1533 35.115L73.7549 34.4265C79.817 27.2555 81.1773 18.3006 77.501 10.1785L77.498 10.1707C73.9554 2.11118 66.2664 -3.07642 58.1885 -3.07642C49.9483 -3.07641 44.6783 0.54435 41.6104 4.40112L41.0234 5.1394L40.4365 4.40112C37.3686 0.544343 32.0985 -3.07632 23.8584 -3.07642ZM23.9492 2.72827C29.5981 2.72827 33.1279 4.87499 35.2734 7.19116C37.3986 9.48542 38.1243 11.8995 38.2725 12.3933L38.2734 12.3972C38.6438 13.6556 39.8299 14.5972 41.1143 14.5974C42.4255 14.5974 43.5666 13.7275 43.8516 12.446L43.8555 12.4285L43.8604 12.4109L43.9463 12.1189C44.2164 11.2517 45.0058 9.15282 46.8662 7.15503C49.0132 4.84963 52.5429 2.72828 58.1885 2.72827C64.002 2.72827 69.6318 6.68293 72.292 12.4783L72.2949 12.4851L72.2988 12.4929C75.0731 18.9024 73.8066 25.6909 68.8857 31.2742L68.8838 31.2771C56.9936 44.6307 46.2014 54.9643 41.5371 59.3542L41.0234 59.8386L40.5088 59.3542C35.8425 54.9624 25.0528 44.5384 13.165 31.2791L13.1602 31.2742C8.39502 25.8675 7.05194 19.3224 9.58691 13.1667L9.84473 12.572C12.5043 6.68443 18.1342 2.72835 23.9492 2.72827ZM21.6143 25.1375C20.8728 25.2186 20.14 25.5148 19.5508 26.0164C19.0049 26.6541 18.6729 27.381 18.6729 28.0388C18.6729 28.8579 18.967 29.5535 19.5127 30.031L19.5508 30.0642L19.583 30.1013C20.0542 30.6399 20.8366 30.9411 21.5752 30.9412C22.3138 30.9412 23.0961 30.6399 23.5674 30.1013L23.584 30.0828L23.6016 30.0652L23.7861 29.8591C24.1993 29.3494 24.4775 28.6467 24.4775 28.0388C24.4775 27.3002 24.1763 26.5179 23.6377 26.0466L23.6191 26.03L23.6016 26.0125C23.0982 25.5092 22.3004 25.1506 21.6143 25.1375ZM24.582 8.87964C21.6461 9.30895 15.9082 12.1953 15.3857 20.2253V20.2263C15.3152 21.5689 16.2956 22.7407 17.6768 22.8152H17.832C19.0967 22.8152 20.209 21.829 20.2783 20.5125L20.2793 20.4998L20.3252 19.991C20.601 17.514 21.5563 15.9641 22.6162 15.0164C23.7199 14.0295 24.8697 13.7554 25.2959 13.6931C26.6291 13.4812 27.5349 12.2998 27.4043 10.9705C27.1869 9.6652 25.9336 8.74065 24.582 8.87964Z" fill="#8C8C8C" fill-opacity="0.15" stroke="white" stroke-width="1.5"/>
</svg>
