<svg width="61" height="43" viewBox="0 0 61 43" fill="none" xmlns="http://www.w3.org/2000/svg">
<path d="M47.7109 22.3747C45.9755 19.5538 43.5712 17.2045 40.7109 15.5347L41.7109 13.8447C44.8673 15.6769 47.5225 18.26 49.4409 21.3647L47.7109 22.3747Z" fill="#0081D3"/>
<path d="M57.7109 34.8447V32.8447C57.722 29.2975 57.0284 25.7834 55.6706 22.5064C54.3127 19.2293 52.3176 16.2546 49.8009 13.7547C45.7068 9.68344 40.4204 7.02452 34.7109 6.16473V0.844727H26.7109V6.14473C20.3149 7.10285 14.4753 10.325 10.2543 15.225C6.03335 20.125 3.71143 26.3774 3.71094 32.8447V34.8447H0.710938V42.8447H60.7109V34.8447H57.7109ZM32.7109 2.84473V5.92473C31.3791 5.83472 30.0428 5.83472 28.7109 5.92473V2.84473H32.7109ZM5.71094 32.8447C5.70907 26.7134 7.96041 20.7953 12.0369 16.2154C16.1134 11.6356 21.7308 8.7135 27.8209 8.00473C29.7419 7.7947 31.68 7.7947 33.6009 8.00473C39.193 8.66697 44.3993 11.1926 48.3809 15.1747C50.7131 17.487 52.5622 20.24 53.8206 23.2736C55.079 26.3071 55.7216 29.5606 55.7109 32.8447V34.8447H5.71094V32.8447ZM58.7109 40.8447H2.71094V36.8447H58.7109V40.8447Z" fill="#0081D3"/>
</svg>
