<svg width="117" height="146" viewBox="0 0 117 146" fill="none" xmlns="http://www.w3.org/2000/svg">
<path d="M111.594 3.5C111.594 2.02724 112.788 0.833344 114.261 0.833344C115.734 0.833344 116.927 2.02724 116.927 3.5C116.927 4.97276 115.734 6.16667 114.261 6.16667C112.788 6.16667 111.594 4.97276 111.594 3.5ZM53.695 145.5L54.1549 145.696L54.0253 146H53.695V145.5ZM1.26074 146C0.9846 146 0.760742 145.776 0.760742 145.5C0.760742 145.224 0.9846 145 1.26074 145V146ZM114.261 3.5L114.721 3.69617L54.1549 145.696L53.695 145.5L53.2351 145.304L113.801 3.30385L114.261 3.5ZM53.695 145.5V146H1.26074V145.5V145H53.695V145.5Z" fill="#016228"/>
</svg>
