<svg width="193" height="119" viewBox="0 0 193 119" fill="none" xmlns="http://www.w3.org/2000/svg">
<path d="M187.594 115.5C187.594 116.973 188.788 118.167 190.261 118.167C191.734 118.167 192.927 116.973 192.927 115.5C192.927 114.027 191.734 112.833 190.261 112.833C188.788 112.833 187.594 114.027 187.594 115.5ZM88.9605 0.5L89.3357 0.169502L89.1864 0H88.9605V0.5ZM1.26074 0C0.9846 0 0.760742 0.223858 0.760742 0.5C0.760742 0.776142 0.9846 1 1.26074 1V0ZM190.261 115.5L190.636 115.17L89.3357 0.169502L88.9605 0.5L88.5853 0.830498L189.886 115.83L190.261 115.5ZM88.9605 0.5V0H1.26074V0.5V1H88.9605V0.5Z" fill="#55A476"/>
</svg>
