<svg width="213" height="14" viewBox="0 0 213 14" fill="none" xmlns="http://www.w3.org/2000/svg">
<path d="M207.594 10.5C207.594 11.9728 208.787 13.1667 210.26 13.1667C211.733 13.1667 212.927 11.9728 212.927 10.5C212.927 9.02724 211.733 7.83333 210.26 7.83333C208.787 7.83333 207.594 9.02724 207.594 10.5ZM91.7606 0.5L91.8026 0.00177091L91.7816 0H91.7606V0.5ZM1 0C0.723858 0 0.5 0.223858 0.5 0.5C0.5 0.776142 0.723858 1 1 1V0ZM210.26 10.5L210.302 10.0018L91.8026 0.00177091L91.7606 0.5L91.7185 0.998229L210.218 10.9982L210.26 10.5ZM91.7606 0.5V0H1V0.5V1H91.7606V0.5Z" fill="#12833F"/>
</svg>
