<svg width="65" height="65" viewBox="0 0 65 65" fill="none" xmlns="http://www.w3.org/2000/svg">
<g clip-path="url(#clip0_268_1914)">
<g clip-path="url(#clip1_268_1914)">
<path d="M32.7393 0.555664C21.7113 0.555664 12.7393 9.52766 12.7393 20.5557V26.5557H9.73926C8.41366 26.5573 7.14282 27.0845 6.20548 28.0219C5.26814 28.9592 4.74085 30.2301 4.73926 31.5557L4.73926 59.5557C4.73926 62.3117 6.98326 64.5557 9.73926 64.5557H55.7393C58.4953 64.5557 60.7393 62.3117 60.7393 59.5557V31.5557C60.7393 28.7997 58.4953 26.5557 55.7393 26.5557H52.7393V20.5557C52.7393 9.52766 43.7673 0.555664 32.7393 0.555664ZM14.7393 20.5557C14.7393 10.6317 22.8153 2.55566 32.7393 2.55566C42.6633 2.55566 50.7393 10.6317 50.7393 20.5557V26.5557H44.7393V20.5557C44.7393 13.9377 39.3573 8.55566 32.7393 8.55566C26.1213 8.55566 20.7393 13.9377 20.7393 20.5557V26.5557H14.7393V20.5557ZM42.7393 26.5557H22.7393V20.5557C22.7393 15.0417 27.2253 10.5557 32.7393 10.5557C38.2533 10.5557 42.7393 15.0417 42.7393 20.5557V26.5557ZM29.3253 42.5557L19.3253 52.5557H10.1533L20.1533 42.5557H29.3253ZM41.3253 42.5557L31.3253 52.5557H22.1533L32.1533 42.5557H41.3253ZM53.3253 42.5557L43.3253 52.5557H34.1533L44.1533 42.5557H53.3253ZM58.7393 42.5557V52.5557H46.1533L56.1533 42.5557H58.7393ZM7.32526 52.5557H6.73926V42.5557H17.3253L7.32526 52.5557ZM55.7393 62.5557H9.73926C8.08526 62.5557 6.73926 61.2097 6.73926 59.5557V54.5557H58.7393V59.5557C58.7393 61.2097 57.3933 62.5557 55.7393 62.5557ZM58.7393 31.5557V40.5557H6.73926V31.5557C6.73926 29.9017 8.08526 28.5557 9.73926 28.5557H55.7393C57.3933 28.5557 58.7393 29.9017 58.7393 31.5557Z" fill="#B59016"/>
</g>
</g>
<defs>
<clipPath id="clip0_268_1914">
<rect width="64" height="64" fill="white" transform="translate(0.62207 0.400391)"/>
</clipPath>
<clipPath id="clip1_268_1914">
<rect width="56" height="64" fill="white" transform="translate(4.73926 0.555664)"/>
</clipPath>
</defs>
</svg>
