<svg width="118" height="88" viewBox="0 0 118 88" fill="none" xmlns="http://www.w3.org/2000/svg">
<path d="M47.7133 2.7048C51.4294 5.22062 54.7747 8.35864 57.8073 11.6808C58.8204 12.7884 59.897 13.8847 60.8473 15.0472C61.6144 15.994 62.2447 17.0716 62.7206 18.1935C62.9969 18.8367 63.2105 19.5002 63.3708 20.1818C65.932 17.9996 69.0844 19.4116 69.0844 19.4116C75.7955 22.2813 72.9543 31.7788 72.9543 31.7788C72.4148 34.1796 70.869 36.4565 69.4842 37.5709C73.8868 39.1594 78.52 32.966 78.52 32.966C79.6351 31.9554 81.5785 27.5339 82.8414 24.4545C82.7572 24.4552 82.7025 24.4575 82.7025 24.4575C79.7024 24.5161 77.4109 23.6339 75.5672 21.188C73.9652 19.0576 72.9934 16.5629 73.3348 13.8404C73.6607 11.2712 76.2522 9.03719 78.8112 8.92372C83.2877 8.72759 82.0219 13.8712 82.0219 13.8712C81.1891 12.3856 79.8849 10.6235 77.9784 11.1187C76.0911 11.6116 74.8977 14.1034 75.4911 15.9557C76.6195 19.4867 79.539 20.7777 82.8008 21.2894C83.2397 21.3593 83.6594 21.3856 84.0614 21.3803C85.9613 13.9501 90.4659 12.5051 92.5157 12.2421C92.5187 12.2218 92.5268 12.1887 92.5268 12.1887C92.5445 12.2023 92.5578 12.221 92.5726 12.2346C92.6532 12.2255 92.7293 12.2165 92.801 12.209C91.7162 8.92372 89.4461 6.25085 85.6117 4.59918C79.0935 1.78729 71.1172 2.47486 66.6473 8.63141C65.5537 10.138 64.0884 13.5443 64.8317 15.474L60.0995 10.1967L56.5075 6.57096C51.7464 2.62966 47.3874 1.04412 43.6919 0.668396C45.124 1.17938 46.5095 1.89099 47.7133 2.7048Z" fill="#231F20"/>
<path d="M85.5068 21.1992C89.4528 20.2471 91.4028 15.7783 92.1484 13.5157C90.5161 13.3587 88.8416 14.5302 88.0421 15.5364C86.7334 17.1873 86.3854 19.3229 85.5068 21.1992ZM92.979 12.8131C92.9724 12.7944 92.9665 12.7726 92.962 12.7538L92.9532 12.7613C92.962 12.7793 92.9702 12.7966 92.979 12.8131ZM70.0014 27.5248C70.0258 26.844 69.9689 26.1685 69.793 25.5245C69.3932 24.0539 68.3255 22.2986 66.5912 22.5052C64.0861 22.805 63.4255 26.6847 63.4728 28.7121C63.5297 31.2978 64.7187 34.4471 66.7426 36.1033C66.9976 36.3099 68.9174 32.298 69.0474 31.9133C69.5063 30.5652 69.9497 29.0262 70.0014 27.5248Z" fill="#231F20"/>
<path d="M84.3414 24.3087L84.2586 24.6048C84.2328 24.7363 84.2091 24.8671 84.1825 24.9978C81.2282 39.9079 74.8215 40.8802 74.8215 40.8802C71.3514 42.0983 68.5449 40.7382 66.9953 39.6314C67.1106 39.714 63.4713 43.9206 58.9423 42.8956C57.4119 42.5499 55.914 42.184 54.5551 41.4235C52.5489 40.5444 50.7444 39.4488 49.1394 38.2404C48.2615 39.9252 47.9201 43.109 48.0878 44.3955C48.2718 45.7864 50.7591 44.3271 52.1639 43.6087C54.21 42.565 56.4683 44.2692 56.4269 46.4409C56.3796 48.9567 54.0031 51.0765 52.0597 52.2901C58.7427 57.8282 59.0878 62.5465 59.0878 62.5465C58.8905 58.5135 76.0955 43.4983 76.0955 43.4983C83.5374 38.0045 92.1528 30.2662 93.3839 20.5147C93.5443 19.2568 93.6071 18.0335 93.5701 16.8514C92.1159 22.4339 87.0024 23.9157 84.3414 24.3087Z" fill="#46AE33"/>
<path d="M53.3987 45.0943C53.2576 45.0079 53.0551 45.059 52.764 45.3333C51.1464 46.8692 48.5941 46.9646 46.2745 46.1313C42.5916 44.8088 46.6506 37.9203 47.3704 36.8037C41.3827 31.5586 38.6633 25.1751 38.6633 25.1751C37.4722 22.6037 36.9778 20.1585 36.8566 17.3504C36.9978 20.4861 41.2652 25.5862 43.2655 27.7962C59.0406 45.2401 64.9603 37.226 64.9773 37.2019C64.8103 37.4251 62.7361 34.647 62.1205 33.8122C60.4993 31.612 59.9532 28.4206 60.4121 25.7102C60.5732 24.7618 60.8798 23.8398 61.3579 22.9742C61.4555 22.8006 62.7841 20.8776 62.7405 20.8108C56.4617 11.3441 46.0395 6.25537 46.0395 6.25537C40.0348 2.81978 41.2548 7.01808 41.2548 7.01808C41.911 11.7867 50.7112 17.9876 50.7112 17.9876C50.4614 17.8178 48.2069 16.7921 47.7901 16.5351C42.9507 13.5751 38.52 10.2673 37.5047 4.24977C37.3414 3.29469 37.2047 1.99019 37.7005 1.08997C37.5047 1.44465 35.2346 1.08997 32.4473 3.29619C30.9147 4.51127 22.4885 10.3763 24.5147 24.3748C25.7384 32.8331 32.2825 39.6847 38.8673 44.4421C39.9395 45.216 41.0694 45.9014 42.2007 46.5641L50.8833 51.0938C51.5573 50.4378 52.1595 49.6706 52.662 48.8726C53.0551 48.2443 54.4665 45.7421 53.3987 45.0943Z" fill="#E51B24"/>
<path d="M42.268 21.7658C42.2635 21.5111 42.1919 21.1677 42.1394 21.0542C42.1002 21.0617 41.5002 21.2421 41.4743 21.3308C41.396 21.43 41.6007 21.9717 41.6783 22.0416C41.7744 22.1265 42.2199 21.8493 42.268 21.7658ZM43.1828 21.4555C43.1133 21.4367 42.6397 21.6178 42.4919 21.6839C42.4483 21.8387 42.4786 22.2716 42.6005 22.4046C42.7719 22.5301 43.2766 22.1927 43.2914 22.1769C43.3897 22.0116 43.216 21.4833 43.1828 21.4555ZM43.887 19.2613C44.0939 19.2876 44.1937 19.4446 44.7701 19.1997C44.4767 19.6393 43.7762 20.402 44.3895 20.9415L44.9681 20.3201C44.5159 19.9226 45.2393 19.3485 45.509 18.428C45.5223 18.3971 45.5415 18.316 45.4137 18.3596C45.0309 18.691 44.7198 18.9449 44.1397 18.5745C44.1656 18.3611 44.2158 17.8884 44.0939 18.0477C44.0939 18.0477 43.8981 18.1958 43.6565 18.346C43.5331 18.4325 43.5131 18.4843 43.4961 18.5948C43.4503 19.0156 43.4111 19.5085 42.7956 20.1811C42.6589 20.3268 41.4699 20.2983 40.7938 19.7031C40.0482 19.0599 40.4568 18.2356 40.6999 17.9748C40.9874 17.6697 41.3568 17.536 41.5268 17.433C41.6354 17.3617 41.6849 17.17 41.5069 17.2204C40.9852 17.3609 40.4938 17.778 40.2351 18.0545C39.3912 18.9562 39.7504 19.8579 40.1479 20.2074C40.7679 20.7537 41.9547 20.9731 42.4638 20.7379C43.1784 20.4065 43.7355 19.4867 43.887 19.2613ZM44.6503 15.8746C44.5462 15.6288 44.207 15.9452 43.9158 16.0091C43.6092 16.0729 44.1006 16.7861 44.1937 16.7958C44.3067 16.7988 44.4094 16.7365 44.7486 16.5441C44.9526 16.4336 44.7878 16.1909 44.6503 15.8746Z" fill="white"/>
<path d="M45.8703 21.0023C46.6262 20.9843 47.7524 20.9881 48.1026 21.2954C48.5246 21.6651 48.4418 21.8304 48.4632 22.1002C48.1743 22.2084 46.655 21.6651 45.8703 21.0023ZM47.4376 22.6878C48.4787 22.796 49.1785 22.2835 49.2635 22.1904C49.616 21.8154 49.2399 21.0549 49.0573 20.8941C48.6288 20.5162 47.7095 20.5988 46.2508 20.5011C46.4828 20.3155 46.5678 20.3336 47.1132 19.5468C47.1287 19.5175 48.3879 17.4751 48.5637 17.2827C48.7462 17.2895 49.1571 17.022 49.2421 16.931C49.4069 16.7695 49.0699 16.417 49.3699 15.9429C49.531 15.6927 48.9007 16.0579 48.6073 16.2314C48.4462 16.4802 48.331 16.7432 48.2807 16.9198C47.2373 18.346 46.6225 19.8106 46.007 20.4681C45.7372 20.5237 45.4875 20.5124 45.2289 20.5237C45.2289 20.5237 45.0655 20.4064 44.9695 20.3223L44.3894 20.9415C44.9872 21.4667 45.8983 21.977 46.1503 22.4075C47.0637 23.4881 47.7198 23.8713 47.9918 24.1095L48.5704 23.4904C48.0612 23.0575 47.8137 23.0463 47.4376 22.6878ZM52.6287 26.433C52.9376 26.2587 53.1925 26.064 52.9812 26.058C52.3117 26.0287 52.2422 26.5525 51.7028 26.0768C51.5528 25.9446 51.5158 25.8296 51.4944 25.7409C51.5831 25.5839 52.1336 25.5223 51.7767 25.3629C51.6097 25.3397 51.5092 25.3231 51.3983 25.3652C50.9838 25.529 50.7111 25.2623 50.2685 24.9143C50.0483 24.7475 49.8658 24.462 49.9138 24.365C50.1813 24.2951 50.4244 24.1591 50.2833 24.0772C50.0941 23.9683 49.9204 24.0787 49.5524 23.9765C49.1438 23.8698 48.8726 23.7556 48.5726 23.4904L47.9918 24.1103C47.9918 24.1103 48.6243 24.6115 49.1896 24.5491C48.9938 24.6987 49.0788 25.0391 49.6293 25.5207C50.0091 25.8581 50.1333 25.8957 50.6594 25.9536C50.6771 26.1369 50.7702 26.4706 50.9705 26.6449C51.4619 27.0785 51.7597 26.8531 52.1816 26.6795C52.0745 27.3528 51.9725 27.2776 52.1203 27.615C52.1816 27.7661 52.3723 27.9629 52.3723 27.9629L52.9531 27.3437C52.6464 27.0056 52.605 26.6765 52.6287 26.433ZM54.4679 27.337C54.7642 26.6937 55.1662 25.9874 55.6576 25.2765C56.1468 24.5649 56.5185 24.0276 56.8688 23.6241C57.3166 23.1124 56.673 23.3536 56.251 23.8202C55.6163 24.5153 55.5704 24.6709 54.9638 25.4757C54.3423 26.309 53.9049 27.0251 53.6181 27.331C53.3965 27.5669 53.1748 27.5406 52.9531 27.3452L52.3745 27.9652C52.6117 28.1748 53.4615 27.9321 53.8184 27.5053C53.3942 28.3755 53.457 28.791 53.7726 29.1953L54.3534 28.5754C54.1923 28.392 54.1768 27.9742 54.4679 27.337ZM57.5094 26.0693C57.6166 26.0648 57.7311 26.0009 58.0622 25.8183C58.2617 25.6988 58.1124 25.4569 57.9728 25.1398C57.8597 24.9031 57.5161 25.2104 57.2382 25.2743C56.9338 25.3389 57.4252 26.0505 57.5094 26.0693Z" fill="white"/>
<path d="M56.0641 27.9074C56.0049 27.7856 56.4055 27.7751 56.5599 27.8277C56.6338 27.9051 56.6227 28.0223 56.6316 28.1696C56.4683 28.235 56.1247 28.0449 56.0641 27.9074ZM55.7271 29.8821C55.9813 29.8551 56.2163 29.7138 56.4727 29.5478C56.6057 29.4696 56.7121 29.3539 56.8274 29.2322C57.5553 28.4514 57.5796 27.4963 57.2161 27.219C56.8444 26.935 56.0138 27.3881 55.7921 27.6256C55.5291 27.9074 55.184 28.371 55.6599 28.6806C55.849 28.8053 55.9052 28.8527 56.0766 28.8384C56.3183 28.8136 56.4771 28.6596 56.6619 28.4469C56.6685 28.6881 56.5377 29.1059 56.3072 29.2915C55.9118 29.3734 55.116 29.2615 54.3527 28.5761L53.7726 29.1953C54.0837 29.4681 55.0532 29.8882 55.7271 29.8821Z" fill="white"/>
<path d="M2.67633 69.5231C3.02659 69.5231 3.20246 69.7154 3.20246 70.1024C3.20246 70.4849 3.02659 70.6773 2.67633 70.6773C2.32607 70.6773 2.1502 70.4849 2.1502 70.1024C2.1502 69.7154 2.32607 69.5231 2.67633 69.5231ZM5.34394 73.6951C5.34394 73.9956 5.43704 74.2361 5.62178 74.4157C5.80652 74.5923 6.05037 74.681 6.35039 74.681H6.51517V75.488H6.48487C5.91958 75.488 5.53976 75.2911 5.34394 74.8996V75.4482C5.34394 77.1307 4.50006 77.9708 2.81525 77.9708H2.08739C1.46741 77.9708 0.971577 77.7498 0.599885 77.305C0.228194 76.8609 0.043457 76.253 0.043457 75.479C0.043457 74.6501 0.180163 73.8874 0.458747 73.1931H1.30189C1.06986 73.81 0.953842 74.5502 0.953842 75.4189C0.953842 75.9742 1.06986 76.4033 1.29745 76.7083C1.52579 77.0112 1.8524 77.1637 2.27804 77.1637H2.77387C3.91333 77.1637 4.48085 76.6107 4.48085 75.5098V70.4804H5.34394V73.6951Z" fill="#231F20"/>
<path d="M8.85031 75.8765C9.20057 75.8765 9.37644 76.0719 9.37644 76.4559C9.37644 76.8406 9.20057 77.033 8.85031 77.033C8.49561 77.033 8.31974 76.8406 8.31974 76.4559C8.31974 76.0719 8.49561 75.8765 8.85031 75.8765ZM7.29408 75.8765C7.64804 75.8765 7.82391 76.0719 7.82391 76.4559C7.82391 76.8406 7.64804 77.033 7.29408 77.033C6.9416 77.033 6.76795 76.8406 6.76795 76.4559C6.76795 76.0719 6.9416 75.8765 7.29408 75.8765ZM6.31128 74.681H7.7005V70.4804H8.60276V73.6951C8.60276 73.9956 8.69439 74.2369 8.87839 74.4157C9.06165 74.5923 9.30476 74.681 9.60921 74.681H9.97647V75.488H9.7437C9.1784 75.488 8.79858 75.2911 8.60276 74.8996V75.488H6.31128V74.681Z" fill="#231F20"/>
<path d="M13.415 73.7943C13.5059 74.3872 13.8325 74.681 14.3971 74.681H17.6714V73.0429C17.6714 71.809 17.1238 71.1921 16.0257 71.1921C14.9868 71.1921 14.117 72.0592 13.415 73.7943ZM13.3973 75.4881H9.77246V74.681H12.5342V67.64H13.3973V72.7002C14.0476 71.15 14.9845 70.3745 16.2082 70.3745C17.7608 70.3745 18.5344 71.2499 18.5344 72.9985V73.7455C18.5344 74.0243 18.6261 74.2497 18.8108 74.4225C18.9933 74.5968 19.2372 74.681 19.5416 74.681H19.7042V75.4881H19.6695C19.102 75.4881 18.7236 75.2912 18.5344 74.8997V75.4881H14.4325C14.0128 75.4881 13.667 75.2228 13.3973 74.6915V75.4881Z" fill="#231F20"/>
<path d="M19.5017 75.488V74.6809L28.6003 74.6411V71.2431H29.4634V73.4982C29.4634 73.8341 29.5684 74.1083 29.7745 74.3225C29.9814 74.5352 30.2467 74.6411 30.5704 74.6411H31.2007V71.2431H32.0638V73.4982C32.0638 73.8341 32.1658 74.1083 32.3727 74.3225C32.5796 74.5352 32.8441 74.6411 33.1685 74.6411H33.7989V70.4406H34.6619V73.6552C34.6619 73.9558 34.7558 74.197 34.9398 74.3758C35.1253 74.5524 35.3662 74.6411 35.6684 74.6411H35.8317V75.4481H35.8036C35.2376 75.4481 34.8578 75.2513 34.6619 74.8598V75.4481H33.1988C32.6291 75.4481 32.2508 75.2513 32.0638 74.8598V75.4481H30.5985C30.031 75.4481 29.6526 75.2513 29.4634 74.8598V75.4481L19.5017 75.488Z" fill="#231F20"/>
<path d="M35.6293 74.6405L43.2006 74.6628V67.6211H44.1029V73.677C44.1029 73.9775 44.1945 74.2187 44.3792 74.3976C44.5617 74.5742 44.8049 74.6628 45.1093 74.6628H45.4766V75.4699H45.2445C44.677 75.4699 44.2987 75.273 44.1029 74.8815V75.4699L35.6293 75.4476V74.6405Z" fill="#231F20"/>
<path d="M48.7944 68.3553C49.1491 68.3553 49.325 68.5477 49.325 68.9347C49.325 69.3171 49.1491 69.5095 48.7944 69.5095C48.4441 69.5095 48.2683 69.3171 48.2683 68.9347C48.2683 68.5477 48.4441 68.3553 48.7944 68.3553ZM49.1528 71.2649C48.5513 71.2649 48.0813 71.4264 47.7443 71.7488C47.4096 72.0719 47.2419 72.5205 47.2419 73.0954C47.2419 74.1406 47.7052 74.6629 48.6318 74.6629H49.588V71.2649H49.1528ZM45.2748 74.6629H46.8665C46.514 74.2646 46.3396 73.7454 46.3396 73.1066C46.3396 72.3019 46.5879 71.6609 47.0882 71.1807C47.5877 70.7013 48.266 70.4623 49.1225 70.4623H50.4511V75.4699H45.2748V74.6629ZM58.2755 75.4751C57.606 75.4751 56.3032 75.6411 54.3664 75.9703V75.2188C54.8253 75.1234 55.1275 75.0685 55.2687 75.0505C54.8364 74.7349 54.6184 74.2637 54.6184 73.6378C54.6184 73.0081 54.8164 72.5196 55.2125 72.1725C55.6079 71.8253 56.1103 71.6525 56.7207 71.6525C57.1907 71.6525 57.6015 71.7524 57.9518 71.9561L57.7279 72.727C57.371 72.5482 57.0429 72.4595 56.7407 72.4595C55.9367 72.4595 55.5317 72.8728 55.5317 73.7002C55.5317 74.2374 55.7446 74.6267 56.1709 74.8649C57.1101 74.7372 57.8129 74.662 58.2755 74.6372V75.4751ZM60.3453 75.0708L75.2087 75.1632V75.9702L59.443 75.8778V68.029H60.3453V75.0708Z" fill="#231F20"/>
<path d="M77.1781 74.2765C77.2675 74.8694 77.5934 75.1632 78.1609 75.1632H81.433V73.525C81.433 72.2912 80.8854 71.6743 79.7873 71.6743C78.7506 71.6743 77.8786 72.5414 77.1781 74.2765ZM77.1589 75.9702H75.0063V75.1632H76.2958V68.1222H77.1589V73.1824C77.8084 71.6322 78.7484 70.8567 79.9699 70.8567C81.5217 70.8567 82.2961 71.7321 82.2961 73.4807V74.2276C82.2961 74.5064 82.3899 74.7319 82.5724 74.9047C82.755 75.079 83.0003 75.1632 83.3025 75.1632H83.4658V75.9702H83.4326C82.8636 75.9702 82.4852 75.7734 82.2961 75.3819V75.9702H78.1957C77.7759 75.9702 77.4301 75.705 77.1589 75.1737V75.9702Z" fill="#231F20"/>
<path d="M83.2633 75.9702V75.1632H84.8764C84.3961 74.7273 84.1567 74.1149 84.1567 73.3282C84.1567 72.5414 84.3769 71.9335 84.8181 71.5022C85.2592 71.0731 85.8437 70.8567 86.5723 70.8567C87.114 70.8567 87.5854 70.9581 87.9852 71.1595L87.7118 71.9312C87.2965 71.7516 86.8982 71.666 86.5221 71.666C85.5592 71.666 85.0789 72.2318 85.0789 73.368C85.0789 73.9008 85.1942 74.3321 85.4247 74.6657C85.6531 74.9971 85.9546 75.1632 86.3285 75.1632H88.1396V75.9702H83.2633ZM94.4007 68.8556C94.751 68.8556 94.9269 69.048 94.9269 69.435C94.9269 69.8174 94.751 70.0098 94.4007 70.0098C94.0468 70.0098 93.8702 69.8174 93.8702 69.435C93.8702 69.048 94.0468 68.8556 94.4007 68.8556ZM92.8445 68.8556C93.197 68.8556 93.3751 69.048 93.3751 69.435C93.3751 69.8174 93.197 70.0098 92.8445 70.0098C92.492 70.0098 92.3184 69.8174 92.3184 69.435C92.3184 69.048 92.492 68.8556 92.8445 68.8556ZM94.0143 71.7652C93.4054 71.7652 92.9354 71.929 92.6029 72.2536C92.2704 72.5805 92.1048 73.0321 92.1048 73.6069C92.1048 74.6454 92.5682 75.1632 93.4941 75.1632H94.6527V71.7652H94.0143ZM93.5184 75.9702C92.8009 75.9702 92.2356 75.7621 91.8203 75.3465C91.4095 74.9287 91.2033 74.3516 91.2033 73.6152C91.2033 72.7954 91.4575 72.1477 91.9659 71.6742C92.475 71.2016 93.149 70.9626 93.9832 70.9626H95.5166V75.1632H96.727V75.9702H93.5184Z" fill="#231F20"/>
<path d="M99.0643 76.3587C99.4146 76.3587 99.5882 76.5541 99.5882 76.9381C99.5882 77.3228 99.4146 77.5152 99.0643 77.5152C98.7096 77.5152 98.5315 77.3228 98.5315 76.9381C98.5315 76.5541 98.7096 76.3587 99.0643 76.3587ZM97.5059 76.3587C97.8598 76.3587 98.0379 76.5541 98.0379 76.9381C98.0379 77.3228 97.8598 77.5152 97.5059 77.5152C97.1556 77.5152 96.9797 77.3228 96.9797 76.9381C96.9797 76.5541 97.1556 76.3587 97.5059 76.3587ZM96.5253 75.1632H97.9123V70.9626H98.8145V74.1773C98.8145 74.4779 98.9076 74.7191 99.0902 74.8979C99.2749 75.0745 99.5165 75.1632 99.8232 75.1632H100.19V75.9702H99.9555C99.3909 75.9702 99.0096 75.7734 98.8145 75.3819V75.9702H96.5253V75.1632Z" fill="#231F20"/>
<path d="M101.619 72.2423C101.819 73.129 102.316 73.879 103.112 74.4929C104.106 73.8143 104.636 72.8878 104.706 71.7141C104.447 71.5284 104.026 71.436 103.447 71.436C103.112 71.436 102.769 71.5157 102.417 71.6742C102.062 71.8313 101.797 72.0214 101.619 72.2423ZM106.221 75.9702H104.982C104.356 75.9702 103.73 75.7996 103.099 75.457C102.523 75.7996 101.893 75.9702 101.212 75.9702H99.9857V75.1632H101.201C101.679 75.1632 102.084 75.0948 102.412 74.9573C101.995 74.6522 101.617 74.2194 101.277 73.6595C100.94 73.1005 100.728 72.5369 100.647 71.9733C100.952 71.551 101.362 71.2234 101.869 70.9852C102.375 70.7485 102.893 70.6312 103.419 70.6312C104.377 70.6312 105.117 70.8476 105.641 71.2805C105.641 71.9973 105.478 72.6894 105.152 73.3567C104.825 74.0225 104.38 74.5552 103.814 74.9467C104.206 75.0925 104.58 75.1632 104.941 75.1632H106.221V75.9702Z" fill="#231F20"/>
<path d="M108.254 75.1632H109.178C109.689 75.1632 110.085 75.0016 110.363 74.677C110.643 74.3539 110.785 73.9008 110.785 73.3169C110.785 72.7999 110.654 72.3934 110.393 72.0966C110.134 71.8028 109.793 71.6547 109.369 71.6547C108.95 71.6547 108.6 71.8313 108.319 72.1897C108.037 72.5459 107.897 73.0253 107.897 73.6265C107.897 74.3186 108.014 74.8318 108.254 75.1632ZM106.023 75.9702V75.1632H107.332C107.106 74.8048 106.995 74.2923 106.995 73.6265C106.995 72.8157 107.215 72.1522 107.654 71.6322C108.093 71.1152 108.669 70.8567 109.38 70.8567C110.067 70.8567 110.626 71.0776 111.054 71.518C111.482 71.9575 111.695 72.5677 111.695 73.3477C111.695 73.7084 111.621 74.0578 111.469 74.396C111.319 74.7341 111.122 74.9889 110.874 75.1632H112.654V75.9702H106.023Z" fill="#231F20"/>
<path d="M115.098 76.733C115.448 76.733 115.624 76.9253 115.624 77.3123C115.624 77.6971 115.448 77.8894 115.098 77.8894C114.748 77.8894 114.574 77.6971 114.574 77.3123C114.574 76.9253 114.748 76.733 115.098 76.733ZM116.852 75.1632C116.589 74.8761 116.376 74.2457 116.215 73.2733C116.113 72.6647 115.968 72.2423 115.78 72.0132C115.593 71.781 115.313 71.6652 114.935 71.6652C114.478 71.6652 113.987 71.8028 113.461 72.077L113.109 71.3669C113.63 71.0265 114.242 70.8567 114.944 70.8567C115.53 70.8567 115.991 71.016 116.326 71.3339C116.661 71.6502 116.891 72.2183 117.017 73.0366C117.189 74.1593 117.443 74.8761 117.78 75.185V75.9702H112.45V75.1632H116.852ZM3.02378 81.3243C4.46103 81.3243 5.20442 82.081 5.20442 82.081L4.67607 82.8872C4.67607 82.8872 4.04796 82.3177 3.11541 82.3177C1.80008 82.3177 1.09808 83.2412 1.09808 84.3661C1.09808 85.6601 1.9656 86.5024 3.06516 86.5024C3.95042 86.5024 4.53493 85.8787 4.53493 85.8787V85.1821H3.63489V84.2496H5.49409V87.3929H4.58518V87.1058C4.58518 86.9796 4.59405 86.8541 4.59405 86.8541H4.57631C4.57631 86.8541 3.9652 87.4928 2.87377 87.4928C1.32863 87.4928 0 86.2747 0 84.4022C0 82.6686 1.2806 81.3243 3.02378 81.3243ZM6.59142 81.4264H7.65921V87.3936H6.59142V81.4264ZM8.31096 81.4264H9.45929L10.7488 85.3174C10.8633 85.6601 10.9638 86.1906 10.9727 86.1906H10.9874C10.9874 86.1906 11.0968 85.6601 11.2113 85.3174L12.5097 81.4264H13.6491L11.5091 87.3929H10.451L8.31096 81.4264ZM14.3009 81.4264H17.8124V82.359H15.3664V83.922H17.3424V84.8553H15.3664V86.4603H17.9446V87.3929H14.3009V81.4264ZM22.9577 84.3931C23.5799 84.3931 23.9427 83.9881 23.9427 83.3674C23.9427 82.7527 23.5799 82.359 22.9754 82.359H21.9601V84.3931H22.9577ZM20.8923 81.4264H23.1579C24.2575 81.4264 25.0252 82.2064 25.0252 83.3674C25.0252 84.5284 24.2575 85.3324 23.1579 85.3324H21.9601V87.3929H20.8923V81.4264ZM27.5931 82.4589C27.5931 82.4589 27.4623 83.0466 27.347 83.3847L26.8253 84.9815H28.3623L27.8429 83.3847C27.7342 83.0466 27.6101 82.4589 27.6101 82.4589H27.5931ZM28.6254 85.863H26.5689L26.0731 87.3929H24.975L27.0404 81.4264H28.1562L30.2215 87.3929H29.1235L28.6254 85.863ZM30.891 81.4264H31.9566V86.4603H34.4934V87.3929H30.891V81.4264ZM35.2604 81.4264H38.7719V82.359H36.326V83.922H38.3019V84.8553H36.326V86.4603H38.9042V87.3929H35.2604V81.4264ZM40.0606 85.863C40.0606 85.863 40.6976 86.4934 41.5238 86.4934C41.9701 86.4934 42.3743 86.2567 42.3743 85.7705C42.3743 84.7027 39.6069 84.8861 39.6069 83.0556C39.6069 82.0652 40.4501 81.3243 41.574 81.3243C42.7305 81.3243 43.3238 81.9637 43.3238 81.9637L42.8613 82.8459C42.8613 82.8459 42.3004 82.3259 41.5651 82.3259C41.0678 82.3259 40.6806 82.6205 40.6806 83.0398C40.6806 84.0971 43.4391 83.8386 43.4391 85.7435C43.4391 86.6948 42.7305 87.4928 41.5068 87.4928C40.2003 87.4928 39.4828 86.6768 39.4828 86.6768L40.0606 85.863ZM45.6375 82.359H43.7133V81.4264H48.6287V82.359H46.703V87.3929H45.6375V82.359ZM49.3226 81.4264H50.3875V87.3936H49.3226V81.4264ZM51.7922 81.4264H52.8592L55.0813 84.871C55.3029 85.2152 55.5682 85.7946 55.5682 85.7946H55.5837C55.5837 85.7946 55.5268 85.2242 55.5268 84.871V81.4264H56.5858V87.3929H55.5268L53.3048 83.955C53.0809 83.6101 52.8156 83.0315 52.8156 83.0315H52.8009C52.8009 83.0315 52.8592 83.6019 52.8592 83.955V87.3929H51.7922V81.4264ZM57.9883 81.4264H61.499V82.359H59.0553V83.922H61.0298V84.8553H59.0553V86.4603H61.632V87.3929H57.9883V81.4264ZM66.8712 82.4589C66.8712 82.4589 66.7411 83.0466 66.6251 83.3847L66.1034 84.9815H67.6404L67.1209 83.3847C67.0123 83.0466 66.8889 82.4589 66.8889 82.4589H66.8712ZM67.9064 85.863H65.8492L65.3519 87.3929H64.2538L66.3192 81.4264H67.4343L69.4996 87.3929H68.4016L67.9064 85.863ZM70.3014 85.863C70.3014 85.863 70.9369 86.4934 71.763 86.4934C72.2086 86.4934 72.615 86.2567 72.615 85.7705C72.615 84.7027 69.8477 84.8861 69.8477 83.0556C69.8477 82.0652 70.6886 81.3243 71.8148 81.3243C72.9712 81.3243 73.5653 81.9637 73.5653 81.9637L73.102 82.8459C73.102 82.8459 72.5389 82.3259 71.8037 82.3259C71.3086 82.3259 70.9214 82.6205 70.9214 83.0398C70.9214 84.0971 73.6799 83.8386 73.6799 85.7435C73.6799 86.6948 72.9712 87.4928 71.7475 87.4928C70.441 87.4928 69.7235 86.6768 69.7235 86.6768L70.3014 85.863ZM74.7957 85.863C74.7957 85.863 75.4326 86.4934 76.2588 86.4934C76.7044 86.4934 77.1086 86.2567 77.1086 85.7705C77.1086 84.7027 74.3412 84.8861 74.3412 83.0556C74.3412 82.0652 75.1821 81.3243 76.3061 81.3243C77.4633 81.3243 78.0589 81.9637 78.0589 81.9637L77.5956 82.8459C77.5956 82.8459 77.0347 82.3259 76.3002 82.3259C75.8021 82.3259 75.4149 82.6205 75.4149 83.0398C75.4149 84.0971 78.1741 83.8386 78.1741 85.7435C78.1741 86.6948 77.4633 87.4928 76.2411 87.4928C74.9368 87.4928 74.2171 86.6768 74.2171 86.6768L74.7957 85.863ZM81.7847 86.5024C82.8591 86.5024 83.7177 85.5939 83.7177 84.3661C83.7177 83.1908 82.8591 82.3177 81.7847 82.3177C80.711 82.3177 79.8501 83.1908 79.8501 84.3661C79.8501 85.5939 80.711 86.5024 81.7847 86.5024ZM81.7847 81.3243C83.5138 81.3243 84.818 82.6596 84.818 84.3661C84.818 86.1222 83.5138 87.4928 81.7847 87.4928C80.0585 87.4928 78.752 86.1222 78.752 84.3661C78.752 82.6596 80.0585 81.3243 81.7847 81.3243ZM88.4263 81.3243C89.8569 81.3243 90.5922 82.1403 90.5922 82.1403L90.0786 82.9474C90.0786 82.9474 89.4113 82.3177 88.4766 82.3177C87.2374 82.3177 86.5095 83.2592 86.5095 84.3661C86.5095 85.5008 87.264 86.5024 88.4854 86.5024C89.5008 86.5024 90.1858 85.7442 90.1858 85.7442L90.7488 86.5265C90.7488 86.5265 89.9397 87.4928 88.4441 87.4928C86.6506 87.4928 85.4114 86.1395 85.4114 84.3841C85.4114 82.6536 86.7001 81.3243 88.4263 81.3243ZM91.6489 81.4264H92.7137V87.3936H91.6489V81.4264ZM96.0035 82.4589C96.0035 82.4589 95.8705 83.0466 95.7552 83.3847L95.2357 84.9815H96.7705L96.2511 83.3847C96.1446 83.0466 96.0183 82.4589 96.0183 82.4589H96.0035ZM97.0358 85.863H94.9771L94.4813 87.3929H93.3832L95.4508 81.4264H96.5666L98.6297 87.3929H97.5317L97.0358 85.863ZM100.175 82.359H98.2492V81.4264H103.167V82.359H101.24V87.3929H100.175V82.359ZM103.86 81.4264H104.926V87.3936H103.86V81.4264ZM108.956 86.5024C110.032 86.5024 110.891 85.5939 110.891 84.3661C110.891 83.1908 110.032 82.3177 108.956 82.3177C107.884 82.3177 107.023 83.1908 107.023 84.3661C107.023 85.5939 107.884 86.5024 108.956 86.5024ZM108.956 81.3243C110.684 81.3243 111.988 82.6596 111.988 84.3661C111.988 86.1222 110.684 87.4928 108.956 87.4928C107.23 87.4928 105.925 86.1222 105.925 84.3661C105.925 82.6596 107.23 81.3243 108.956 81.3243ZM112.989 81.4264H114.057L116.276 84.871C116.502 85.2152 116.765 85.7946 116.765 85.7946H116.783C116.783 85.7946 116.724 85.2242 116.724 84.871V81.4264H117.78V87.3929H116.724L114.502 83.955C114.278 83.6101 114.013 83.0315 114.013 83.0315H113.998C113.998 83.0315 114.057 83.6019 114.057 83.955V87.3929H112.989V81.4264Z" fill="#231F20"/>
</svg>
