<svg width="65" height="65" viewBox="0 0 65 65" fill="none" xmlns="http://www.w3.org/2000/svg">
<g clip-path="url(#clip0_271_2358)">
<path fill-rule="evenodd" clip-rule="evenodd" d="M38.7889 45.4689C38.7889 45.4689 48.2866 47.8463 50.5432 60.4695C50.5963 60.7389 50.7531 60.9767 50.9797 61.1316C51.2064 61.2866 51.4848 61.3464 51.7551 61.2981C52.0254 61.2498 52.2659 61.0973 52.4249 60.8734C52.5839 60.6495 52.6486 60.3722 52.6051 60.1011C50.0784 45.9667 39.2811 43.4329 39.2811 43.4329C39.0127 43.372 38.7311 43.4192 38.4972 43.5643C38.2633 43.7094 38.0959 43.9407 38.0312 44.2082C37.9665 44.4758 38.0097 44.758 38.1515 44.9939C38.2933 45.2298 38.5223 45.4005 38.7889 45.4689ZM16.0515 13.1131C15.8831 12.9315 15.7845 12.6962 15.7731 12.4488C15.7618 12.2014 15.8386 11.9581 15.9897 11.7619C16.1409 11.5658 16.3567 11.4296 16.5988 11.3775C16.8409 11.3255 17.0936 11.3609 17.312 11.4775C17.4486 11.5506 17.5886 11.6607 17.7104 11.816C17.8099 11.9423 17.9626 12.2605 17.9956 12.3306C18.1341 12.5589 18.3123 12.7589 18.4838 12.9583C18.8593 13.3957 19.4546 13.6855 19.9848 13.8535C21.2099 14.2427 22.7617 13.9483 23.9354 13.4957C24.3729 13.3267 24.8499 13.0293 25.334 12.8248C25.808 12.6244 26.2901 12.5016 26.7574 12.5148C27.4354 12.5335 28.0505 12.7675 28.6508 13.0649C29.1989 13.3358 29.7195 13.7139 30.3746 13.6997C30.6852 13.6931 30.9648 13.5835 31.2383 13.4607C31.6474 13.2765 32.0417 13.0532 32.4446 12.8847C33.1931 12.5716 33.968 12.4244 34.8464 12.6964C35.1065 12.7827 35.3225 12.9676 35.4479 13.2113C35.5733 13.4549 35.5982 13.7381 35.5172 13.9999C35.4363 14.2618 35.2559 14.4814 35.0149 14.6118C34.7738 14.7422 34.4912 14.7729 34.2278 14.6974C33.5828 14.4979 33.0789 14.8902 32.5319 15.1627C31.8701 15.4926 31.1851 15.7772 30.4193 15.794C29.6931 15.8092 29.0486 15.592 28.4331 15.2982C27.8597 15.0247 27.3375 14.6263 26.6981 14.6081C26.4474 14.6009 26.1977 14.7258 25.945 14.8466C25.5111 15.0531 25.0843 15.2972 24.689 15.4499C23.1052 16.0604 21.0043 16.3745 19.351 15.8498C18.4736 15.5712 17.5171 15.047 16.8954 14.3239C16.6422 14.029 16.389 13.7266 16.187 13.3881C16.1385 13.2981 16.0933 13.2064 16.0515 13.1131ZM4.23422 6.62617C5.11772 6.78298 6.02252 6.74086 6.91515 6.9545C7.97219 7.20772 8.94043 7.69133 10.0482 7.6416C10.846 7.60507 11.5894 7.34169 12.3328 7.08695C12.8484 6.91035 13.3625 6.72868 13.9283 6.77384C14.4921 6.8185 14.9894 7.09811 15.4908 7.37214C16.2103 7.76542 16.9294 8.16936 17.7104 8.34292C18.6355 8.54844 19.6469 8.38808 20.572 8.28151C21.2378 8.20489 21.9061 8.19525 22.5749 8.1993C22.8526 8.20066 23.1195 8.09177 23.3171 7.89654C23.5146 7.70131 23.6266 7.4357 23.6284 7.15799C23.6296 6.88024 23.5206 6.61334 23.3253 6.41584C23.13 6.21835 22.8644 6.10638 22.5866 6.1045C21.834 6.10044 21.082 6.11465 20.3325 6.20092C19.6311 6.2816 18.8659 6.45414 18.1646 6.29835C17.5729 6.16692 17.0406 5.83199 16.495 5.53411C15.7323 5.11748 14.9523 4.75414 14.0937 4.68563C13.2326 4.61763 12.4389 4.83686 11.6543 5.10581C11.0982 5.29611 10.5501 5.52193 9.95333 5.54883C9.04598 5.58993 8.26906 5.1251 7.40333 4.91754C6.4696 4.69375 5.52419 4.72826 4.5996 4.56384C4.32611 4.51539 4.04459 4.57756 3.81695 4.73668C3.5893 4.8958 3.4342 5.13884 3.38575 5.41232C3.33729 5.6858 3.39947 5.96733 3.55859 6.19497C3.71771 6.42261 3.96074 6.57772 4.23422 6.62617ZM43.6615 14.9425C43.759 14.7841 44.0944 14.2422 44.1751 14.162C44.8333 13.5058 45.7097 12.9441 46.6023 12.7609C47.6182 12.5528 48.7179 12.6761 49.6871 13.0471C50.1642 13.2293 50.6102 13.5612 51.1273 13.5891C51.5962 13.6144 51.9266 13.2927 52.2965 13.0547C52.7786 12.7446 53.2795 12.4691 53.8519 12.3605C54.4756 12.2423 55.1008 12.4655 55.6996 12.6056C56.1603 12.7137 56.6709 12.7675 57.1387 12.6995C57.4107 12.6656 57.685 12.7396 57.903 12.9057C58.121 13.0718 58.2652 13.3167 58.3047 13.5878C58.3442 13.859 58.2759 14.1349 58.1143 14.3562C57.9528 14.5776 57.711 14.7268 57.4407 14.772C56.7191 14.877 55.9315 14.8115 55.2215 14.6451C55.0246 14.5989 54.8247 14.5345 54.6237 14.4792C54.4969 14.4441 54.3715 14.3939 54.2416 14.4183C53.7007 14.5208 53.2932 14.9252 52.8304 15.1916C52.2818 15.5068 51.6987 15.7174 51.0142 15.6808C50.2804 15.6412 49.6156 15.2622 48.9391 15.0034C48.3368 14.773 47.6543 14.6837 47.023 14.8131C46.5394 14.912 46.0806 15.2338 45.7137 15.5864C45.6295 15.7285 45.3138 16.2522 45.2098 16.3629C45.0686 16.5183 44.8855 16.6297 44.6826 16.6836C44.4613 16.7423 44.2269 16.7269 44.0152 16.6398C43.8035 16.5526 43.6261 16.3985 43.5103 16.2011C43.3945 16.0036 43.3466 15.7736 43.3739 15.5463C43.4012 15.319 43.5023 15.1069 43.6615 14.9425ZM41.9443 7.43354C42.1219 7.33966 42.2736 7.23107 42.4172 7.11841C42.5152 7.04178 42.5827 6.92862 42.7364 6.90172C43.5215 6.7642 44.3217 6.9205 45.0307 7.29044C46.0141 7.8045 47.0164 8.57838 48.1353 8.71083C49.0848 8.82298 49.9586 8.35053 50.7173 7.81262C51.138 7.51423 51.5815 7.15241 52.0504 6.8525C52.3945 6.63277 52.7492 6.43841 53.1313 6.39629C53.4271 6.36432 53.6981 6.46175 53.9646 6.58304C54.3812 6.77283 54.7821 7.03316 55.1896 7.25593C55.9599 7.67713 56.7536 7.96384 57.6097 7.85981C57.8814 7.82154 58.1272 7.67818 58.2943 7.46055C58.4614 7.24291 58.5365 6.96839 58.5033 6.69601C58.4701 6.42363 58.3314 6.17515 58.1169 6.00399C57.9025 5.83283 57.6294 5.75267 57.3564 5.78074C57.0743 5.81525 56.815 5.71984 56.5582 5.60262C56.1456 5.41486 55.7452 5.15504 55.3357 4.93124C54.5684 4.51208 53.7712 4.21978 52.904 4.31417C51.6597 4.45017 50.5092 5.39202 49.5055 6.1045C49.1609 6.34859 48.8123 6.68199 48.3814 6.63074C48.0191 6.58811 47.6857 6.4176 47.3569 6.23238C46.8951 5.97154 46.448 5.66808 46.0004 5.43414C44.8815 4.84954 43.6143 4.62169 42.3746 4.83889C42.054 4.89391 41.7492 5.01769 41.481 5.20172C41.3054 5.31945 41.1669 5.47474 40.9608 5.58486C40.7237 5.71959 40.5484 5.94152 40.4723 6.20346C40.3963 6.4654 40.4254 6.74668 40.5535 6.98749C40.6816 7.22829 40.8986 7.40963 41.1583 7.49293C41.418 7.57623 41.7 7.55492 41.9443 7.43354ZM29.9788 45.0797C29.9788 45.0797 33.4971 45.4476 36.6783 48.7278C38.8833 51.0012 40.8969 54.6463 41.5774 60.4406C41.6149 60.712 41.7574 60.958 41.9742 61.1256C42.1909 61.2933 42.4648 61.3693 42.737 61.3374C43.0092 61.3054 43.258 61.1681 43.4301 60.9548C43.6022 60.7415 43.6838 60.4693 43.6575 60.1965C42.9054 53.7892 40.6198 49.7838 38.182 47.2694C34.3983 43.368 30.1783 42.9945 30.1783 42.9945C29.9068 42.9776 29.6395 43.0668 29.4326 43.2433C29.2258 43.4199 29.0957 43.6699 29.0698 43.9406C29.0439 44.2113 29.1243 44.4815 29.2939 44.694C29.4635 44.9066 29.7091 45.0449 29.9788 45.0797ZM5.55667 22.2256C5.35825 21.0777 5.61249 19.8801 6.81264 18.8895C8.22085 17.7274 9.64377 17.9304 10.8465 18.6277C11.6356 19.0854 12.31 19.7852 12.7672 20.3378C13.266 20.0958 13.9191 19.8978 14.6397 19.9826C15.6197 20.0973 16.8163 20.6946 17.8231 22.6681C18.5898 24.1717 18.5218 25.3389 18.1417 26.2274C17.8474 26.9155 17.3405 27.4529 16.7807 27.8528C17.1278 28.0776 17.4739 28.34 17.7835 28.6409C18.7847 29.6158 19.4236 30.9463 18.8821 32.6433C18.4863 33.8845 17.8738 34.6092 17.2334 35.0355C17.6114 35.4602 17.8977 35.9616 18.0134 36.5259C18.1681 37.2795 18.0474 38.1761 17.312 39.1875C16.4818 40.3293 15.374 40.5704 14.3368 40.4333C14.0053 40.3868 13.68 40.3041 13.3665 40.1867C13.2447 40.5707 13.0465 40.9261 12.784 41.2316C12.1608 41.944 11.0449 42.555 8.95921 42.1952C8.78312 42.1689 7.5236 41.9618 6.29554 41.3473C5.31461 40.8566 4.3753 40.1075 3.88813 39.0581C3.42939 38.0691 3.32384 36.7811 4.08198 35.1324C3.78512 34.7797 3.4167 34.2951 3.12034 33.7572C2.63166 32.8706 2.37234 31.8526 2.63267 30.9666C2.791 30.4282 3.13607 29.8832 3.80643 29.4458C3.65821 29.3151 3.51582 29.1779 3.37966 29.0347C2.24852 27.8396 1.45536 26.1158 2.64384 24.0261C3.29339 22.8838 4.08807 22.4103 4.8513 22.2657C5.08375 22.2222 5.3208 22.2088 5.55667 22.2256ZM14.7022 33.4293C14.8336 33.475 15.3182 33.6181 15.815 33.4253C16.2398 33.2598 16.6224 32.8346 16.8868 32.0069C17.2197 30.9631 16.5356 30.2445 15.8521 29.7502C14.9777 29.1179 13.9968 28.818 13.9968 28.818C13.7891 28.7545 13.6063 28.6281 13.4737 28.4562C13.341 28.2843 13.265 28.0754 13.2562 27.8584C13.2474 27.6414 13.3062 27.4271 13.4245 27.245C13.5428 27.0629 13.7148 26.9221 13.9166 26.842C13.9166 26.842 14.6392 26.711 15.3431 26.2924C15.6851 26.0889 16.0403 25.8133 16.2159 25.4033C16.4077 24.9552 16.3438 24.3782 15.9571 23.6196C15.4243 22.5747 14.9143 22.1236 14.3957 22.0627C13.7446 21.9861 13.2376 22.4976 13.2376 22.4976C13.1253 22.6059 12.9902 22.6877 12.8421 22.7371C12.6941 22.7865 12.5369 22.8021 12.3821 22.783C12.2272 22.7638 12.0786 22.7103 11.947 22.6263C11.8155 22.5424 11.7044 22.4301 11.6219 22.2976C11.6219 22.2976 11.0758 21.4233 10.2654 20.7671C9.6793 20.2926 8.91201 19.8725 8.14575 20.5053C7.36019 21.1533 7.5713 22.0135 7.89252 22.7001C8.15793 23.2664 8.52279 23.751 8.76383 24.0387C8.96936 24.2549 9.08709 24.4021 9.08709 24.4021C9.25382 24.6118 9.33386 24.8774 9.31072 25.1443C9.28759 25.4113 9.16305 25.6592 8.96272 25.8371C8.7624 26.015 8.50151 26.1094 8.23373 26.1008C7.96595 26.0922 7.71163 25.9814 7.52309 25.791C7.52309 25.791 7.39521 25.6601 7.2044 25.4317C6.96031 25.1755 6.55485 24.7964 6.08088 24.5371C5.81751 24.3935 5.5313 24.2686 5.24154 24.3239C4.95178 24.3787 4.71073 24.6279 4.4641 25.0613C3.86124 26.1224 4.32607 26.9876 4.90052 27.5945C5.61503 28.3491 6.51628 28.7749 6.51628 28.7749C6.717 28.8698 6.88237 29.0261 6.98854 29.2211C7.09472 29.4161 7.1362 29.6398 7.10701 29.8599C7.07783 30.08 6.97948 30.2852 6.82615 30.4458C6.67283 30.6064 6.47245 30.7141 6.25392 30.7535C5.76575 30.8408 5.38363 30.9585 5.09387 31.1128C4.85231 31.2412 4.695 31.3777 4.64222 31.5568C4.52957 31.9409 4.74219 32.3611 4.95431 32.7458C5.40494 33.5628 6.07631 34.2164 6.07631 34.2164C6.41834 34.5498 6.49142 35.072 6.25392 35.4866C5.58712 36.6517 5.48207 37.5169 5.78807 38.1761C6.07276 38.7897 6.65939 39.187 7.23231 39.4737C8.23861 39.9776 9.27079 40.1243 9.27079 40.1243L9.3053 40.1294C10.3228 40.307 10.9043 40.1994 11.2073 39.8523C11.6011 39.4022 11.4752 38.7303 11.4752 38.7303C11.4465 38.5412 11.4701 38.3479 11.5434 38.1712C11.6167 37.9946 11.7369 37.8414 11.8911 37.7282C12.0453 37.6151 12.2274 37.5462 12.4179 37.5292C12.6084 37.5122 12.7999 37.5476 12.9717 37.6316C12.9717 37.6316 13.536 38.0696 14.2617 38.2812C14.6996 38.4096 15.2457 38.4679 15.6181 37.9559C15.9028 37.5641 16.0216 37.2383 15.9617 36.9466C15.9008 36.6497 15.6866 36.4193 15.4608 36.2229C14.927 35.7586 14.25 35.4917 14.0414 35.4166C14.0188 35.4095 13.9963 35.4019 13.974 35.3937L13.9339 35.379C13.8039 35.33 13.6849 35.2556 13.584 35.1602C13.483 35.0648 13.402 34.9503 13.3456 34.8233C13.2893 34.6963 13.2588 34.5594 13.2559 34.4205C13.253 34.2816 13.2777 34.1435 13.3286 34.0143C13.3796 33.885 13.4557 33.7672 13.5526 33.6677C13.6495 33.5681 13.7652 33.4888 13.893 33.4344C14.0208 33.3799 14.1582 33.3515 14.2971 33.3506C14.436 33.3497 14.5737 33.3765 14.7022 33.4293ZM52.6726 19.5893C53.1298 19.0367 53.8042 18.3369 54.5933 17.8792C55.7965 17.1819 57.2194 16.9789 58.6276 18.141C59.8278 19.1316 60.082 20.3292 59.8836 21.4771C60.1193 21.4603 60.3562 21.4738 60.5885 21.5172C61.3517 21.6618 62.1464 22.1347 62.7964 23.2775C63.9844 25.3673 63.1917 27.0906 62.0601 28.2857C61.9216 28.4318 61.7785 28.5694 61.6338 28.6967C62.3037 29.1347 62.6493 29.6792 62.8071 30.2181C63.0674 31.1041 62.8086 32.1216 62.3194 33.0081C62.0231 33.5461 61.6546 34.0312 61.3578 34.3839C62.1159 36.0321 62.0109 37.32 61.5516 38.3091C61.065 39.3585 60.1251 40.1075 59.1447 40.5983C57.9162 41.2133 56.6566 41.4198 56.4805 41.4467C54.3949 41.8065 53.279 41.195 52.6563 40.4831C52.3938 40.1774 52.1955 39.8221 52.0732 39.4382C51.7598 39.5556 51.4344 39.6383 51.103 39.6848C50.0662 39.8218 48.9579 39.5808 48.1282 38.439C47.3924 37.4271 47.2716 36.5309 47.4264 35.7769C47.5421 35.2126 47.8283 34.7117 48.2064 34.2864C47.566 33.8607 46.954 33.1355 46.5576 31.8948C46.0162 30.1978 46.6551 28.8672 47.6563 27.8924C47.9641 27.5975 48.2999 27.3334 48.659 27.1038C48.0993 26.7039 47.5928 26.167 47.2985 25.4784C46.9184 24.5904 46.8499 23.4232 47.6172 21.9191C48.6235 19.9461 49.8206 19.3488 50.8 19.2336C51.5211 19.1493 52.1737 19.3467 52.6726 19.5893ZM56.6764 23.2902C56.917 23.0025 57.2818 22.5179 57.5472 21.951C57.8685 21.2644 58.0796 20.4043 57.294 19.7563C56.5277 19.124 55.7605 19.5441 55.1743 20.0186C54.3639 20.6748 53.8179 21.5491 53.8179 21.5491C53.7354 21.6816 53.6243 21.7939 53.4928 21.8779C53.3613 21.9618 53.2126 22.0153 53.0577 22.0343C52.9029 22.0535 52.7458 22.0379 52.5979 21.9886C52.4499 21.9392 52.3149 21.8574 52.2026 21.7491C52.2026 21.7491 51.6957 21.2375 51.0441 21.3142C50.5255 21.3751 50.016 21.8262 49.4826 22.8711C49.096 23.6297 49.0325 24.2067 49.2238 24.6548C49.3994 25.0648 49.7546 25.3404 50.0972 25.5439C50.5403 25.8017 51.0216 25.9872 51.5231 26.0935C51.7253 26.1732 51.8976 26.3139 52.0161 26.496C52.1347 26.6781 52.1937 26.8926 52.1849 27.1097C52.1761 27.3268 52.0999 27.5358 51.967 27.7077C51.834 27.8796 51.6509 28.0059 51.443 28.069C51.443 28.069 50.4626 28.3689 49.5877 29.0017C48.9046 29.496 48.2201 30.2141 48.5535 31.2584C48.8174 32.0861 49.2 32.5113 49.6252 32.6763C50.122 32.8691 50.6062 32.726 50.7376 32.6808C50.7868 32.6626 50.8142 32.6539 50.8142 32.6539C51.0763 32.5622 51.3641 32.5784 51.6143 32.6989C51.8645 32.8193 52.0566 33.0343 52.1483 33.2964C52.2401 33.5585 52.2239 33.8463 52.1034 34.0965C51.9829 34.3467 51.768 34.5388 51.5059 34.6305L51.4663 34.6452C51.4437 34.6531 51.4211 34.6607 51.3983 34.6681C51.1903 34.7426 50.5128 35.0096 49.9789 35.4744C49.7531 35.6708 49.539 35.9007 49.4781 36.1975C49.4182 36.4898 49.5369 36.8151 49.8221 37.2074C50.1941 37.7189 50.7406 37.6606 51.1781 37.5327C51.9037 37.3206 52.468 36.8826 52.468 36.8826C52.6399 36.7987 52.8314 36.7634 53.0219 36.7806C53.2123 36.7977 53.3945 36.8666 53.5486 36.9798C53.7027 37.093 53.8229 37.2462 53.8963 37.4228C53.9696 37.5994 53.9932 37.7927 53.9646 37.9818C53.9646 37.9818 53.8387 38.6537 54.2325 39.1038C54.536 39.4504 55.117 39.558 56.135 39.3809L56.169 39.3758C56.169 39.3758 57.2011 39.2286 58.2074 38.7252C58.7809 38.4385 59.367 38.0412 59.6517 37.4276C59.9577 36.7679 59.8526 35.9032 59.1858 34.7381C59.0705 34.5366 59.0254 34.3025 59.0576 34.0725C59.0898 33.8426 59.1976 33.6299 59.364 33.4679C59.364 33.4679 60.0348 32.8138 60.4854 31.9968C60.6976 31.6121 60.9107 31.1924 60.7975 30.8083C60.7453 30.6292 60.5874 30.4921 60.3459 30.3638C60.0561 30.21 59.6745 30.0918 59.1858 30.005C58.9671 29.9659 58.7665 29.8582 58.613 29.6975C58.4595 29.5369 58.3611 29.3316 58.3319 29.1114C58.3028 28.8911 58.3444 28.6673 58.4509 28.4722C58.5573 28.2772 58.723 28.1211 58.924 28.0264C58.924 28.0264 59.8247 27.6006 60.5392 26.846C61.1137 26.2391 61.579 25.3739 60.9757 24.3128C60.729 23.8794 60.488 23.6297 60.1987 23.5749C59.9085 23.5201 59.6223 23.6449 59.3589 23.7886C58.8849 24.0479 58.4794 24.4269 58.2359 24.6832C58.0446 24.9116 57.9167 25.0425 57.9167 25.0425C57.7286 25.2346 57.4738 25.3469 57.2051 25.3563C56.9364 25.3656 56.6744 25.2713 56.4734 25.0927C56.2724 24.9141 56.1478 24.6651 56.1254 24.3972C56.103 24.1293 56.1846 23.863 56.3532 23.6536C56.3532 23.6536 56.4709 23.5064 56.6764 23.2902ZM25.7517 44.6179V35.5343C25.7456 35.2606 25.6327 35.0001 25.4369 34.8086C25.2412 34.6172 24.9783 34.5099 24.7045 34.5099C24.4307 34.5099 24.1678 34.6172 23.9721 34.8086C23.7764 35.0001 23.6634 35.2606 23.6574 35.5343V44.6179C23.6634 44.8916 23.7764 45.1521 23.9721 45.3435C24.1678 45.535 24.4307 45.6422 24.7045 45.6422C24.9783 45.6422 25.2412 45.535 25.4369 45.3435C25.6327 45.1521 25.7456 44.8916 25.7517 44.6179Z" fill="#078E00"/>
<path fill-rule="evenodd" clip-rule="evenodd" d="M41.7818 44.5301V34.7852C41.7818 34.5075 41.6715 34.2412 41.4751 34.0448C41.2787 33.8484 41.0124 33.7381 40.7346 33.7381C40.4569 33.7381 40.1906 33.8484 39.9942 34.0448C39.7978 34.2412 39.6875 34.5075 39.6875 34.7852V44.5301C39.6935 44.8038 39.8065 45.0643 40.0022 45.2557C40.1979 45.4472 40.4609 45.5544 40.7346 45.5544C41.0084 45.5544 41.2714 45.4472 41.4671 45.2557C41.6628 45.0643 41.7758 44.8038 41.7818 44.5301Z" fill="#078E00"/>
<path fill-rule="evenodd" clip-rule="evenodd" d="M3.97193 55.3162C3.97193 55.3162 23.2707 34.9421 60.0958 51.7386C60.3475 51.8478 60.632 51.8538 60.8882 51.7554C61.1443 51.657 61.3516 51.462 61.4655 51.2124C61.5794 50.9627 61.5907 50.6784 61.4972 50.4204C61.4036 50.1625 61.2125 49.9516 60.9651 49.833C22.5547 32.3129 2.44548 53.8821 2.44548 53.8821C2.26141 54.0856 2.16453 54.3531 2.17567 54.6273C2.18681 54.9014 2.30507 55.1603 2.50504 55.3481C2.705 55.536 2.9707 55.6379 3.24501 55.6319C3.51932 55.6259 3.78033 55.5126 3.97193 55.3162Z" fill="#078E00"/>
<path fill-rule="evenodd" clip-rule="evenodd" d="M11.6192 49.318V29.8147C11.6107 29.5425 11.4967 29.2844 11.3012 29.0949C11.1057 28.9054 10.8441 28.7994 10.5718 28.7994C10.2995 28.7994 10.038 28.9054 9.84245 29.0949C9.64695 29.2844 9.53289 29.5425 9.52441 29.8147V49.318C9.53289 49.5901 9.64695 49.8483 9.84245 50.0378C10.038 50.2273 10.2995 50.3333 10.5718 50.3333C10.8441 50.3333 11.1057 50.2273 11.3012 50.0378C11.4967 49.8483 11.6107 49.5901 11.6192 49.318ZM55.9151 48.5695V29.0662C55.9091 28.7924 55.7961 28.532 55.6004 28.3405C55.4047 28.149 55.1418 28.0418 54.868 28.0418C54.5942 28.0418 54.3313 28.149 54.1355 28.3405C53.9398 28.532 53.8269 28.7924 53.8208 29.0662V48.5695C53.8208 48.8472 53.9312 49.1136 54.1275 49.3099C54.3239 49.5063 54.5903 49.6166 54.868 49.6166C55.1457 49.6166 55.412 49.5063 55.6084 49.3099C55.8048 49.1136 55.9151 48.8472 55.9151 48.5695ZM21.872 28.6978C21.7045 28.477 21.5482 28.2471 21.4117 27.9888C20.0893 25.487 22.0384 22.5098 24.9995 22.8863C26.6366 23.0949 27.9905 23.9347 28.2315 25.653C28.2777 25.9803 28.2635 26.4071 28.2884 26.8222C28.2919 26.8846 28.2904 26.948 28.2919 27.0084C28.466 27.0196 28.6629 27.0368 28.7532 27.0597C29.5753 27.2662 30.3771 27.7001 30.9733 28.2918C31.3631 28.6775 31.7731 29.2742 31.9512 29.8842C32.1116 30.4318 32.0948 30.9895 31.8584 31.4847C31.7807 31.6471 31.6528 31.8283 31.4981 32.011C31.5691 32.0678 31.6335 32.1231 31.6747 32.1678C32.3496 32.897 32.8423 34.0652 32.6566 35.0735C32.3369 36.8106 30.9809 37.0212 29.6869 36.7248C29.9127 37.1282 30.133 37.4977 30.269 37.8712C30.5166 38.5486 30.5598 39.2408 30.1568 40.0629C30.0046 40.3745 29.8067 40.6333 29.5768 40.8454C28.7689 41.5914 26.5158 42.3008 25.1304 42.3008C25.1304 42.3008 22.3652 42.4226 20.3638 38.5689C19.2114 36.3493 19.8482 34.7244 20.237 34.0307L20.2146 34.0205C19.5925 33.7216 19.2332 33.3101 19.0454 32.8691C18.776 32.2368 18.8424 31.466 19.3149 30.6637C19.8198 29.8066 20.8195 29.0692 21.7583 28.7312C21.7957 28.7183 21.8336 28.7071 21.872 28.6978ZM28.2797 29.1007C28.1985 29.0986 27.7657 29.087 27.5627 29.0469C27.177 28.9708 26.8872 28.781 26.7051 28.547C26.4331 28.1984 26.2788 27.7376 26.2215 27.2312C26.1712 26.7887 26.2078 26.301 26.1575 25.9438C26.0596 25.2465 25.3999 25.0486 24.7351 24.9638C23.5385 24.8116 22.7291 25.9996 23.2635 27.0104C23.4817 27.4235 23.7801 27.7305 24.0698 28.0923C24.216 28.2745 24.4184 28.5826 24.4849 28.8652C24.5581 29.1563 24.5257 29.464 24.3936 29.7335C24.2418 30.043 23.944 30.3196 23.5096 30.4789C23.1762 30.6018 22.6834 30.6241 22.4678 30.7017C21.9572 30.8854 21.394 31.2604 21.1199 31.7263C21.0703 31.8071 21.03 31.8932 20.9997 31.9831C20.9938 32.0039 20.989 32.0251 20.9855 32.0465C21.0169 32.0698 21.0748 32.1104 21.1225 32.1333C21.3092 32.2231 21.6634 32.2977 21.9019 32.4347C22.2242 32.6204 22.4439 32.8787 22.5555 33.172C22.6931 33.5313 22.6763 33.8982 22.5393 34.2519C22.4485 34.4859 22.2835 34.7163 22.1618 34.8974C22.0237 35.1019 21.4488 36.1128 22.2227 37.6037C23.5126 40.0878 25.1304 40.2065 25.1304 40.2065C26.0652 40.2065 27.6109 39.8097 28.1559 39.3068C28.2041 39.2621 28.2437 39.2073 28.2757 39.1423C28.4101 38.8683 28.3371 38.6476 28.231 38.4218C28.0783 38.097 27.8646 37.7697 27.6698 37.4023C27.5155 37.111 27.0999 36.5746 26.9857 36.129C26.8527 35.6094 26.9497 35.1385 27.2846 34.7563C27.6231 34.3707 28.063 34.2164 28.5467 34.2362C28.9075 34.2504 29.3089 34.3971 29.5966 34.5092C29.8148 34.594 30.0584 34.6812 30.2989 34.73C30.3801 34.7467 30.508 34.7518 30.5821 34.7533C30.5882 34.7335 30.5938 34.7117 30.5968 34.6944C30.6678 34.3103 30.4131 33.8947 30.1558 33.611C30.1041 33.576 29.796 33.3654 29.6626 33.239C29.4595 33.0529 29.3106 32.8153 29.2317 32.5514C29.1201 32.1642 29.1698 31.772 29.3632 31.3924C29.5022 31.1194 29.9061 30.6429 29.9752 30.5622C29.9904 30.4987 29.9315 30.4338 29.9026 30.3648C29.8061 30.1459 29.6692 29.9473 29.4992 29.7792C29.1713 29.4544 28.7309 29.2204 28.2797 29.1007ZM37.1476 26.2599C37.1492 26.1995 37.1476 26.1361 37.1512 26.0737C37.1761 25.6586 37.1618 25.2318 37.208 24.904C37.4491 23.1862 38.803 22.3458 40.4406 22.1378C43.4011 21.7607 45.3503 24.7385 44.0278 27.2403C43.8913 27.4986 43.7355 27.728 43.5681 27.9492C43.6142 27.9609 43.6533 27.9721 43.6812 27.9827C44.6205 28.3207 45.6202 29.0581 46.1247 29.9152C46.5971 30.7175 46.6641 31.4883 46.3946 32.1206C46.2064 32.5611 45.8476 32.9731 45.2254 33.272L45.2026 33.2817C45.5913 33.9754 46.2282 35.6008 45.0757 37.8199C43.0748 41.6741 40.3091 41.5523 40.3091 41.5523C38.9238 41.5523 36.6706 40.8429 35.8627 40.0969C35.6224 39.8744 35.4257 39.6091 35.2827 39.3144C34.8803 38.4918 34.9234 37.8001 35.1706 37.1226C35.3066 36.7492 35.5273 36.3797 35.7526 35.9763C34.4586 36.2721 33.1027 36.0615 32.783 34.325C32.5972 33.3167 33.09 32.1485 33.7649 31.4193C33.8065 31.3746 33.8704 31.3188 33.9415 31.2625C33.7872 31.0793 33.6588 30.8981 33.5812 30.7357C33.3447 30.2409 33.3285 29.6832 33.4883 29.1352C33.6664 28.5257 34.077 27.9289 34.4662 27.5433C35.063 26.9516 35.8648 26.5177 36.6864 26.3106C36.7767 26.2883 36.9736 26.2711 37.1476 26.2599ZM44.4541 31.298C44.4505 31.2764 44.4458 31.2551 44.4399 31.2341C44.4097 31.1443 44.3693 31.0584 44.3196 30.9778C44.0456 30.5119 43.4823 30.1369 42.9718 29.9532C42.7566 29.8756 42.2639 29.8527 41.9305 29.7304C41.4956 29.5711 41.1982 29.294 41.0465 28.985C40.9139 28.7154 40.8813 28.4075 40.9546 28.1162C41.0216 27.834 41.2236 27.5255 41.3697 27.3433C41.6595 26.982 41.9579 26.675 42.1761 26.2619C42.7104 25.2506 41.901 24.0631 40.705 24.2153C40.0402 24.3001 39.38 24.498 39.282 25.1952C39.2323 25.5525 39.2683 26.0402 39.2181 26.4827C39.1607 26.9886 39.007 27.4494 38.7345 27.7985C38.5523 28.0325 38.2625 28.2223 37.8774 28.2984C37.6739 28.3385 37.2415 28.3501 37.1598 28.3522C36.7092 28.4719 36.2682 28.7059 35.9409 29.0306C35.7704 29.1985 35.6333 29.3972 35.537 29.6163C35.508 29.6848 35.4497 29.7502 35.4649 29.8137C35.5334 29.8938 35.9378 30.3709 36.0764 30.6434C36.2697 31.0235 36.3195 31.4157 36.2078 31.8029C36.1288 32.0666 35.9801 32.3042 35.7775 32.4905C35.6435 32.6169 35.3355 32.8275 35.2837 32.8625C35.0264 33.1462 34.7722 33.5618 34.8427 33.9454C34.8463 33.9642 34.8524 33.9865 34.8585 34.0068C34.9082 34.0078 34.9792 34.0073 35.0269 34.0007C35.1366 33.986 35.2487 33.9591 35.3593 33.9272C35.5263 33.8795 35.6907 33.8201 35.843 33.7607C36.1307 33.6486 36.5321 33.5019 36.8929 33.4872C37.377 33.4679 37.8165 33.6222 38.155 34.0078C38.4899 34.3895 38.5873 34.8604 38.4538 35.3805C38.3397 35.8261 37.9241 36.3625 37.7698 36.6532C37.5749 37.0212 37.3618 37.3485 37.209 37.6732C37.1025 37.8986 37.0299 38.1193 37.1639 38.3938C37.1958 38.4588 37.2359 38.5136 37.2836 38.5578C37.8287 39.0612 39.3744 39.4575 40.3091 39.4575C40.3091 39.4575 41.9269 39.3392 43.2169 36.8547C43.9913 35.3638 43.4158 34.3534 43.2778 34.1489C43.156 33.9678 42.9911 33.7374 42.9002 33.5034C42.7632 33.1497 42.747 32.7828 42.884 32.4235C42.9961 32.1302 43.2154 31.8719 43.5376 31.6862C43.7761 31.5487 44.1303 31.4746 44.3176 31.3843C44.3648 31.3619 44.4231 31.3213 44.4541 31.298Z" fill="#078E00"/>
</g>
<defs>
<clipPath id="clip0_271_2358">
<rect width="64" height="64" fill="white" transform="translate(0.888672 0.844482)"/>
</clipPath>
</defs>
</svg>
