<svg width="274" height="269" viewBox="0 0 274 269" fill="none" xmlns="http://www.w3.org/2000/svg">
<g clip-path="url(#clip0_300_6104)">
<ellipse cx="136.977" cy="134.213" rx="136.326" ry="134.205" fill="#FAFAFA"/>
<path d="M136.978 0.132629C212.201 0.132702 273.179 60.1642 273.179 134.213C273.179 208.261 212.201 268.294 136.978 268.294C61.7539 268.294 0.776367 208.261 0.776367 134.213C0.776543 60.1641 61.754 0.132629 136.978 0.132629Z" stroke="black" stroke-opacity="0.25" stroke-width="0.25"/>
<g clip-path="url(#clip1_300_6104)">
<path d="M297.175 27H-22.8252V241H297.175V27Z" fill="#FAFAFA"/>
<path d="M9.52637 147.228H96.9185V79.2654H9.52637V147.228ZM90.1062 86.5434V139.947H16.338V86.5434H90.1062Z" fill="#EDF3FF"/>
<path d="M16.338 139.947L9.52637 147.228V79.2626L16.338 86.5434V139.947Z" fill="#C7DEFF"/>
<path d="M90.1045 86.5434L96.9168 79.2626V147.228L90.1045 139.947V86.5434Z" fill="#C7DEFF"/>
<path d="M18.417 137.432V92.6157L36.391 123.617L52.2119 110.763L67.87 121.768L89.0727 90.5011V137.432H18.417Z" fill="#EDF3FF"/>
<path d="M40.5214 108.698C43.9725 108.698 46.7702 105.891 46.7702 102.43C46.7702 98.9676 43.9725 96.1611 40.5214 96.1611C37.0702 96.1611 34.2725 98.9676 34.2725 102.43C34.2725 105.891 37.0702 108.698 40.5214 108.698Z" fill="#EDF3FF"/>
<path d="M79.0562 208.75L74.2549 209.875L101.205 99.1832L105.149 100.242L79.0562 208.75Z" fill="#C7DEFF"/>
<path d="M169.839 208.684L174.148 209.941L147.212 99.2456L143.747 100.176L169.839 208.684Z" fill="#C7DEFF"/>
<path d="M126.589 51.6923H122.349V202.985H126.589V51.6923Z" fill="#C7DEFF"/>
<path d="M164.611 138.715H84.3291L90.0529 59.1528H158.887L164.611 138.715Z" fill="#C7DEFF"/>
<path opacity="0.13" d="M91.6416 138.715L95.9951 66.3719H152.762L156.817 138.715H91.6416Z" fill="black"/>
<path d="M158.229 140.629H90.1826V143.774H158.229V140.629Z" fill="#C7DEFF"/>
<path opacity="0.13" d="M158.229 140.629H90.1826V143.774H158.229V140.629Z" fill="black"/>
<path d="M158.229 140.629H90.1826L91.9597 134.337H156.453L158.229 140.629Z" fill="#C7DEFF"/>
<path d="M151.719 134.337H97.2178L98.8472 70.4928H150.09L151.719 134.337Z" fill="#FAFAFA"/>
<path d="M102.39 74.5505C103.11 74.5505 103.693 74.0278 103.693 73.3831C103.693 72.7384 103.11 72.2157 102.39 72.2157C101.67 72.2157 101.087 72.7384 101.087 73.3831C101.087 74.0278 101.67 74.5505 102.39 74.5505Z" fill="#69A6FE"/>
<path d="M146.71 74.5505C147.43 74.5505 148.014 74.0278 148.014 73.3831C148.014 72.7384 147.43 72.2157 146.71 72.2157C145.991 72.2157 145.407 72.7384 145.407 73.3831C145.407 74.0278 145.991 74.5505 146.71 74.5505Z" fill="#69A6FE"/>
<path d="M105.499 81.1653C105.499 81.1653 114.748 73.5909 118.611 76.6919C122.474 79.7928 125.18 81.5823 129.302 78.5555C133.424 75.5286 150.425 75.6706 146.174 82.0597C141.924 88.4489 124.407 90.6883 131.878 95.9642C139.348 101.24 125.566 112.607 121.187 105.244C116.807 97.8806 113.946 93.0238 109.968 98.2297C105.99 103.436 99.6909 91.8413 103.033 88.0785C106.375 84.3156 103.315 82.7737 105.499 81.1653Z" fill="#C8DEFF"/>
<path d="M86.3983 202.216C84.7942 202.261 83.4943 202.079 82.466 201.813C82.4202 201.295 82.3552 200.763 82.2725 200.221C83.6796 200.547 85.2523 200.554 86.494 200.474C86.4017 200.995 86.3367 201.355 86.3087 201.529C86.3086 201.761 86.3387 201.992 86.3983 202.216Z" fill="#FAC9A0"/>
<path opacity="0.13" d="M86.3983 202.216C84.7942 202.261 83.4943 202.079 82.466 201.813C82.4202 201.295 82.3552 200.763 82.2725 200.221C83.6796 200.547 85.2523 200.554 86.494 200.474C86.4017 200.995 86.3367 201.355 86.3087 201.529C86.3086 201.761 86.3387 201.992 86.3983 202.216Z" fill="black"/>
<path d="M86.4938 200.474C85.2521 200.554 83.6794 200.547 82.2723 200.221C81.6788 196.277 80.1895 191.704 78.0104 186.979C77.6432 186.184 77.2582 185.383 76.848 184.582L76.0904 172.753L71.1673 175.004C69.968 173.261 68.6948 171.549 67.3608 169.899C64.8049 166.733 62.0172 163.786 59.0791 161.235C61.0545 159.574 62.2073 156.997 62.7776 153.912C62.7776 153.912 83.9659 145.861 88.8405 154.418C93.3519 162.344 87.6576 193.968 86.4938 200.474ZM97.557 212.687H79.7465C79.3698 212.486 79.028 212.226 78.7345 211.915C81.8114 210.383 82.9109 206.674 82.4658 201.813C83.4914 202.081 84.794 202.261 86.3981 202.216C86.6791 203.369 87.8299 205.701 92.4938 207.078C98.8678 208.958 98.3058 211.526 97.557 212.687Z" fill="#002672"/>
<path opacity="0.35" d="M97.556 212.687H79.7454C79.3687 212.486 79.0269 212.226 78.7334 211.915C81.8103 210.383 82.9098 206.674 82.4647 201.813C83.4903 202.081 84.7929 202.261 86.397 202.216C86.678 203.369 87.8288 205.701 92.4927 207.078C98.8667 208.958 98.3047 211.526 97.556 212.687Z" fill="black"/>
<path d="M99.092 98.6763L96.772 96.633C96.772 96.633 83.3758 112.503 75.5071 122.528C72.7529 126.037 70.9806 128.483 71.2151 128.689C72.1218 129.489 99.092 98.6763 99.092 98.6763Z" fill="#139D74"/>
<path d="M97.9322 97.6571L96.7698 96.6351C96.7698 96.6351 83.3736 112.505 75.5049 122.53C84.2563 113.28 97.9322 97.6571 97.9322 97.6571Z" fill="#018251"/>
<path d="M99.093 98.6783L105.362 90.9441L104.484 90.1718L97.9326 97.6563L99.093 98.6783Z" fill="#FFB018"/>
<path d="M96.7725 96.6351L103.607 89.3995L104.484 90.1719L97.9321 97.6564L96.7725 96.6351Z" fill="#FAA04A"/>
<path d="M109.908 83.9768C104.311 85.8287 103.608 89.3995 103.608 89.3995L105.362 90.9442C105.362 90.9442 108.893 89.8255 109.773 84.9624C109.829 84.6504 109.875 84.3211 109.908 83.9768Z" fill="#650101"/>
<path d="M109.771 84.9625C104.985 86.8789 104.358 90.0621 104.358 90.0621L105.361 90.9442C105.361 90.9442 108.891 89.8282 109.771 84.9625Z" fill="#723939"/>
<path d="M66.0133 87.4276C65.4184 88.4509 64.5535 89.1985 63.5696 89.7445C60.2191 91.6006 55.5142 91.0944 55.5142 91.0944C57.9511 92.8811 56.6383 96.4553 56.6383 96.4553C56.6383 96.4553 54.4051 95.3421 53.8738 97.5363C53.3425 99.7305 55.4677 101.25 55.4677 101.25C54.1337 105.12 52.2718 105.914 50.8865 105.45C49.5983 105.018 48.7285 103.489 49.0889 102.333C49.841 99.9322 46.6998 101.298 43.7008 99.3704C39.8102 96.8792 43.7008 87.2417 43.7008 87.2417L52.9795 82.8677C52.9795 82.8677 55.6051 85.0784 61.6037 81.976C67.6024 78.8737 68.6376 82.9109 66.0133 87.4276Z" fill="#0D1C4C"/>
<path d="M43.8919 98.7915C44.2231 98.4709 44.5162 98.1127 44.7651 97.7243C46.8553 94.5849 48.6693 91.1794 51.2184 88.4393C53.2984 86.2026 56.0246 84.852 58.7199 83.5317C60.3015 82.7566 63.3394 81.2442 59.7599 80.2359C55.991 79.1742 50.1039 80.5604 46.828 82.568C43.509 84.603 41.3401 90.82 40.5928 94.7193C40.324 96.1234 39.8946 98.5494 41.6772 99.2867C42.577 99.6606 43.3114 99.3293 43.8919 98.7915Z" fill="#C43333"/>
<path d="M59.7599 80.2359C55.991 79.1742 50.1039 80.5604 46.828 82.568C46.333 82.8788 45.8792 83.2512 45.4775 83.6764C48.8348 82.1743 53.5459 81.319 56.7336 82.2175C58.3063 82.6606 58.6023 83.2018 58.3063 83.7347L58.7227 83.5289C60.3015 82.7566 63.3394 81.2442 59.7599 80.2359Z" fill="#FF9C9C"/>
<path d="M46.0033 83.9768C46.0033 83.9768 43.5417 82.8588 44.5674 81.7668C45.593 80.6749 46.0033 83.9768 46.0033 83.9768Z" fill="#C43333"/>
<path d="M64.888 99.1303C64.888 99.1303 68.9222 107.312 55.9369 107.123C55.9369 107.123 49.236 112.012 57.061 118.36L53.1109 117.043L42.8135 113.614C42.8135 113.614 50.7184 109.036 50.8907 105.452C52.2726 105.918 54.1345 105.122 55.4719 101.252C55.4719 101.252 53.3475 99.7312 53.8781 97.5384C54.4087 95.3456 56.6425 96.4574 56.6425 96.4574C56.6425 96.4574 57.9554 92.8832 55.5184 91.0964C55.5184 91.0964 60.2254 91.6026 63.5738 89.7466C63.729 90.1794 63.9225 90.7068 64.1427 91.2837C65.1779 94.0108 66.7978 97.8738 67.8446 98.3841C67.8419 98.3786 66.5284 99.225 64.888 99.1303Z" fill="#FAC9A0"/>
<path d="M64.1393 91.2782C64.1393 91.2782 62.3759 92.1369 60.4422 92.5574C59.9147 92.6704 59.4372 92.95 59.0796 93.3551C58.722 93.7602 58.5032 94.2696 58.4552 94.8085C58.1461 98.3752 56.929 105.458 52.1407 105.949C52.1407 105.949 49.0008 112.859 46.5632 113.188L53.1109 117.043L42.8135 113.614C42.8135 113.614 50.7184 109.036 50.8907 105.452C52.2726 105.918 54.1345 105.122 55.4719 101.252C55.4719 101.252 53.3475 99.7312 53.8781 97.5384C54.4087 95.3456 56.6425 96.4574 56.6425 96.4574C56.6425 96.4574 57.9554 92.8832 55.5184 91.0964C55.5184 91.0964 60.2254 91.6026 63.5738 89.7466C63.7256 90.1712 63.9191 90.7014 64.1393 91.2782Z" fill="#EF8F5E"/>
<path d="M57.0603 118.362C56.4968 120.038 56.343 124.301 56.343 124.301L41.0322 115.618C41.8753 115.243 42.81 113.612 42.81 113.612L57.0603 118.362Z" fill="#FAFAFA"/>
<path d="M62.7754 153.915C62.2051 157.002 61.0523 159.577 59.0769 161.238C58.1554 161.285 57.237 161.381 56.3255 161.524C56.1832 161.545 56.0378 161.568 55.8892 161.593C55.8147 161.604 55.7402 161.618 55.6643 161.631C55.4967 161.659 55.3224 161.69 55.148 161.725C54.9737 161.76 54.7747 161.794 54.5826 161.836C54.3774 161.88 54.1661 161.924 53.9528 161.974L53.652 162.042C53.3347 162.12 53.0106 162.203 52.681 162.296C52.4814 162.352 52.2796 162.411 52.0779 162.473C51.6807 162.594 51.2793 162.729 50.8793 162.875C50.785 162.908 50.6906 162.944 50.5962 162.979C50.3316 163.08 50.067 163.185 49.8044 163.3C49.6889 163.348 49.5726 163.399 49.4626 163.45C49.3525 163.502 49.2205 163.559 49.1002 163.618C48.7248 163.797 48.3528 163.987 47.9904 164.195C47.8879 164.253 47.7853 164.311 47.6848 164.372C47.5843 164.433 47.4844 164.494 47.3873 164.557C47.2902 164.62 47.1973 164.676 47.1029 164.741C47.0236 164.791 46.9456 164.843 46.8697 164.898C46.8567 164.904 46.8451 164.915 46.8314 164.923C46.7542 164.976 46.6776 165.031 46.6017 165.087C46.5443 165.129 46.4861 165.172 46.428 165.217C46.3952 165.24 46.3638 165.265 46.3323 165.289C46.2434 165.358 46.1538 165.426 46.0663 165.5C46.0555 165.507 46.0454 165.516 46.0362 165.525C45.9617 165.583 45.8892 165.645 45.8167 165.708C45.6889 165.817 45.5638 165.93 45.4414 166.044C42.5641 168.743 38.2338 169.604 35.2164 169.859C33.1891 170.032 31.7559 169.927 31.7559 169.927C20.8335 153.435 23.2554 139.784 28.3583 130.294C33.3928 120.928 41.0352 115.616 41.0352 115.616L56.346 124.299C56.346 124.299 56.4998 120.036 57.0632 118.359C57.0632 118.359 57.5419 119.679 58.2373 121.867V121.871C59.3354 125.34 60.9668 130.989 62.0663 137.013C61.6663 137.103 61.2531 137.117 60.8479 137.055C60.3323 136.964 59.7422 136.678 59.1084 136.259C55.2185 133.674 49.6944 125.929 49.6944 125.929C49.6944 125.929 31.2588 123.484 35.7573 140.911C35.9884 141.065 53.4831 152.547 60.3118 148.747C61.3171 148.173 62.2823 147.531 63.2007 146.826C63.2896 149.347 63.1754 151.755 62.7754 153.915Z" fill="#C43333"/>
<path d="M60.1079 140.221C60.1046 140.221 60.1079 140.211 60.1079 140.202C60.1146 140.221 60.1146 140.227 60.1079 140.221Z" stroke="#DA3100" stroke-miterlimit="10"/>
<path d="M35.1312 194.892C34.2047 195.802 33.4314 197.492 34.0994 200.649C32.9945 200.138 32.3764 199.836 32.3764 199.836C19.0034 206.231 39.4382 212.687 30.814 212.687C22.4393 212.373 22.3155 202.658 23.3158 198.081C24.2895 193.623 27.4574 191.188 35.1312 194.892Z" fill="#102166"/>
<path d="M78.7334 211.918C77.7269 212.421 76.5064 212.69 75.0582 212.69C62.2398 212.69 43.3905 204.841 35.7652 201.411C35.4774 200.325 35.0815 197.836 36.6247 195.609C37.5924 196.013 38.5924 196.335 39.6141 196.57C39.6168 196.569 39.6196 196.569 39.6223 196.57C47.6846 198.474 58.1413 196.264 58.3704 196.216C58.2069 196.223 52.9495 196.36 42.1905 183.846C39.1533 180.312 35.6763 175.771 31.7529 169.933C31.7529 169.933 33.1888 170.035 35.2134 169.865C38.2309 169.609 42.5611 168.748 45.4377 166.05C45.5601 165.935 45.6859 165.822 45.8131 165.713C45.8863 165.651 45.9587 165.59 46.034 165.531C46.0427 165.521 46.0523 165.513 46.0627 165.505C46.1502 165.433 46.2384 165.363 46.3293 165.295C46.3608 165.27 46.3922 165.245 46.4251 165.222C46.4832 165.177 46.5413 165.134 46.5987 165.093C46.6753 165.036 46.7512 164.982 46.8292 164.928C46.8412 164.919 46.8537 164.911 46.8668 164.904C46.9427 164.849 47.0206 164.795 47.0999 164.746C47.1943 164.682 47.2887 164.62 47.3844 164.562C47.4801 164.503 47.5827 164.437 47.6818 164.378C47.781 164.318 47.8869 164.258 47.9875 164.201C48.3499 163.995 48.7218 163.802 49.0972 163.623C49.2162 163.567 49.3386 163.51 49.4596 163.456C49.5806 163.402 49.6893 163.353 49.8015 163.304C50.0647 163.192 50.3293 163.086 50.5933 162.985L50.8763 162.88C51.2763 162.734 51.6777 162.599 52.075 162.478C52.2801 162.416 52.4784 162.358 52.6781 162.301C53.0076 162.208 53.3311 162.125 53.649 162.048L53.9498 161.979C54.1632 161.928 54.3731 161.883 54.5796 161.842C54.7717 161.802 54.9618 161.766 55.1451 161.731C55.3283 161.696 55.4945 161.662 55.6613 161.636C55.7372 161.623 55.811 161.61 55.8863 161.598C56.0344 161.573 56.1798 161.55 56.3225 161.53C57.234 161.386 58.1524 161.29 59.074 161.243C63.5444 165.124 67.6627 169.922 71.1615 175.013C73.2674 178.073 75.167 181.272 76.8476 184.587C83.1006 196.957 84.9276 208.831 78.7334 211.918Z" fill="#1947B6"/>
<path opacity="0.28" d="M55.1465 161.727C55.1465 161.727 50.1346 167.42 45.1117 169.965C40.1141 172.493 42.1715 183.734 42.1886 183.847C39.1513 180.313 35.6744 175.772 31.751 169.935C31.751 169.935 33.1869 170.036 35.2115 169.866C38.2289 169.61 42.5592 168.75 45.4358 166.051C45.5582 165.937 45.684 165.824 45.8111 165.714C45.8843 165.653 45.9568 165.592 46.032 165.532C46.0407 165.523 46.0503 165.514 46.0607 165.507C46.1482 165.434 46.2364 165.365 46.3274 165.296C46.3588 165.271 46.3903 165.247 46.4231 165.223C46.4812 165.178 46.5394 165.136 46.5968 165.094C46.6734 165.038 46.7493 164.983 46.8272 164.93C46.8392 164.921 46.8518 164.913 46.8648 164.905C46.9407 164.85 47.0187 164.797 47.098 164.747C47.1923 164.683 47.2867 164.621 47.3824 164.563C47.4782 164.505 47.5807 164.439 47.6799 164.379C47.779 164.319 47.885 164.26 47.9855 164.202C48.3479 163.996 48.7199 163.804 49.0952 163.625C49.2142 163.568 49.3366 163.511 49.4576 163.457C49.5787 163.403 49.6874 163.354 49.7995 163.306C50.0628 163.194 50.3274 163.088 50.5913 162.986L50.8744 162.882C51.2744 162.736 51.6758 162.601 52.073 162.48C52.2782 162.417 52.4764 162.359 52.6761 162.302C53.0057 162.21 53.3291 162.127 53.647 162.049L53.9479 161.98C54.1612 161.929 54.3711 161.884 54.5776 161.843C54.7732 161.798 54.9633 161.762 55.1465 161.727Z" fill="black"/>
<path d="M60.1079 140.221C60.1046 140.221 60.1079 140.211 60.1079 140.202C60.1146 140.221 60.1146 140.227 60.1079 140.221Z" stroke="#DA3100" stroke-miterlimit="10"/>
<path d="M60.1079 140.221C60.1046 140.221 60.1079 140.211 60.1079 140.202C60.1146 140.221 60.1146 140.227 60.1079 140.221Z" stroke="#DA3100" stroke-miterlimit="10"/>
<path d="M64.7573 135.861C63.8185 136.42 62.8926 136.843 62.0605 137.014C60.9665 130.99 59.333 125.341 58.2314 121.871V121.868C58.2314 121.868 59.3063 123.667 62.3005 124.737C62.1385 130.335 63.5983 133.92 64.7573 135.861Z" fill="#FFB018"/>
<path d="M72.0274 128.185C71.9994 128.316 71.9714 128.528 71.9461 128.759C71.8866 129.297 71.8408 129.942 71.8408 129.942C71.8408 129.942 69.5208 132.407 66.837 134.443C65.7176 132.72 64.9721 130.781 64.649 128.75C64.6485 128.747 64.6485 128.745 64.649 128.742C64.4693 127.605 64.4188 126.451 64.4986 125.302C65.6739 125.498 67.0462 125.576 68.6374 125.461C68.638 125.459 68.9505 128.467 72.0274 128.185Z" fill="#FAC9A0"/>
<path d="M49.6882 125.93C49.6882 125.93 31.2526 123.485 35.7511 140.912C35.7511 140.912 45.4058 147.277 53.2212 149.057C53.2574 145.522 53.8003 138.463 57.3484 134.866C53.7401 131.612 49.6882 125.93 49.6882 125.93Z" fill="#FFB018"/>
<path d="M82.1511 132.073C82.1441 132.072 82.137 132.072 82.1299 132.073C82.0766 132.079 81.9193 132.094 81.6882 132.108C80.2694 132.187 76.013 132.152 75.1836 129.031C75.1836 129.031 75.559 127.651 76.8698 127.179C76.8698 127.179 76.6516 126.175 76.2154 126.363C75.7792 126.55 72.1217 127.743 72.0274 128.18C71.933 128.618 71.8407 129.937 71.8407 129.937C71.8407 129.937 65.933 136.216 62.0629 137.009C61.6629 137.099 61.2497 137.113 60.8445 137.051C60.4048 136.973 59.9104 136.754 59.3812 136.429C58.5552 137.805 57.8748 139.263 57.3511 140.781C56.5306 143.141 55.9228 146.136 56.2133 149.492C57.786 149.577 59.1932 149.364 60.3159 148.737C61.3212 148.163 62.2864 147.522 63.2048 146.817C67.8544 143.314 73.0585 137.698 75.6301 134.8C76.5457 133.772 77.1282 133.086 77.2322 132.958C77.236 132.955 77.2395 132.952 77.2424 132.949L77.2486 132.94C77.7519 133.137 78.2709 133.291 78.8 133.401C79.851 133.617 81.1706 133.682 81.8769 132.909C82.5265 132.134 82.1511 132.073 82.1511 132.073ZM60.1108 140.202C60.1108 140.222 60.1108 140.228 60.1108 140.222C60.1108 140.216 60.106 140.211 60.1108 140.202Z" fill="#FAC9A0"/>
<path d="M99.478 123.718C95.6339 128.985 86.76 131.869 82.1522 132.073C82.1451 132.072 82.138 132.072 82.131 132.073C81.9783 132.079 81.831 132.091 81.6893 132.108C80.2704 132.187 76.014 132.152 75.1846 129.031C75.1846 129.031 75.56 127.651 76.8708 127.179C76.8708 127.179 76.6527 126.175 76.2164 126.362C75.7802 126.55 72.1228 127.743 72.0284 128.18C68.9515 128.462 68.639 125.454 68.639 125.454C68.639 125.454 66.8578 120.236 74.9187 118.355C76.4284 118.003 77.7474 117.807 78.8845 117.73C81.2311 117.572 82.7935 117.944 83.6352 118.578C84.559 119.274 84.6103 120.292 83.8732 121.269C82.1385 123.573 89.3556 122.915 92.7306 120.095C96.1057 117.274 103.321 118.454 99.478 123.718Z" fill="#FFB018"/>
<path d="M87.7591 108.393C88.088 108.863 89.5882 109.898 89.1184 111.495C88.6487 113.093 86.8217 114.457 86.8217 114.457C86.8217 114.457 84.7998 117.207 83.6326 118.582C82.7909 117.949 81.2285 117.577 78.8818 117.735C80.1126 116.425 82.0552 114.025 82.2582 111.73C82.5099 109.947 82.5577 109.239 82.5577 109.239L89.9636 103.738L90.3369 105.055C90.3369 105.055 87.4316 107.922 87.7591 108.393Z" fill="#FAC9A0"/>
<path d="M66.8374 134.443C66.1707 134.954 65.4763 135.427 64.7574 135.861C63.595 133.92 62.1386 130.335 62.3041 124.737C63.0177 124.99 63.7525 125.178 64.4996 125.299C64.3547 127.389 64.5427 130.89 66.8374 134.443ZM56.2111 149.501C55.2038 149.441 54.2037 149.293 53.2217 149.06C53.2579 145.526 53.8008 138.467 57.3489 134.87C57.8998 135.375 58.4859 135.841 59.1027 136.263C59.1939 136.324 59.285 136.382 59.3762 136.437C58.1126 138.527 55.6853 143.419 56.2111 149.501Z" fill="#FAFAFA"/>
<path opacity="0.24" d="M62.7746 153.915C62.2043 157.002 61.0515 159.577 59.0761 161.238C58.1546 161.285 57.2362 161.381 56.3246 161.524C56.0423 161.568 55.7428 161.616 55.4317 161.674C56.2029 161.238 56.7308 160.541 57.0905 159.714C58.5947 156.221 55.764 153.967 52.0306 153.276C42.4443 151.501 35.8754 141.067 35.751 140.914C35.9876 141.065 53.4823 152.547 60.311 148.747C61.3162 148.173 62.2814 147.531 63.1999 146.826C63.2888 149.347 63.1746 151.755 62.7746 153.915Z" fill="black"/>
<path opacity="0.28" d="M60.6012 197.901C54.8446 198.581 46.4474 198.924 39.6221 196.572C47.7732 198.498 58.3735 196.217 58.3735 196.217C58.3735 196.217 49.7971 196.781 31.752 169.935C20.8296 153.442 23.2515 139.792 28.3544 130.302C28.2087 130.592 19.5339 148.168 35.2125 169.864C40.6429 177.38 48.993 185.388 61.631 193.343C63.6022 194.586 62.9185 197.627 60.6012 197.901Z" fill="black"/>
<path d="M35.765 201.408C35.1284 201.123 34.5691 200.867 34.1001 200.649C33.432 197.494 34.2054 195.802 35.1318 194.892C35.337 194.989 35.5421 195.091 35.7513 195.199C36.0344 195.343 36.3271 195.479 36.6245 195.61C35.0819 197.834 35.4771 200.322 35.765 201.408Z" fill="#FAC9A0"/>
<path d="M84.3631 129.502C85.8961 128.828 86.8422 127.603 86.4764 126.766C86.1106 125.93 84.5713 125.799 83.0384 126.474C81.5054 127.148 80.5592 128.373 80.9251 129.21C81.2909 130.046 82.8301 130.177 84.3631 129.502Z" fill="#139D74"/>
<path d="M92.7283 125.82C94.2613 125.146 95.2075 123.921 94.8417 123.084C94.4759 122.248 92.9366 122.117 91.4036 122.792C89.8706 123.466 88.9245 124.691 89.2903 125.528C89.6561 126.364 91.1954 126.495 92.7283 125.82Z" fill="#C43333"/>
<path d="M76.8807 123.389C78.4137 122.714 79.3598 121.489 78.994 120.653C78.6282 119.816 77.0889 119.685 75.556 120.36C74.023 121.035 73.0768 122.26 73.4426 123.096C73.8085 123.932 75.3477 124.063 76.8807 123.389Z" fill="#1947B6"/>
<path opacity="0.24" d="M78.3402 166.737L78.0099 186.979C77.6427 186.184 77.2578 185.383 76.8475 184.582L76.0899 172.753L71.1669 175.004C69.9675 173.261 68.6944 171.549 67.3604 169.899C70.2055 169.729 75.9245 169.09 78.3402 166.737Z" fill="black"/>
<path d="M70.685 129.87C71.1636 129.466 71.5814 129.097 71.9465 128.759C71.887 129.297 71.8412 129.942 71.8412 129.942C71.8412 129.942 69.5212 132.407 66.8374 134.443C65.718 132.72 64.9725 130.781 64.6494 128.75C64.7062 128.968 65.9793 133.848 70.685 129.87Z" fill="#EF8F5E"/>
<path d="M74.3098 125.858L74.1826 125.299C74.1826 125.299 74.439 125.397 74.3098 125.858Z" fill="black"/>
<path d="M86.8212 114.457L82.8643 118.161L83.6321 118.582L86.8212 114.457Z" fill="#EF8F5E"/>
<path d="M77.2281 132.971C77.1242 133.095 76.5443 133.782 75.626 134.814C73.0544 137.711 67.8531 143.328 63.2007 146.826C62.2823 147.531 61.3171 148.173 60.3119 148.747C59.1912 149.37 57.7819 149.583 56.2093 149.501C55.9187 146.146 56.5286 143.151 57.3471 140.79C56.8213 148.13 60.1047 146.621 60.1047 146.621C65.9481 145.025 76.7255 133.51 77.2281 132.971Z" fill="#EF8F5E"/>
<path d="M263.019 77.825C260.319 72.8008 254.829 69.6443 249.138 69.8556C243.334 70.0716 238.066 73.7295 235.84 79.1097C234.062 83.4055 234.411 88.3967 236.708 92.4291C239.37 97.1028 244.466 100.086 249.841 100.086C255.119 100.086 260.12 97.227 262.786 92.6562C265.429 88.1258 265.497 82.4384 263.019 77.825ZM253.494 97.6399C252.558 97.9115 251.595 98.0751 250.622 98.1276C250.609 97.725 250.571 97.3518 250.571 97.1248C250.571 96.4142 250.944 94.2687 249.774 94.2687C248.604 94.2687 248.977 96.4142 248.977 97.1248C248.977 97.3484 248.94 97.714 248.926 98.1097C245.16 97.8258 241.561 95.93 239.249 92.8222C237.733 90.768 236.835 88.3211 236.663 85.7711H239.729C240.755 85.7711 240.755 84.1675 239.729 84.1675C239.383 84.138 239.019 84.1675 238.672 84.1675C238.007 84.1675 237.324 84.1305 236.648 84.1312C236.726 82.5953 237.075 81.0856 237.681 79.6728C239.627 75.1555 244.064 72.0861 248.926 71.7905C248.94 72.1965 248.978 72.5738 248.978 72.8029C248.978 73.5135 248.606 75.6583 249.776 75.6583C250.946 75.6583 250.572 73.5135 250.572 72.8029C250.572 72.5758 250.61 72.2034 250.624 71.8008C253.812 72.0287 256.811 73.4052 259.068 75.6764C261.324 77.9477 262.686 80.9607 262.903 84.16H262.839C261.844 84.16 260.808 84.0749 259.816 84.16C258.79 84.16 258.79 85.7629 259.816 85.7629C260.163 85.7931 260.526 85.7629 260.875 85.7629H262.916C262.916 85.7746 262.916 85.7855 262.916 85.7972C262.606 91.2981 258.753 96.1062 253.494 97.6385V97.6399Z" fill="#EDF3FF"/>
<path d="M255.758 77.1453C255.395 77.4883 255.04 77.8436 254.684 78.1968C253.942 78.9362 253.212 79.6879 252.496 80.452C251.803 81.1935 251.071 81.8074 250.558 82.7004C250.471 82.8518 250.389 83.0056 250.311 83.162C250.03 83.0739 249.732 83.0562 249.443 83.1106C249.148 82.4987 248.712 82.0632 248.23 81.5481C247.299 80.5535 246.409 79.5261 245.416 78.5898C245.099 78.69 245.758 79.7284 245.854 79.9287C246.195 80.6358 246.548 81.3382 246.926 82.0289C247.313 82.7374 247.566 83.4624 248.151 84.0345C247.988 84.3168 247.901 84.6373 247.9 84.9639C247.904 85.4614 248.103 85.9374 248.453 86.2898C248.803 86.6421 249.277 86.8428 249.773 86.8487C250.119 86.8481 250.458 86.7494 250.75 86.5641L250.782 86.6093C251.285 87.3206 251.859 87.9653 252.417 88.632C253.383 89.7871 254.354 90.9394 255.342 92.0752C255.438 91.8928 254.59 90.9449 254.46 90.7665C253.921 90.0226 253.378 89.2816 252.829 88.5436C252.31 87.8446 251.822 87.1231 251.251 86.4646C251.233 86.4433 251.175 86.3795 251.093 86.2897C251.444 85.9383 251.643 85.4617 251.645 84.9639C251.644 84.6394 251.559 84.3208 251.397 84.04L251.55 83.9096C252.316 83.2471 252.801 82.4754 253.328 81.6242C254.321 80.0213 255.393 78.4732 256.328 76.8332C256.15 76.5904 255.897 77.0136 255.758 77.1453ZM254.608 76.0568C254.51 76.0005 254.557 76.0273 254.608 76.0568C254.706 76.113 254.662 76.087 254.611 76.0568C255.125 76.3469 255.432 75.4779 255.616 75.1576C255.8 74.8373 256.32 74.2042 255.821 73.9189C255.307 73.6225 254.996 74.495 254.813 74.816C254.63 75.137 254.117 75.7673 254.608 76.0568ZM244.643 93.5918C244.129 93.2961 243.818 94.1686 243.636 94.4896C243.454 94.8106 242.934 95.4409 243.426 95.7242C243.326 95.6673 243.376 95.6954 243.426 95.7242C243.48 95.7551 243.526 95.7811 243.426 95.7242C243.939 96.0164 244.247 95.146 244.433 94.8257C244.619 94.5054 245.141 93.8792 244.643 93.5918ZM244.143 76.0993C244.53 76.3222 244.943 75.8689 244.727 75.4964C244.638 75.3435 244.55 75.1898 244.461 75.0362C244.293 74.7474 244.068 74.0944 243.734 73.9477C243.35 73.7796 242.988 74.2179 243.192 74.5725C243.282 74.7255 243.37 74.8791 243.459 75.0321C243.63 75.3256 243.832 75.9203 244.143 76.0993ZM255.795 94.6185C255.627 94.3291 255.402 93.6754 255.069 93.53C254.684 93.3613 254.323 93.7996 254.528 94.1542L254.794 94.6137C254.964 94.9073 255.164 95.4944 255.473 95.6789C255.462 95.6728 255.459 95.6707 255.478 95.6789C255.562 95.7263 255.512 95.6975 255.482 95.6789C255.867 95.8943 256.276 95.4451 256.061 95.0733C255.972 94.9251 255.884 94.7715 255.795 94.6185ZM240.59 80.0254C240.996 79.9788 241.111 79.4198 240.757 79.216C240.427 78.9513 239.98 78.7695 239.614 78.5583C239.463 78.4718 239.304 78.3525 239.12 78.3703C238.71 78.417 238.6 78.9753 238.954 79.1797L240.096 79.8375C240.246 79.9239 240.406 80.046 240.59 80.0254ZM259.996 90.296C259.655 90.0985 259.296 89.8214 258.926 89.6787C258.512 89.4387 258.074 89.9894 258.391 90.3454C258.493 90.4606 258.672 90.5327 258.801 90.6081C259.158 90.8134 259.515 91.0192 259.871 91.2254C260.286 91.4641 260.723 90.9147 260.407 90.5587C260.305 90.4456 260.126 90.3708 259.996 90.296ZM240.755 89.7302C240.384 89.5662 239.757 90.1095 239.463 90.2789C239.154 90.46 238.347 90.9277 239 91.3036C239.375 91.519 240.035 90.949 240.336 90.772C240.636 90.5951 241.497 90.0553 240.755 89.7302ZM258.454 79.8978C258.438 79.8882 258.442 79.891 258.454 79.8978C258.485 79.9156 258.539 79.9472 258.454 79.8978C258.829 80.1098 259.486 79.5418 259.787 79.3656C260.087 79.1893 260.949 78.6447 260.208 78.3196C259.834 78.1563 259.209 78.6996 258.914 78.8724C258.611 79.0555 257.807 79.5219 258.454 79.8978Z" fill="#EDF3FF"/>
<path d="M229.235 198.05L227.348 212.687H217.036L215.149 197.974L229.235 198.05Z" fill="#C7DEFF"/>
<path d="M225.462 198.05L223.575 212.687H217.036L215.149 197.974L225.462 198.05Z" fill="#98CAFF"/>
<path d="M217.036 212.687L215.579 201.322H225.047L223.576 212.687H217.036Z" fill="#EDF3FF"/>
<path d="M216.46 193.107L215.259 202.747L214.126 202.648L214.962 192.977L216.46 193.107Z" fill="#FAA04A"/>
<path d="M213.257 197.308L215.344 198.046C215.344 198.046 220.029 183.903 222.592 175.128C223.489 172.057 224.017 169.955 223.806 169.881C222.994 169.598 213.257 197.308 213.257 197.308Z" fill="#C43333"/>
<path opacity="0.38" d="M214.304 197.679L215.347 198.048C215.347 198.048 220.033 183.905 222.595 175.13C219.238 183.625 214.304 197.679 214.304 197.679Z" fill="black"/>
<path d="M211.173 198.174L213.377 198.366C213.377 198.366 214.394 183.497 214.693 174.36C214.797 171.161 214.785 168.994 214.562 168.974C213.702 168.898 211.173 198.174 211.173 198.174Z" fill="#139D74"/>
<path d="M212.274 198.269L213.377 198.365C213.377 198.365 214.394 183.496 214.693 174.358C213.557 183.424 212.274 198.269 212.274 198.269Z" fill="#018251"/>
<path d="M218.259 193.445L217.181 209.881C217.126 210.721 216.755 211.508 216.143 212.084C215.531 212.659 214.723 212.979 213.885 212.979H209.18C208.342 212.979 207.534 212.659 206.922 212.084C206.31 211.508 205.939 210.721 205.884 209.881L204.806 193.445H218.259Z" fill="#FFB018"/>
<path d="M215.312 193.445L214.234 209.881C214.179 210.721 213.808 211.509 213.196 212.084C212.583 212.659 211.776 212.979 210.937 212.979H209.18C208.342 212.979 207.534 212.659 206.922 212.084C206.31 211.508 205.939 210.721 205.884 209.881L204.806 193.445H215.312Z" fill="#FFB018"/>
<path d="M207.497 202.618C207.416 202.618 207.337 202.587 207.278 202.531C207.219 202.475 207.183 202.399 207.178 202.317L206.793 196.419C206.79 196.377 206.795 196.334 206.809 196.294C206.823 196.254 206.844 196.218 206.872 196.186C206.899 196.154 206.933 196.128 206.971 196.11C207.008 196.091 207.05 196.08 207.091 196.077C207.133 196.074 207.176 196.08 207.215 196.094C207.255 196.107 207.292 196.128 207.324 196.156C207.355 196.184 207.381 196.218 207.4 196.256C207.418 196.294 207.429 196.335 207.432 196.377L207.817 202.276C207.82 202.318 207.814 202.36 207.801 202.4C207.787 202.44 207.766 202.477 207.738 202.509C207.711 202.541 207.677 202.567 207.639 202.586C207.601 202.605 207.56 202.616 207.518 202.619L207.497 202.618Z" fill="#FAFAFA"/>
<path d="M234.568 210.387H224.124L226.226 191.123C226.27 190.721 226.46 190.349 226.761 190.079C227.061 189.809 227.45 189.66 227.853 189.66H230.838C231.241 189.661 231.63 189.81 231.93 190.08C232.23 190.35 232.421 190.721 232.466 191.123L234.568 210.387Z" fill="#98CAFF"/>
<path d="M232.06 210.387H224.124L226.226 191.123C226.27 190.721 226.46 190.349 226.761 190.079C227.061 189.809 227.45 189.66 227.853 189.66H228.332C228.735 189.66 229.124 189.809 229.425 190.079C229.725 190.349 229.915 190.721 229.959 191.123L232.06 210.387Z" fill="#EDF3FF"/>
<path d="M234.568 210.387H224.124V212.657H234.568V210.387Z" fill="#C43333"/>
<path d="M230.157 188.639H228.536V189.66H230.157V188.639Z" fill="#2A222D"/>
<path d="M231.609 187.164H227.085V188.942H231.609V187.164Z" fill="#8E2323"/>
<path d="M227.508 187.164H227.085V188.942H227.508V187.164Z" fill="#C43333"/>
<path d="M228.329 187.164H227.905V188.942H228.329V187.164Z" fill="#C43333"/>
<path d="M229.149 187.164H228.726V188.942H229.149V187.164Z" fill="#C43333"/>
<path d="M229.967 187.164H229.544V188.942H229.967V187.164Z" fill="#C43333"/>
<path d="M230.788 187.164H230.364V188.942H230.788V187.164Z" fill="#C43333"/>
<path d="M231.608 187.164H231.185V188.942H231.608V187.164Z" fill="#C43333"/>
<path d="M229.346 202.746C230.846 202.746 232.061 201.527 232.061 200.023C232.061 198.519 230.846 197.3 229.346 197.3C227.847 197.3 226.632 198.519 226.632 200.023C226.632 201.527 227.847 202.746 229.346 202.746Z" fill="#C43333"/>
<path d="M226.941 197.232C226.918 197.232 226.896 197.232 226.872 197.228C226.773 197.219 226.676 197.191 226.587 197.145C226.499 197.098 226.42 197.035 226.356 196.958C226.292 196.881 226.244 196.792 226.214 196.697C226.184 196.601 226.173 196.501 226.182 196.401L226.619 191.408C226.626 191.307 226.653 191.208 226.699 191.117C226.744 191.027 226.807 190.946 226.884 190.88C226.961 190.814 227.05 190.764 227.146 190.733C227.243 190.702 227.344 190.691 227.445 190.7C227.546 190.708 227.644 190.737 227.734 190.785C227.823 190.832 227.902 190.897 227.967 190.975C228.031 191.054 228.079 191.144 228.108 191.242C228.137 191.339 228.146 191.441 228.135 191.542L227.697 196.535C227.68 196.725 227.594 196.901 227.454 197.03C227.314 197.159 227.131 197.231 226.941 197.232Z" fill="#FAFAFA"/>
<path d="M247.17 210.387H236.726L238.828 191.123C238.872 190.721 239.062 190.349 239.363 190.079C239.663 189.809 240.052 189.66 240.456 189.66H243.44C243.843 189.66 244.233 189.809 244.533 190.079C244.833 190.349 245.024 190.721 245.067 191.123L247.17 210.387Z" fill="#98CAFF"/>
<path d="M244.661 210.387H236.726L238.828 191.123C238.872 190.721 239.062 190.349 239.363 190.079C239.663 189.809 240.052 189.66 240.456 189.66H240.934C241.337 189.66 241.727 189.809 242.027 190.079C242.327 190.349 242.518 190.721 242.561 191.123L244.661 210.387Z" fill="#EDF3FF"/>
<path d="M247.17 210.387H236.726V212.657H247.17V210.387Z" fill="#139D74"/>
<path d="M242.759 188.639H241.138V189.66H242.759V188.639Z" fill="#2A222D"/>
<path d="M244.21 187.164H239.687V188.942H244.21V187.164Z" fill="#0E684A"/>
<path d="M240.11 187.164H239.687V188.942H240.11V187.164Z" fill="#139D74"/>
<path d="M240.93 187.164H240.507V188.942H240.93V187.164Z" fill="#139D74"/>
<path d="M241.75 187.164H241.327V188.942H241.75V187.164Z" fill="#139D74"/>
<path d="M242.571 187.164H242.147V188.942H242.571V187.164Z" fill="#139D74"/>
<path d="M243.391 187.164H242.968V188.942H243.391V187.164Z" fill="#139D74"/>
<path d="M244.209 187.164H243.786V188.942H244.209V187.164Z" fill="#139D74"/>
<path d="M241.948 202.746C243.447 202.746 244.662 201.527 244.662 200.023C244.662 198.519 243.447 197.3 241.948 197.3C240.449 197.3 239.233 198.519 239.233 200.023C239.233 201.527 240.449 202.746 241.948 202.746Z" fill="#139D74"/>
<path d="M239.545 197.232C239.522 197.232 239.5 197.232 239.476 197.228C239.275 197.21 239.09 197.113 238.96 196.958C238.83 196.803 238.768 196.603 238.785 196.401L239.223 191.408C239.232 191.308 239.26 191.211 239.307 191.123C239.353 191.034 239.416 190.955 239.492 190.89C239.569 190.826 239.657 190.777 239.753 190.747C239.848 190.717 239.948 190.706 240.048 190.715C240.147 190.724 240.244 190.752 240.333 190.799C240.421 190.845 240.5 190.908 240.564 190.985C240.628 191.062 240.676 191.151 240.706 191.246C240.736 191.342 240.747 191.442 240.739 191.542L240.301 196.535C240.284 196.724 240.197 196.901 240.058 197.03C239.918 197.159 239.735 197.231 239.545 197.232Z" fill="#FAFAFA"/>
<path d="M259.613 210.387H249.169L251.272 191.123C251.315 190.721 251.506 190.349 251.806 190.079C252.106 189.809 252.496 189.66 252.899 189.66H255.883C256.287 189.66 256.676 189.809 256.976 190.079C257.276 190.349 257.467 190.721 257.511 191.123L259.613 210.387Z" fill="#98CAFF"/>
<path d="M257.107 210.387H249.169L251.272 191.123C251.315 190.721 251.506 190.349 251.806 190.079C252.106 189.809 252.496 189.66 252.899 189.66H253.377C253.781 189.66 254.17 189.809 254.47 190.079C254.771 190.349 254.961 190.721 255.005 191.123L257.107 210.387Z" fill="#EDF3FF"/>
<path d="M259.613 210.387H249.169V212.657H259.613V210.387Z" fill="#FFB018"/>
<path d="M255.202 188.639H253.581V189.66H255.202V188.639Z" fill="#2A222D"/>
<path d="M256.652 187.164H252.128V188.942H256.652V187.164Z" fill="#C68214"/>
<path d="M252.551 187.164H252.128V188.942H252.551V187.164Z" fill="#FFB018"/>
<path d="M253.371 187.164H252.948V188.942H253.371V187.164Z" fill="#FFB018"/>
<path d="M254.192 187.164H253.769V188.942H254.192V187.164Z" fill="#FFB018"/>
<path d="M255.012 187.164H254.589V188.942H255.012V187.164Z" fill="#FFB018"/>
<path d="M255.832 187.164H255.409V188.942H255.832V187.164Z" fill="#FFB018"/>
<path d="M256.653 187.164H256.229V188.942H256.653V187.164Z" fill="#FFB018"/>
<path d="M254.391 202.746C255.89 202.746 257.106 201.527 257.106 200.023C257.106 198.519 255.89 197.3 254.391 197.3C252.892 197.3 251.677 198.519 251.677 200.023C251.677 201.527 252.892 202.746 254.391 202.746Z" fill="#FFB018"/>
<path d="M251.986 197.232C251.964 197.232 251.942 197.232 251.918 197.228C251.818 197.219 251.721 197.191 251.633 197.145C251.544 197.098 251.466 197.035 251.401 196.958C251.337 196.881 251.289 196.793 251.259 196.697C251.229 196.601 251.218 196.501 251.227 196.401L251.664 191.408C251.671 191.307 251.698 191.208 251.743 191.117C251.789 191.027 251.852 190.946 251.929 190.88C252.006 190.814 252.095 190.764 252.191 190.733C252.288 190.702 252.389 190.691 252.49 190.7C252.591 190.708 252.689 190.737 252.779 190.785C252.868 190.832 252.947 190.897 253.012 190.975C253.076 191.054 253.124 191.144 253.153 191.242C253.182 191.339 253.191 191.441 253.18 191.542L252.742 196.535C252.726 196.724 252.639 196.901 252.499 197.03C252.359 197.159 252.176 197.231 251.986 197.232Z" fill="#FAFAFA"/>
<path d="M128.17 183.697H100.438V212.607H128.17V183.697Z" fill="#98CAFF"/>
<path d="M119.783 183.697H100.438V212.607H119.783V183.697Z" fill="#EDF3FF"/>
<path d="M128.17 183.697C128.17 184.661 126.786 185.541 124.518 186.2C121.984 186.935 118.345 187.398 114.303 187.398C110.261 187.398 106.623 186.935 104.09 186.2C101.823 185.541 100.438 184.661 100.438 183.697C100.438 181.653 106.646 179.997 114.303 179.997C121.961 179.997 128.17 181.653 128.17 183.697Z" fill="#66B6FF"/>
<path d="M124.519 186.2C121.984 186.936 118.346 187.398 114.303 187.398C110.261 187.398 106.623 186.936 104.091 186.2C106.621 185.465 110.262 185.003 114.303 185.003C118.345 185.003 121.984 185.465 124.519 186.2Z" fill="#C43333"/>
<path d="M114.304 216.308C121.962 216.308 128.17 214.651 128.17 212.607C128.17 210.564 121.962 208.907 114.304 208.907C106.646 208.907 100.438 210.564 100.438 212.607C100.438 214.651 106.646 216.308 114.304 216.308Z" fill="#EDF3FF"/>
<path d="M119.782 209.208V216.007C124.716 215.44 128.171 214.132 128.171 212.607C128.171 211.083 124.716 209.774 119.782 209.208Z" fill="#98CAFF"/>
<path d="M114.303 187.398C110.262 187.398 106.623 186.935 104.091 186.2C103.448 186.02 102.82 185.79 102.214 185.511C102.214 185.511 106.717 188.578 106.083 191.89C105.448 195.201 105.317 197.24 106.143 197.11C106.97 196.98 106.717 194.691 107.101 192.781C107.484 190.87 106.332 187.304 109.001 188.705C111.67 190.106 109.131 193.927 110.779 193.672C112.426 193.418 110.779 188.831 112.302 188.705C113.825 188.579 116.618 187.402 116.618 187.402L116.481 187.356C115.773 187.382 115.044 187.398 114.303 187.398Z" fill="#D33C3C"/>
<path d="M117.631 194.534C113.536 194.534 109.109 193.621 105.286 190.761C101.594 188 100.239 184.764 100.184 184.628C100.152 184.569 100.133 184.504 100.127 184.436C100.122 184.369 100.131 184.302 100.154 184.238C100.176 184.175 100.212 184.117 100.258 184.068C100.305 184.019 100.361 183.981 100.423 183.955C100.485 183.93 100.552 183.918 100.619 183.92C100.686 183.922 100.752 183.938 100.813 183.967C100.873 183.997 100.927 184.038 100.97 184.09C101.014 184.141 101.046 184.201 101.064 184.266C101.077 184.296 102.393 187.426 105.896 190.028C110.53 193.468 116.899 194.434 124.314 192.821C126.746 192.292 128.288 191.261 128.895 189.756C130.016 186.988 127.693 183.422 127.669 183.387C127.615 183.282 127.601 183.16 127.63 183.045C127.66 182.931 127.731 182.831 127.829 182.765C127.927 182.7 128.046 182.673 128.163 182.69C128.28 182.707 128.386 182.767 128.462 182.858C128.57 183.02 131.087 186.874 129.779 190.111C129.045 191.928 127.274 193.154 124.514 193.754C122.483 194.197 120.118 194.534 117.631 194.534Z" fill="#478EE2"/>
<path d="M170.153 110.77H225.606V67.6463H170.153V110.77ZM221.282 72.2693V106.153H174.475V72.2693H221.282Z" fill="#EDF3FF"/>
<path d="M174.475 106.151L170.153 110.77V67.6463L174.475 72.2658V106.151Z" fill="#C7DEFF"/>
<path d="M221.282 72.2658L225.604 67.6462V110.77L221.282 106.15V72.2658Z" fill="#C7DEFF"/>
<path d="M175.796 104.554V76.1185L187.2 95.7886L197.239 87.6333L207.174 94.6158L220.627 74.7769V104.554H175.796Z" fill="#EDF3FF"/>
<path d="M189.82 86.3233C192.009 86.3233 193.785 84.5425 193.785 82.3457C193.785 80.149 192.009 78.3682 189.82 78.3682C187.63 78.3682 185.854 80.149 185.854 82.3457C185.854 84.5425 187.63 86.3233 189.82 86.3233Z" fill="#EDF3FF"/>
<path d="M232.681 130.313H261.887V107.598H232.681V130.313ZM259.611 110.031V127.879H234.957V110.031H259.611Z" fill="#EDF3FF"/>
<path d="M234.957 127.879L232.681 130.313V107.598L234.957 110.031V127.879Z" fill="#C7DEFF"/>
<path d="M259.61 110.031L261.887 107.598V130.313L259.61 127.879V110.031Z" fill="#C7DEFF"/>
<path d="M235.651 127.039V112.061L241.659 122.421L246.946 118.126L252.179 121.804L259.266 111.354V127.039H235.651Z" fill="#EDF3FF"/>
<path d="M243.04 117.435C244.194 117.435 245.129 116.497 245.129 115.34C245.129 114.183 244.194 113.245 243.04 113.245C241.887 113.245 240.952 114.183 240.952 115.34C240.952 116.497 241.887 117.435 243.04 117.435Z" fill="#EDF3FF"/>
<path d="M171.869 176.231C170.792 180.198 176.102 180.906 176.102 180.906L175.897 181.257L174.9 182.256C170.968 183.347 168.022 179.695 169.198 177.015C170.39 174.297 172.103 172.992 173.361 172.626C174.105 172.407 174.161 168.803 174.057 168.313C174.758 168.689 175.903 169.495 176.644 169.573C176.774 169.92 176.116 172.6 175.054 172.875C173.707 173.22 172.476 173.995 171.869 176.231Z" fill="#EF8F5E"/>
<path d="M182.826 170.097C181.937 170.49 180.702 170.925 179.371 171.062C178.843 171.12 178.31 171.122 177.781 171.069C177.325 171.022 176.875 170.925 176.441 170.778C175.766 170.548 175.142 170.19 174.602 169.724C174.505 169.64 174.411 169.555 174.32 169.469C173.828 169.007 173.409 168.471 173.08 167.88C173.08 167.88 173.076 167.874 173.075 167.871C173.028 167.777 172.994 167.718 172.986 167.701V167.695C172.964 167.654 172.945 167.613 172.925 167.572C171.67 164.944 172.693 163.376 174.058 162.149C173.831 161.889 173.623 160.288 173.862 160.249C174.101 160.211 174.573 160.152 174.956 160.102C175.327 160.054 175.692 159.962 176.041 159.828L176.664 159.59C177.952 158.702 178.305 157.762 178.305 157.762C178.04 158.561 177.957 159.53 178.486 160.472C178.495 160.489 178.504 160.506 178.514 160.522C178.525 160.539 178.535 160.558 178.546 160.575C178.548 160.579 178.55 160.583 178.553 160.586C178.563 160.603 178.573 160.62 178.585 160.637C178.602 160.666 178.62 160.693 178.64 160.72C178.66 160.748 178.678 160.775 178.698 160.803C180.346 163.067 179.956 164.153 179.956 164.153C179.956 164.153 181.56 163.937 181.256 165.372C180.951 166.806 179.478 167.198 179.478 167.198C179.478 167.198 181.072 167.937 181.294 168.851C181.409 169.351 182.017 169.941 182.826 170.097Z" fill="#FAC9A0"/>
<path d="M178.146 160.372C178.572 161.45 178.861 162.578 179.004 163.728C179.111 164.666 179 166.068 178.818 166.509C178.288 167.796 178.874 169.569 183.785 170.801C183.785 170.801 181.106 169.902 182.446 168.154C183.785 166.405 183.715 162.82 182.132 161.688C180.548 160.555 178.146 160.372 178.146 160.372Z" fill="#EF8E5E"/>
<path d="M161.014 167.871C160.984 167.815 160.954 167.758 160.925 167.701C160.934 167.718 160.97 167.777 161.014 167.871Z" fill="#FFE5E1"/>
<path d="M187.384 174.9C187.384 174.9 184.227 177.176 179.688 175.436C179.688 175.436 181.941 173.526 180.954 172.075C180.691 171.689 180.198 171.335 179.37 171.06C180.701 170.923 181.934 170.488 182.824 170.095C183.423 170.504 183.998 170.948 184.545 171.425C185.585 172.325 186.811 173.582 187.384 174.9Z" fill="#FAC9A0"/>
<path d="M161.014 188.456C161.014 188.456 161.072 183.092 165.061 184.715C169.05 186.339 179.891 192.023 179.891 192.023L178.908 195.3L172.376 197.185L158.153 191.012L161.014 188.456Z" fill="#002672"/>
<path d="M174.94 171.768C173.682 172.137 171.97 173.443 170.777 176.158C170.084 177.736 170.821 179.651 172.35 180.735C172.605 180.918 172.878 181.073 173.164 181.199C172.723 182.865 171.488 186.658 168.976 188.77C165.313 187.108 163.876 183.631 163.876 183.631L164.055 184.788C163.799 183.571 163.74 182.203 163.878 180.682C164.6 172.824 172.189 170.809 172.189 170.809C172.189 170.809 169.277 166.918 172.923 167.569C172.972 167.672 173.025 167.775 173.081 167.876L173.093 167.899C173.106 167.924 173.12 167.947 173.134 167.972C173.175 168.04 173.218 168.114 173.262 168.184C173.287 168.224 173.312 168.263 173.338 168.301C173.364 168.339 173.389 168.379 173.416 168.417C173.435 168.445 173.456 168.473 173.477 168.502C173.498 168.531 173.513 168.551 173.53 168.575C173.677 168.774 173.835 168.964 174.004 169.144C174.03 169.173 174.057 169.203 174.087 169.232C174.09 169.237 174.095 169.241 174.099 169.245C174.134 169.283 174.168 169.318 174.206 169.354C174.244 169.39 174.282 169.429 174.321 169.466C174.412 169.552 174.506 169.637 174.603 169.72C174.911 169.986 175.247 170.218 175.605 170.411C175.707 170.901 175.684 171.549 174.94 171.768Z" fill="#FAC9A0"/>
<path d="M174.189 181.52C174.045 185.165 172.756 188.996 171.746 191.483C169.962 191.209 168.464 190.652 167.269 189.823C170.947 188.303 172.629 183.208 173.162 181.202C173.491 181.347 173.835 181.454 174.189 181.52Z" fill="#FFE5E1"/>
<path d="M189.234 200.931C186.781 206.112 182.703 209.461 178.43 209.348C175.705 209.275 173.238 208.576 171.097 207.602C169.377 206.81 167.754 205.821 166.262 204.653C163.618 202.599 162.127 200.649 162.127 200.649C161.528 201.39 161.033 202.279 160.629 203.235C160.094 204.495 159.71 205.868 159.435 207.168C156.58 208.652 154.717 207.251 153.763 206.094C153.651 205.012 153.518 203.713 153.409 202.311C152.911 195.956 153.918 186.978 158.674 186.728C165.281 186.381 171.381 192.917 175.646 193.995C175.926 194.069 176.212 194.119 176.5 194.146C180.62 194.493 181.984 191.689 186.235 193.778C187.577 194.437 188.369 195.394 188.827 196.395C189.803 198.525 189.253 200.854 189.234 200.931Z" fill="#1947B6"/>
<path opacity="0.32" d="M189.231 200.933C186.779 206.115 182.701 209.463 178.428 209.35C175.703 209.277 173.236 208.578 171.095 207.604C171.095 207.604 174.425 206.393 176.864 204.835C178.84 203.571 180.231 202.08 178.79 200.821C175.569 198.009 175.644 193.995 175.644 193.995L186.799 199.692L189.231 200.933Z" fill="black"/>
<path d="M159.435 207.168C159.354 207.553 159.281 207.932 159.218 208.298C159.131 208.798 159.06 209.277 159.002 209.722C158.777 211.436 158.744 212.655 158.744 212.655H153.324C153.324 212.655 151.819 212.757 151.819 211.452C151.819 210.147 153.929 211.567 153.986 208.871C153.992 208.602 153.964 208.176 153.913 207.626C153.873 207.189 153.82 206.672 153.761 206.094C154.716 207.254 156.58 208.652 159.435 207.168Z" fill="#DC433E"/>
<path d="M166.261 204.653C166.081 204.953 165.866 205.322 165.636 205.739C165.342 206.272 165.02 206.886 164.714 207.542C164.519 207.962 164.326 208.4 164.149 208.845C162.526 208.84 161.437 208.451 160.724 208.015C159.804 207.451 159.513 206.807 159.513 206.807C159.718 205.883 159.979 204.973 160.297 204.082C160.759 202.809 161.355 201.604 162.127 200.652C162.127 200.65 163.619 202.599 166.261 204.653Z" fill="#002672"/>
<path d="M164.15 208.845C164.063 209.061 163.982 209.279 163.904 209.498C163.517 210.586 163.248 211.687 163.24 212.657H158.745C158.81 211.165 158.973 209.679 159.233 208.209C159.313 207.757 159.406 207.286 159.514 206.809C159.514 206.809 159.805 207.453 160.725 208.017C161.438 208.451 162.527 208.84 164.15 208.845Z" fill="#C43333"/>
<path d="M189.232 200.931C189.251 200.854 187.036 202.221 182.822 201.267C181.752 201.025 175.811 197.709 175.643 193.997C175.582 193.562 175.497 193.131 175.39 192.705C175.293 192.335 175.085 192.015 174.956 191.676C172.764 185.899 174.98 181.149 177.058 178.31C178.4 176.475 179.684 175.439 179.684 175.439C184.223 177.179 187.38 174.903 187.38 174.903C187.643 175.35 187.892 175.799 188.126 176.249C188.332 176.642 188.527 177.036 188.713 177.43C192.776 186.032 192.148 194.775 189.232 200.931Z" fill="#FFB018"/>
<path d="M188.003 176.006C183.446 179.893 177.541 177.682 177.541 177.682C178.695 176.242 179.69 175.436 179.69 175.436C184.228 177.176 187.386 174.9 187.386 174.9C187.6 175.268 187.805 175.637 188.003 176.006ZM174.188 181.519C174.188 181.58 174.183 181.64 174.18 181.701C174.175 181.798 174.17 181.895 174.163 181.992C174.156 182.09 174.148 182.201 174.139 182.306C174.139 182.343 174.133 182.381 174.131 182.419C174.128 182.457 174.122 182.509 174.118 182.553C174.113 182.61 174.107 182.665 174.101 182.721C174.095 182.776 174.09 182.835 174.083 182.892C174.077 182.949 174.068 183.025 174.059 183.092C174.054 183.141 174.048 183.188 174.042 183.236C173.991 183.638 173.93 184.039 173.857 184.437C173.837 184.55 173.816 184.663 173.795 184.776C173.793 184.783 173.792 184.791 173.791 184.799C173.759 184.957 173.728 185.114 173.694 185.27C173.634 185.558 173.569 185.842 173.501 186.123C173.488 186.177 173.475 186.23 173.46 186.283C173.444 186.352 173.428 186.416 173.411 186.483C173.4 186.526 173.389 186.569 173.378 186.612C173.364 186.666 173.35 186.72 173.335 186.774C173.321 186.829 173.306 186.882 173.292 186.936C173.263 187.044 173.233 187.151 173.203 187.258C173.177 187.352 173.149 187.446 173.123 187.539L173.108 187.589C173.082 187.676 173.057 187.763 173.031 187.851C173.028 187.863 173.024 187.875 173.02 187.887C172.979 188.024 172.939 188.154 172.897 188.285C172.891 188.307 172.884 188.328 172.877 188.349C172.861 188.4 172.845 188.451 172.829 188.501C172.821 188.525 172.814 188.547 172.807 188.57C172.776 188.665 172.746 188.759 172.715 188.851C172.654 189.036 172.593 189.219 172.53 189.399L172.455 189.615C171.252 189.552 170.072 189.266 168.974 188.772C171.485 186.66 172.72 182.866 173.162 181.2C173.49 181.346 173.835 181.453 174.188 181.519Z" fill="#FAFAFA"/>
<path d="M177.539 188.865C175.613 189.5 173.924 189.704 172.454 189.619L172.529 189.403C172.592 189.224 172.653 189.042 172.715 188.855C172.746 188.762 172.776 188.669 172.806 188.574C172.813 188.552 172.821 188.529 172.828 188.506C172.845 188.455 172.86 188.404 172.877 188.353C172.883 188.332 172.89 188.311 172.896 188.29C172.938 188.158 172.979 188.025 173.02 187.891C173.023 187.879 173.027 187.867 173.031 187.855C173.056 187.768 173.082 187.681 173.108 187.593L173.122 187.543C173.149 187.45 173.177 187.357 173.203 187.262C173.232 187.155 173.262 187.048 173.291 186.94C173.305 186.886 173.321 186.833 173.335 186.778C173.348 186.724 173.364 186.67 173.377 186.616C173.388 186.573 173.4 186.53 173.41 186.487C173.427 186.418 173.444 186.355 173.46 186.287C173.474 186.234 173.487 186.181 173.5 186.128C173.569 185.846 173.634 185.562 173.694 185.274C173.727 185.119 173.759 184.961 173.79 184.803C173.791 184.795 173.793 184.787 173.794 184.78C173.816 184.667 173.837 184.553 173.856 184.441C173.929 184.043 173.99 183.643 174.041 183.241C174.047 183.193 174.053 183.145 174.059 183.097C174.067 183.028 174.075 182.963 174.083 182.896C174.091 182.83 174.095 182.782 174.101 182.725C174.106 182.668 174.112 182.614 174.117 182.557C174.122 182.513 174.126 182.468 174.13 182.423C174.134 182.378 174.136 182.348 174.139 182.31C174.148 182.206 174.155 182.101 174.162 181.996C174.169 181.892 174.174 181.802 174.179 181.706C174.183 181.645 174.185 181.584 174.187 181.523C174.95 181.661 175.734 181.621 176.479 181.406C176.536 181.39 176.594 181.373 176.652 181.356C177.832 180.982 179.053 180.754 180.288 180.675C182.388 180.559 184.192 181.004 185.046 182.154V182.158V182.164L185.059 182.182C185.29 182.51 187.126 185.708 177.539 188.865Z" fill="#FFB018"/>
<path d="M190.125 209.35H164.802V212.657H190.125V209.35Z" fill="#8EC0FD"/>
<path d="M188.13 176.246C183.863 179.86 178.791 178.817 177.062 178.304C177.223 178.085 177.383 177.876 177.54 177.679C177.54 177.679 183.447 179.891 188.002 176.004C188.046 176.086 188.087 176.166 188.13 176.246ZM159.434 207.168C159.353 207.553 159.281 207.932 159.217 208.298C158.101 208.674 155.992 209.052 153.914 207.626C153.875 207.189 153.821 206.672 153.763 206.094C154.716 207.254 156.579 208.652 159.434 207.168Z" fill="#FAFAFA"/>
<path d="M158.05 207.777C158.029 207.777 158.008 207.769 157.992 207.754C157.977 207.739 157.967 207.719 157.966 207.698C157.966 207.64 157.713 201.877 162.675 197.764L162.751 197.701L162.802 197.785C162.817 197.812 164.443 200.512 167.898 202.649C171.081 204.621 176.513 206.503 184.317 204.279C184.339 204.273 184.362 204.276 184.381 204.286C184.401 204.297 184.415 204.315 184.421 204.337C184.427 204.358 184.425 204.382 184.414 204.401C184.403 204.421 184.385 204.435 184.363 204.442C176.5 206.684 171.016 204.781 167.802 202.788C164.661 200.841 163.016 198.43 162.709 197.955C157.89 202.009 158.132 207.632 158.134 207.689C158.135 207.7 158.133 207.711 158.13 207.721C158.126 207.732 158.12 207.741 158.113 207.75C158.106 207.758 158.097 207.764 158.087 207.769C158.077 207.774 158.066 207.777 158.055 207.777H158.05Z" fill="#4A75FF"/>
<path d="M157.647 207.853C157.627 207.852 157.607 207.845 157.592 207.831C157.577 207.818 157.567 207.799 157.564 207.779C157.556 207.716 156.826 201.455 162.839 197.116L162.912 197.064L162.96 197.14C162.977 197.167 164.776 199.961 168.361 202.124C171.665 204.119 177.206 205.971 184.84 203.461C184.861 203.454 184.884 203.456 184.904 203.466C184.924 203.476 184.94 203.494 184.947 203.515C184.95 203.526 184.951 203.537 184.95 203.548C184.95 203.559 184.947 203.57 184.942 203.579C184.937 203.589 184.93 203.598 184.921 203.605C184.913 203.612 184.903 203.618 184.893 203.621C177.19 206.152 171.599 204.28 168.264 202.265C164.982 200.28 163.18 197.767 162.866 197.305C157.014 201.58 157.723 207.696 157.73 207.757C157.733 207.779 157.727 207.802 157.713 207.82C157.7 207.837 157.68 207.849 157.658 207.852L157.647 207.853Z" fill="#4A75FF"/>
<path d="M157.099 207.893C157.079 207.893 157.06 207.886 157.045 207.874C157.03 207.861 157.02 207.844 157.016 207.825C157.003 207.756 155.733 200.716 163.102 196.332L163.17 196.29L163.214 196.358C163.232 196.387 165.06 199.262 168.664 201.479C171.987 203.523 177.546 205.412 185.154 202.797C185.175 202.79 185.198 202.791 185.218 202.801C185.238 202.811 185.253 202.828 185.261 202.849C185.268 202.871 185.266 202.894 185.257 202.914C185.247 202.934 185.229 202.949 185.208 202.957C177.534 205.594 171.925 203.684 168.57 201.619C165.247 199.573 163.42 196.972 163.116 196.518C155.93 200.842 157.167 207.723 157.18 207.792C157.182 207.803 157.182 207.814 157.179 207.825C157.177 207.836 157.172 207.846 157.166 207.856C157.16 207.865 157.152 207.873 157.142 207.879C157.133 207.885 157.122 207.889 157.111 207.891L157.099 207.893Z" fill="#4A75FF"/>
<path d="M164.15 208.845C164.063 209.061 163.982 209.279 163.904 209.498C162.803 209.717 161.661 209.578 160.645 209.1C160.138 208.866 159.663 208.566 159.233 208.209C159.313 207.756 159.406 207.285 159.514 206.808C159.514 206.808 159.805 207.452 160.725 208.017C161.438 208.451 162.527 208.84 164.15 208.845Z" fill="#FAFAFA"/>
<g opacity="0.18">
<path d="M164.15 208.845C164.063 209.061 163.982 209.279 163.904 209.498C162.803 209.717 161.661 209.578 160.645 209.1C160.138 208.866 159.663 208.566 159.233 208.209C159.313 207.756 159.406 207.285 159.514 206.808C159.514 206.808 159.805 207.452 160.725 208.017C161.438 208.451 162.527 208.84 164.15 208.845Z" fill="black"/>
</g>
<g opacity="0.18">
<path d="M166.262 204.653C166.082 204.953 165.867 205.322 165.637 205.739C163.71 204.723 162.452 202.832 162.452 202.832C161.397 203.861 160.924 205.966 160.725 208.015C160.69 208.382 160.664 208.744 160.645 209.1C160.583 210.285 160.581 211.472 160.64 212.657H158.745C158.81 211.165 158.973 209.679 159.233 208.209C159.313 207.757 159.406 207.286 159.514 206.809C159.718 205.885 159.98 204.975 160.298 204.084C160.759 202.811 161.356 201.606 162.128 200.654C162.128 200.65 163.62 202.599 166.262 204.653Z" fill="black"/>
</g>
<g opacity="0.18">
<path d="M159.003 209.723C158.778 211.438 158.746 212.656 158.746 212.656H153.472C153.472 212.656 158.434 212.488 159.001 209.733L159.003 209.723Z" fill="black"/>
</g>
<path d="M172.457 189.617C172.416 189.731 172.376 189.843 172.336 189.953C172.308 190.031 172.28 190.107 172.252 190.184L172.236 190.225C172.22 190.27 172.203 190.314 172.186 190.358C172.037 190.757 171.89 191.133 171.748 191.483C169.965 191.209 168.466 190.652 167.271 189.824C167.889 189.563 168.464 189.209 168.976 188.773C170.074 189.267 171.255 189.553 172.457 189.617Z" fill="#FAFAFA"/>
<path opacity="0.13" d="M172.457 189.617C172.416 189.731 172.376 189.843 172.336 189.953C172.308 190.031 172.28 190.107 172.252 190.184L172.236 190.225C172.22 190.27 172.203 190.314 172.186 190.358C172.037 190.757 171.89 191.133 171.748 191.483C169.965 191.209 168.466 190.652 167.271 189.824C167.889 189.563 168.464 189.209 168.976 188.773C170.074 189.267 171.255 189.553 172.457 189.617Z" fill="black"/>
<path d="M176.884 191.559C175.75 191.673 174.609 191.705 173.471 191.655C172.869 191.624 172.293 191.567 171.745 191.483C171.887 191.133 172.034 190.757 172.183 190.358C172.2 190.314 172.217 190.27 172.233 190.225L172.25 190.184C172.277 190.107 172.305 190.031 172.333 189.953C172.373 189.843 172.414 189.731 172.454 189.617C173.924 189.704 175.613 189.5 177.539 188.862C187.126 185.707 185.29 182.507 185.066 182.175C185.275 182.466 185.422 182.797 185.498 183.147C186.105 185.875 185.96 190.689 176.884 191.559Z" fill="#FFB018"/>
<path opacity="0.13" d="M176.884 191.559C175.75 191.673 174.609 191.705 173.471 191.655C172.869 191.624 172.293 191.567 171.745 191.483C171.887 191.133 172.034 190.757 172.183 190.358C172.2 190.314 172.217 190.27 172.233 190.225L172.25 190.184C172.277 190.107 172.305 190.031 172.333 189.953C172.373 189.843 172.414 189.731 172.454 189.617C173.924 189.704 175.613 189.5 177.539 188.862C187.126 185.707 185.29 182.507 185.066 182.175C185.275 182.466 185.422 182.797 185.498 183.147C186.105 185.875 185.96 190.689 176.884 191.559Z" fill="black"/>
<g opacity="0.11">
<path d="M189.232 200.931C186.78 206.113 182.702 209.461 178.429 209.348C175.703 209.275 173.236 208.576 171.096 207.602C169.375 206.811 167.753 205.821 166.261 204.653C163.617 202.599 162.126 200.649 162.126 200.649C162.126 200.649 169.089 205.621 176.864 204.833C179.608 204.565 182.227 203.554 184.443 201.909C185.317 201.27 186.109 200.525 186.801 199.691C187.626 198.692 188.309 197.582 188.828 196.393C192.384 188.337 188.808 177.697 188.718 177.43C192.776 186.034 192.149 194.775 189.232 200.931Z" fill="black"/>
</g>
<g opacity="0.07">
<path d="M174.939 171.768C173.682 172.137 171.97 173.443 170.777 176.157C170.084 177.735 170.821 179.65 172.35 180.735C168.035 177.897 171.529 172.991 173.17 172.076C174.66 171.246 173.451 168.6 173.083 167.876C173.088 167.883 173.091 167.891 173.095 167.898C173.109 167.922 173.123 167.946 173.137 167.971C173.178 168.04 173.22 168.113 173.265 168.184C173.289 168.223 173.314 168.262 173.341 168.3C173.367 168.339 173.392 168.377 173.418 168.416C173.438 168.445 173.458 168.473 173.479 168.501C173.501 168.529 173.514 168.55 173.533 168.575C173.68 168.773 173.838 168.963 174.006 169.143C174.033 169.173 174.061 169.202 174.089 169.231L174.102 169.245C174.136 169.281 174.17 169.318 174.208 169.353C174.247 169.389 174.285 169.429 174.324 169.466C174.414 169.551 174.508 169.636 174.605 169.72C174.913 169.986 175.249 170.217 175.607 170.41C175.706 170.901 175.684 171.549 174.939 171.768Z" fill="black"/>
</g>
<path d="M182.089 168.898C181.207 169.534 180.816 168.195 180.816 168.195C180.816 168.195 180.796 166.419 181.106 164.948C181.417 163.476 179.655 164.146 179.655 164.146C179.655 164.146 180.054 163.03 178.365 160.712C178.285 160.603 178.212 160.488 178.146 160.369C178.144 160.367 178.143 160.364 178.142 160.361C177.605 159.401 177.689 158.407 177.961 157.591C178.011 157.438 178.07 157.293 178.13 157.154C178.13 157.154 180.342 160.148 183.232 161.754C186.122 163.36 183.179 168.666 182.089 168.898Z" fill="#0D1C4C"/>
<path d="M171.47 185.524C171.47 185.524 170.444 186.793 169.219 187.334C167.994 187.875 166.257 186.929 166.256 186.929C164.578 185.337 163.874 183.636 163.874 183.636L164.052 184.793C164.511 186.979 165.597 188.667 167.266 189.825C167.885 189.564 168.46 189.21 168.971 188.774L168.93 188.755C170.69 187.287 171.47 185.524 171.47 185.524Z" fill="#EF8F5E"/>
<path opacity="0.32" d="M162.128 200.649C162.128 200.649 162.795 199.245 163.217 196.359C163.217 196.359 164.455 199.373 163.405 202.091L162.128 200.649Z" fill="black"/>
<path d="M186.139 169.42C185.451 169.307 184.775 169.127 184.122 168.882C180.471 167.453 182.251 164.645 181.912 162.806C181.521 160.695 178.399 160.873 178.073 157.351C178.013 156.751 178.094 156.146 178.311 155.584C179.173 153.381 181.911 152.523 181.911 152.523C183.766 151.567 186.073 152.784 185.877 154.546C185.681 156.308 186.007 157.743 189.843 160.483C193.679 163.223 192.383 170.53 186.139 169.42Z" fill="#DC433E"/>
<path d="M190.061 160.083C190.849 159.419 190.658 157.888 189.633 156.666C188.608 155.443 187.138 154.99 186.35 155.655C185.562 156.32 185.754 157.85 186.778 159.073C187.803 160.296 189.273 160.748 190.061 160.083Z" fill="#FFCACA"/>
</g>
</g>
<defs>
<clipPath id="clip0_300_6104">
<rect width="272.652" height="268.411" fill="white" transform="translate(0.651367 0.00762939)"/>
</clipPath>
<clipPath id="clip1_300_6104">
<rect x="1.1748" y="27" width="272" height="214" rx="107" fill="white"/>
</clipPath>
</defs>
</svg>
