<svg width="55" height="54" viewBox="0 0 55 54" fill="none" xmlns="http://www.w3.org/2000/svg">
<path fill-rule="evenodd" clip-rule="evenodd" d="M27.3555 3.875C21.2223 3.875 15.3404 6.31138 11.0036 10.6482C6.66685 14.9849 4.23047 20.8669 4.23047 27C4.23047 33.1331 6.66685 39.0151 11.0036 43.3518C15.3404 47.6886 21.2223 50.125 27.3555 50.125C30.5387 50.1292 33.6882 49.4738 36.6055 48.2C36.8312 48.1015 37.0741 48.0484 37.3203 48.0438C37.5665 48.0392 37.8112 48.0831 38.0405 48.1731C38.2697 48.263 38.479 48.3973 38.6564 48.5681C38.8337 48.7389 38.9757 48.943 39.0742 49.1688C39.1727 49.3945 39.2258 49.6374 39.2304 49.8836C39.235 50.1298 39.1911 50.3745 39.1011 50.6038C39.0112 50.833 38.877 51.0423 38.7061 51.2197C38.5353 51.397 38.3312 51.539 38.1055 51.6375C34.7151 53.1176 31.0549 53.8794 27.3555 53.875C12.513 53.875 0.480469 41.8425 0.480469 27C0.480469 12.1575 12.513 0.125 27.3555 0.125C42.198 0.125 54.2305 12.1575 54.2305 27C54.2347 30.5751 53.5235 34.115 52.1389 37.4111C50.7542 40.7072 48.7241 43.6929 46.168 46.1925C45.993 46.369 45.7848 46.5089 45.5553 46.6042C45.3258 46.6995 45.0797 46.7482 44.8312 46.7475C44.5827 46.7468 44.3368 46.6967 44.1079 46.6002C43.8789 46.5037 43.6714 46.3626 43.4975 46.1851C43.3235 46.0077 43.1866 45.7975 43.0946 45.5666C43.0026 45.3358 42.9574 45.089 42.9616 44.8405C42.9659 44.5921 43.0194 44.347 43.1192 44.1194C43.219 43.8919 43.3631 43.6864 43.543 43.515C45.7429 41.3645 47.4902 38.7953 48.6816 35.959C49.8731 33.1226 50.4847 30.0764 50.4805 27C50.4805 20.8669 48.0441 14.9849 43.7073 10.6482C39.3705 6.31138 33.4886 3.875 27.3555 3.875Z" fill="#FF8800"/>
<path fill-rule="evenodd" clip-rule="evenodd" d="M17.9805 14.5C17.9805 14.0027 18.178 13.5258 18.5296 13.1742C18.8813 12.8225 19.3582 12.625 19.8555 12.625H29.8555C31.0866 12.625 32.3057 12.8675 33.4431 13.3386C34.5806 13.8098 35.614 14.5003 36.4846 15.3709C37.3551 16.2414 38.0457 17.2749 38.5168 18.4123C38.988 19.5498 39.2305 20.7689 39.2305 22C39.2305 23.2311 38.988 24.4502 38.5168 25.5877C38.0457 26.7251 37.3551 27.7586 36.4846 28.6291C35.614 29.4997 34.5806 30.1902 33.4431 30.6614C32.3057 31.1325 31.0866 31.375 29.8555 31.375H21.7305V39.5C21.7305 39.9973 21.5329 40.4742 21.1813 40.8258C20.8297 41.1775 20.3527 41.375 19.8555 41.375C19.3582 41.375 18.8813 41.1775 18.5296 40.8258C18.178 40.4742 17.9805 39.9973 17.9805 39.5V14.5ZM21.7305 27.625H29.8555C31.3473 27.625 32.7781 27.0324 33.8329 25.9775C34.8878 24.9226 35.4805 23.4918 35.4805 22C35.4805 20.5082 34.8878 19.0774 33.8329 18.0225C32.7781 16.9676 31.3473 16.375 29.8555 16.375H21.7305V27.625Z" fill="#FF8800"/>
</svg>
