<svg width="85" height="106" viewBox="0 0 85 106" fill="none" xmlns="http://www.w3.org/2000/svg">
<g clip-path="url(#clip0_199_880)">
<path d="M21.4034 53.5243C16.3274 59.0755 13.2002 66.4387 13.2002 74.5363C13.2002 91.7395 27.197 105.736 44.4002 105.736C61.6034 105.736 75.6002 91.7395 75.6002 74.5363C75.6002 66.4387 72.473 59.0755 67.397 53.5243L86.885 -11.1701C86.9931 -11.5283 87.016 -11.9069 86.9518 -12.2756C86.8875 -12.6442 86.738 -12.9928 86.5151 -13.2934C86.2921 -13.5939 86.002 -13.8382 85.6679 -14.0067C85.3337 -14.1752 84.9648 -14.2632 84.5906 -14.2637H62.0882C61.5729 -14.2635 61.0713 -14.0975 60.6577 -13.7902C60.244 -13.4829 59.9403 -13.0506 59.7914 -12.5573L44.4002 38.5363L29.009 -12.5597C28.8596 -13.0525 28.5557 -13.4843 28.1421 -13.7911C27.7285 -14.098 27.2272 -14.2637 26.7122 -14.2637H4.21216C3.83753 -14.2639 3.46805 -14.1765 3.13328 -14.0083C2.79851 -13.8402 2.50776 -13.596 2.28429 -13.2953C2.06082 -12.9946 1.91084 -12.6458 1.84636 -12.2768C1.78188 -11.9077 1.80469 -11.5287 1.91296 -11.1701L21.4034 53.5243ZM44.4002 100.936C29.8442 100.936 18.0002 89.0923 18.0002 74.5363C18.0002 59.9803 29.8442 48.1363 44.4002 48.1363C58.9562 48.1363 70.8002 59.9803 70.8002 74.5363C70.8002 89.0923 58.9586 100.936 44.4002 100.936ZM63.8738 -9.46367H81.3602L63.4754 49.9003C58.9695 46.3879 53.5809 44.1886 47.9042 43.5451L63.8738 -9.46367ZM24.9266 -9.46367L40.8962 43.5475C35.2194 44.191 29.8308 46.3903 25.325 49.9027L7.44016 -9.46367H24.9266Z" fill="#8C8C8C" fill-opacity="1"/>
<path d="M49.0874 86.7616H46.9874V62.1616C47.1074 60.8536 46.997 59.8384 46.9706 59.6176C46.8993 59.0095 46.5969 58.452 46.126 58.0607C45.6552 57.6694 45.0519 57.474 44.441 57.5152C43.831 57.5524 43.2582 57.821 42.8395 58.2661C42.4207 58.7112 42.1875 59.2992 42.1874 59.9104V61.9C42.0914 62.74 41.861 63.6424 41.3834 64.1824C41.153 64.4416 40.7306 64.7872 39.713 64.7872C39.0765 64.7872 38.466 65.04 38.0159 65.4901C37.5658 65.9402 37.313 66.5506 37.313 67.1872C37.313 67.8237 37.5658 68.4341 38.0159 68.8842C38.466 69.3343 39.0765 69.5872 39.713 69.5872C40.6658 69.5872 41.4866 69.4384 42.1874 69.2032V86.7616H40.0874C39.4509 86.7616 38.8404 87.0144 38.3903 87.4645C37.9402 87.9146 37.6874 88.525 37.6874 89.1616C37.6874 89.7981 37.9402 90.4085 38.3903 90.8586C38.8404 91.3087 39.4509 91.5616 40.0874 91.5616H49.0874C49.7239 91.5616 50.3344 91.3087 50.7844 90.8586C51.2345 90.4085 51.4874 89.7981 51.4874 89.1616C51.4874 88.525 51.2345 87.9146 50.7844 87.4645C50.3344 87.0144 49.7239 86.7616 49.0874 86.7616Z" fill="#8C8C8C" fill-opacity="1"/>
</g>
<defs>
<clipPath id="clip0_199_880">
<rect width="88.8" height="120" fill="white" transform="translate(0 -14.2637)"/>
</clipPath>
</defs>
</svg>
