<svg width="77" height="110" viewBox="0 0 77 110" fill="none" xmlns="http://www.w3.org/2000/svg">
<g clip-path="url(#clip0_168_500)">
<path d="M1.71787 41.635C0.976546 41.8952 0.38264 42.4314 0.045374 43.1454C-0.291423 43.8581 -0.328219 44.6568 -0.0626725 45.3815L1.36209 49.3764C1.91498 50.9083 3.55608 51.6916 5.11701 51.1558L6.43256 50.6854C6.63741 50.9266 6.84952 51.1605 7.06936 51.3862L6.48319 52.6394C5.78241 54.0923 6.39998 55.8485 7.87186 56.56L11.7123 58.3762C13.1633 59.0545 14.9113 58.4238 15.6151 56.9639L16.2055 55.7076C16.5226 55.7339 16.8386 55.7498 17.1536 55.7557L17.6287 57.0836C18.0653 58.2738 19.1978 59.0158 20.3952 59.0158C20.7224 59.0158 21.055 58.96 21.3794 58.8431L25.3808 57.4157C26.8973 56.8605 27.6866 55.1761 27.1419 53.6639L26.694 52.4116C27.8183 53.4686 29.0277 54.45 30.3332 55.3263C31.2383 55.9371 31.8208 56.8924 32.0094 57.9562C30.5936 58.8654 29.6483 60.445 29.6483 62.2488C29.6483 63.6466 30.2146 64.9132 31.1275 65.8364C30.2146 66.7596 29.6483 68.0264 29.6483 69.4244C29.6483 72.2409 31.9398 74.5324 34.7568 74.5324H35.7297V96.449C35.7297 96.5175 35.7576 96.5803 35.7667 96.6473C35.773 96.6998 35.7838 96.7497 35.7955 96.8013C35.8187 96.8976 35.8415 96.9902 35.883 97.08C35.931 97.1892 35.9983 97.289 36.0726 97.3858C36.0941 97.4128 36.103 97.4472 36.1265 97.4728L36.3121 97.6764L45.6564 107.931C45.9451 108.248 46.3532 108.428 46.7802 108.428C46.798 108.428 46.8158 108.427 46.8337 108.427C47.2804 108.411 47.6966 108.2 47.9734 107.85L54.9245 99.0478L56.2328 97.3914C56.2626 97.3537 56.2752 97.3066 56.3012 97.2665C56.3521 97.1847 56.4046 97.1041 56.4388 97.0155C56.4787 96.9168 56.4976 96.8142 56.5162 96.7089C56.522 96.6731 56.5309 96.6386 56.5342 96.6023C56.5396 96.5503 56.5602 96.5015 56.5602 96.4488V74.5326H57.5331C60.3503 74.5326 62.6416 72.2411 62.6416 69.4247C62.6416 68.0266 62.0753 66.76 61.1624 65.8366C62.0753 64.9134 62.6416 63.6468 62.6416 62.249C62.6416 60.4448 61.6956 58.8646 60.2791 57.9557C60.4623 56.895 61.0265 55.9544 61.9021 55.3682C66.1553 52.5328 69.5683 48.5948 71.7723 43.9804C72.134 43.2232 71.8134 42.315 71.0554 41.9533C70.2981 41.5917 69.3899 41.9123 69.0283 42.6703C67.0605 46.7899 64.0129 50.306 60.213 52.8398C58.7183 53.8401 57.6937 55.3863 57.3161 57.1411H34.9722C34.5885 55.3861 33.549 53.8279 32.0312 52.8035C28.7183 50.58 26.0441 47.6531 24.1309 44.3015C24.1197 44.283 24.1112 44.2643 24.099 44.246C21.9697 40.4934 20.7955 36.21 20.7955 31.7575C20.7955 20.3864 28.4444 10.3399 39.3962 7.32606C40.2058 7.1034 40.6815 6.26645 40.4589 5.45692C40.2367 4.64786 39.4005 4.16809 38.5897 4.39426C27.8575 7.34739 19.9572 16.3293 18.1478 27.0586C17.9732 27.0482 17.799 27.0314 17.624 27.0279L17.1536 25.7189C16.5995 24.1865 14.9577 23.4025 13.3956 23.9407L9.42623 25.3692C8.68139 25.6258 8.08514 26.1579 7.74647 26.8694C7.40662 27.584 7.36936 28.3863 7.63725 29.1192L8.10647 30.4305C7.86366 30.6372 7.62647 30.8533 7.39608 31.0786L6.14217 30.4858C5.43295 30.1432 4.63467 30.0991 3.89522 30.3635C3.15389 30.6279 2.56186 31.1671 2.23514 31.8698L0.40467 35.7138C0.0756077 36.4211 0.0399835 37.2171 0.30553 37.9542C0.572249 38.6971 1.11084 39.2882 1.81115 39.6143L3.07326 40.2147C3.04655 40.5318 3.03061 40.8497 3.02522 41.1675L1.71787 41.635ZM59.6003 62.2493C59.6003 63.389 58.6726 64.3162 57.5329 64.3162H34.7568C33.617 64.3162 32.6894 63.389 32.6894 62.2493C32.6894 61.1196 33.6015 60.2015 34.7275 60.1853H57.5622C58.6881 60.2013 59.6003 61.1193 59.6003 62.2493ZM50.8719 99.2728L46.6975 104.558L40.7113 97.99H43.3614H48.9285H51.8851L50.8719 99.2728ZM47.4079 94.9488H44.8818V74.5326H47.4079V94.9488ZM41.8408 94.9488H38.7707V74.5326H41.8408V94.9488ZM53.519 94.9488H50.4489V74.5326H53.519V94.9488ZM57.5329 71.4916H55.0396H48.9285H43.3614H37.2503H34.757C33.6172 71.4916 32.6896 70.5644 32.6896 69.4247C32.6896 68.2849 33.6172 67.3572 34.757 67.3572H57.5331C58.6729 67.3572 59.6005 68.2849 59.6005 69.4247C59.6005 70.5644 58.6726 71.4916 57.5329 71.4916ZM21.0051 44.9393C19.5165 46.4655 17.2119 46.912 15.2183 45.978C13.9977 45.3989 13.0747 44.3784 12.621 43.1046C12.1665 41.83 12.2362 40.455 12.8176 39.2285C13.7868 37.1672 15.9728 36.0504 18.1466 36.3946C18.643 39.3977 19.6089 42.2798 21.0051 44.9393ZM5.08022 43.6629C5.71819 43.4348 6.12788 42.8123 6.08569 42.1364C6.03225 41.2811 6.07608 40.4128 6.21506 39.555C6.32311 38.8875 5.97811 38.2286 5.36686 37.9382L3.20381 36.9096L4.9328 33.2782L7.09303 34.2998C7.71131 34.5925 8.44491 34.4369 8.89139 33.9227C9.46748 33.2587 10.1055 32.6777 10.7868 32.1961C11.3434 31.8016 11.5696 31.0854 11.3404 30.4427L10.5386 28.2007L14.3244 26.8387L15.1316 29.085C15.3608 29.7218 15.9892 30.1314 16.6581 30.0881C17.053 30.0635 17.4395 30.0654 17.8246 30.0825C17.7915 30.6391 17.7545 31.1948 17.7545 31.7578C17.7545 32.2736 17.7747 32.7864 17.8021 33.2981C14.5954 33.1223 11.4976 34.8867 10.0675 37.93C9.1403 39.8859 9.02991 42.086 9.75623 44.1248C10.4833 46.165 11.9603 47.7989 13.9211 48.7279C15.0454 49.256 16.2297 49.5089 17.3976 49.5089C19.2901 49.5089 21.1314 48.8353 22.5983 47.5964C23.1958 48.4832 23.8452 49.3354 24.5425 50.1529C24.359 50.3025 24.1776 50.4546 23.9844 50.5931C23.4332 50.988 23.2105 51.7015 23.4386 52.3406L24.2439 54.5934L20.451 55.9464L19.6485 53.7007C19.4198 53.0622 18.7956 52.6577 18.1197 52.6952C17.2757 52.7498 16.4085 52.706 15.539 52.5658C14.8661 52.4606 14.2098 52.8063 13.9211 53.4194L12.9067 55.5778L9.27061 53.8589L10.2887 51.6827C10.5763 51.0675 10.4212 50.3362 9.90928 49.8907C9.27084 49.3359 8.6917 48.6986 8.18803 47.9979C7.79311 47.4478 7.08155 47.2239 6.44123 47.4532L4.19194 48.2573L2.83889 44.4644L5.08022 43.6629Z" fill="#8C8C8C" fill-opacity="1"/>
<path d="M50.5027 0.295299C48.7679 -0.524311 46.6866 0.216783 45.8658 1.95303L43.3493 7.27241C42.9514 8.11287 42.905 9.05834 43.2181 9.93397C43.5317 10.8101 44.1673 11.5115 45.0076 11.9088L47.1333 12.915C47.0597 13.6146 47.0241 14.313 47.0265 15.0063L44.8158 15.7976C43.0086 16.4437 42.0636 18.4401 42.7102 20.2486L44.6909 25.789C45.0038 26.6644 45.6394 27.3665 46.4804 27.7645C47.3201 28.1618 48.2658 28.2094 49.1424 27.8953L51.3526 27.1048C51.7908 27.6429 52.2612 28.1601 52.7621 28.6537L51.7559 30.78C50.9351 32.5148 51.6788 34.5949 53.4141 35.4169L58.7328 37.9333C59.5737 38.3313 60.5194 38.3777 61.3948 38.0646C62.2709 37.7515 62.9717 37.1154 63.3697 36.2751L64.3758 34.1494C65.0754 34.223 65.78 34.2508 66.4672 34.2562L67.2577 36.4676C67.7668 37.8888 69.1102 38.7762 70.5399 38.7762C70.9283 38.7762 71.3227 38.7108 71.7087 38.573L77.2496 36.5915C79.0568 35.9447 80.0018 33.9485 79.3557 32.1398L78.5651 29.9297C79.1026 29.4914 79.6201 29.021 80.1141 28.5201L82.2399 29.5263C83.0808 29.9236 84.0265 29.9712 84.9019 29.6576C85.778 29.344 86.4795 28.7083 86.8768 27.8681L89.3932 22.5494C90.214 20.8139 89.4704 18.7338 87.7355 17.9126L85.6093 16.9064C85.6829 16.2068 85.7185 15.5088 85.7161 14.8151L87.9275 14.0245C89.7347 13.3776 90.6797 11.3808 90.0336 9.5735L88.0515 4.03194C87.4041 2.22467 85.4054 1.28202 83.6004 1.92631L81.3898 2.71686C80.952 2.17944 80.4811 1.66194 79.9803 1.16788L80.9865 -0.958373C81.3844 -1.79884 81.4308 -2.74431 81.1177 -3.61994C80.8041 -4.49603 80.1685 -5.19751 79.3283 -5.59478L74.0105 -8.1108C73.1696 -8.50994 72.2239 -8.55564 71.3485 -8.24275C70.4731 -7.92962 69.7716 -7.29423 69.3736 -6.45376L68.3675 -4.32751C67.6679 -4.40064 66.9884 -4.4297 66.2757 -4.43439L65.4858 -6.64501C65.1727 -7.5204 64.5373 -8.22259 63.6964 -8.62056C62.8566 -9.01736 61.9109 -9.06494 61.0344 -8.75134L55.4935 -6.76994C53.6862 -6.12306 52.7412 -4.12619 53.3879 -2.31892L54.1784 -0.108295C53.641 0.329986 53.123 0.800376 52.6287 1.30124L50.5027 0.295299ZM54.1252 4.15405C54.9561 3.20858 55.879 2.36975 56.8686 1.66194C57.421 1.26631 57.6444 0.55311 57.4149 -0.0867329L56.2508 -3.34267C56.1687 -3.57142 56.2887 -3.82501 56.5175 -3.90681L62.0579 -5.88751C62.2847 -5.97072 62.5402 -5.84955 62.6215 -5.6208L63.7857 -2.36486C64.0144 -1.72572 64.6278 -1.3083 65.318 -1.35986C66.529 -1.43884 67.7757 -1.3758 69.0188 -1.17166C69.6893 -1.06009 70.3505 -1.40814 70.6402 -2.0215L72.1222 -5.15275C72.1868 -5.28939 72.2937 -5.35103 72.3722 -5.37915C72.4508 -5.40775 72.5731 -5.4279 72.709 -5.36251L78.0277 -2.84603C78.1643 -2.78134 78.2267 -2.67447 78.2546 -2.59595C78.2825 -2.51744 78.3026 -2.39509 78.2379 -2.25916L76.7567 0.872095C76.4663 1.48569 76.6177 2.21741 77.1279 2.66459C78.0741 3.49616 78.9127 4.41913 79.6201 5.40749C80.0157 5.95991 80.7289 6.18561 81.3687 5.95452L84.6247 4.79038C84.8522 4.70717 85.107 4.82834 85.1883 5.05639L87.1697 10.5973C87.2518 10.826 87.1318 11.0796 86.903 11.1609L83.6471 12.3251C83.0075 12.5543 82.5971 13.1791 82.6421 13.8574C82.7218 15.0696 82.6587 16.3151 82.4539 17.5582C82.3435 18.2276 82.6904 18.8892 83.3037 19.1796L86.435 20.6608C86.6548 20.7647 86.7486 21.0286 86.6447 21.2482L84.1283 26.5669C84.0636 26.7035 83.9567 26.7658 83.8782 26.7937C83.7992 26.8223 83.678 26.8418 83.5409 26.7771L80.4101 25.2951C79.7984 25.0052 79.0648 25.1569 78.6169 25.6664C77.7861 26.613 76.8636 27.4519 75.8747 28.1592C75.3223 28.5548 75.099 29.268 75.3277 29.9079L76.4918 33.1633C76.5739 33.3926 76.4543 33.6457 76.2258 33.727L70.685 35.7084C70.4534 35.7909 70.2022 35.6705 70.1213 35.4424L68.9572 32.1865C68.7397 31.579 68.1643 31.178 67.5258 31.178C67.4926 31.178 67.4588 31.1791 67.4248 31.1815C66.2119 31.2593 64.966 31.1981 63.724 30.9933C63.0528 30.8857 62.393 31.2302 62.1026 31.8431L60.6214 34.9739C60.5567 35.1105 60.4498 35.1729 60.3713 35.2008C60.2935 35.2282 60.1711 35.2488 60.034 35.1841L54.7158 32.6676C54.4955 32.5638 54.4011 32.2999 54.5049 32.0803L55.9861 28.949C56.2765 28.3355 56.1251 27.6037 55.6149 27.1558C54.6694 26.3262 53.8313 25.4037 53.1228 24.4137C52.7279 23.8619 52.014 23.6386 51.3741 23.8673L48.1186 25.0315C47.9761 25.0819 47.855 25.0505 47.7814 25.0148C47.7059 24.9797 47.6056 24.9073 47.5545 24.7648L45.5738 19.2244C45.4918 18.9951 45.6113 18.742 45.8398 18.6602L49.0958 17.4954C49.7354 17.2666 50.1458 16.6413 50.1008 15.9635C50.0211 14.7513 50.0841 13.5058 50.289 12.2632C50.3993 11.5938 50.0525 10.9322 49.4391 10.6418L46.3083 9.15983C46.1717 9.09514 46.1093 8.98827 46.0815 8.90975C46.0536 8.83123 46.0334 8.70889 46.0981 8.57295L48.6146 3.25358C48.7191 3.03327 48.984 2.94045 49.2019 3.04381L52.3327 4.52506C52.947 4.81522 53.6769 4.66428 54.1252 4.15405Z" fill="#8C8C8C" fill-opacity="1"/>
<path d="M61.8129 24.5454C63.2597 25.2302 64.8075 25.5747 66.3626 25.5747C67.5731 25.5747 68.7877 25.3657 69.9607 24.9464C72.6424 23.9871 74.7895 22.042 76.0071 19.4695C78.5208 14.1567 76.2429 7.78895 70.9305 5.27528C68.3576 4.05817 65.4652 3.9152 62.7827 4.87497C60.1017 5.83356 57.9546 7.77888 56.737 10.3511C55.5195 12.9241 55.3774 15.8179 56.336 18.499C57.2953 21.1807 59.2406 23.3278 61.8129 24.5454ZM59.4858 11.6522C60.356 9.81395 61.8907 8.42411 63.8074 7.73856C64.646 7.43809 65.5144 7.28903 66.3792 7.28903C67.4904 7.28903 68.5964 7.53559 69.63 8.02427C73.4271 9.82098 75.0546 14.3718 73.2584 18.169C71.4621 21.9661 66.912 23.5936 63.1137 21.7968C59.3166 19.9999 57.6891 15.4493 59.4858 11.6522Z" fill="#8C8C8C" fill-opacity="1"/>
</g>
<defs>
<clipPath id="clip0_168_500">
<rect width="90" height="120" fill="white" transform="translate(0 -10.2642)"/>
</clipPath>
</defs>
</svg>
