<svg width="51" height="51" viewBox="0 0 51 51" fill="none" xmlns="http://www.w3.org/2000/svg">
<g clip-path="url(#clip0_268_1926)">
<path d="M31.1061 1.3416C29.5005 1.3416 27.9607 1.97929 26.8253 3.11443C25.6899 4.24956 25.0518 5.78919 25.0514 7.39473C25.0523 8.20082 25.2143 8.99861 25.5277 9.74129C25.841 10.484 26.2996 11.1566 26.8764 11.7197H12.0779V26.5072C11.5138 25.9327 10.8407 25.4765 10.098 25.1653C9.35539 24.854 8.55814 24.6941 7.75293 24.6947C6.14767 24.6947 4.60811 25.3322 3.47272 26.467C2.33734 27.6018 1.69907 29.141 1.69824 30.7463C1.69824 32.3521 2.33615 33.8921 3.47162 35.0276C4.60709 36.1631 6.14713 36.801 7.75293 36.801C8.55925 36.7996 9.35717 36.6372 10.0999 36.3232C10.8426 36.0093 11.5151 35.5502 12.0779 34.9729V49.7744H26.8764C26.8379 49.7385 26.7999 49.702 26.7623 49.665C26.6216 49.5213 26.4881 49.3706 26.3623 49.2135C26.2375 49.0548 26.1207 48.89 26.0123 48.7197C25.9031 48.5504 25.8025 48.3757 25.7107 48.1963C25.6193 48.0161 25.5369 47.8315 25.4639 47.6432C25.3902 47.4548 25.3261 47.2629 25.2717 47.0682C25.2182 46.8746 25.1744 46.6786 25.1404 46.4807C25.1054 46.2815 25.0804 46.0807 25.0654 45.8791C25.0551 45.7361 25.0499 45.5928 25.0498 45.4494C25.0501 45.2475 25.0606 45.0456 25.0811 44.8447C25.1018 44.6444 25.1326 44.4452 25.1732 44.2479C25.2128 44.0491 25.2624 43.8525 25.3217 43.6588C25.381 43.4664 25.4498 43.2771 25.5279 43.0916C25.6068 42.9061 25.695 42.7246 25.792 42.5479C25.8891 42.3708 25.9949 42.1987 26.1092 42.0322C26.2225 41.8659 26.344 41.7052 26.4732 41.551C26.6042 41.3957 26.7429 41.247 26.8889 41.1057C27.0332 40.9654 27.1844 40.8324 27.342 40.7072C27.5006 40.5819 27.6654 40.4645 27.8357 40.3557C28.0051 40.2465 28.1798 40.1458 28.3592 40.0541C28.5398 39.9626 28.725 39.8802 28.9139 39.8072C29.1017 39.7337 29.2931 39.6695 29.4873 39.615C29.6808 39.5616 29.8769 39.5178 30.0748 39.4838C30.2739 39.4488 30.4747 39.4237 30.6764 39.4088C30.8194 39.3985 30.9627 39.3933 31.1061 39.3932C31.308 39.3935 31.5098 39.4039 31.7107 39.4244C31.9116 39.4446 32.1113 39.4749 32.3092 39.515C32.5074 39.5547 32.7034 39.6042 32.8967 39.6635C33.0891 39.7228 33.2784 39.7916 33.4639 39.8697C33.6494 39.9486 33.8309 40.0368 34.0076 40.1338C34.1852 40.2308 34.3578 40.3367 34.5248 40.451C34.6907 40.5648 34.8508 40.6868 35.0045 40.8166C35.1602 40.946 35.3094 41.0832 35.4514 41.2275C35.5917 41.3729 35.7247 41.5252 35.8498 41.6838C35.9752 41.8424 36.0925 42.0072 36.2014 42.1775C36.31 42.3469 36.4101 42.5216 36.5014 42.701C36.5929 42.8816 36.6753 43.0668 36.7482 43.2557C36.8218 43.4435 36.886 43.6349 36.9404 43.8291C36.9944 44.0226 37.0387 44.2187 37.0732 44.4166C37.1077 44.6158 37.1323 44.8165 37.1467 45.0182C37.157 45.1612 37.1622 45.3045 37.1623 45.4479C37.162 45.6498 37.1516 45.8516 37.1311 46.0525C37.1108 46.2534 37.0806 46.4531 37.0404 46.651C37.0008 46.8492 36.9512 47.0452 36.892 47.2385C36.8327 47.4309 36.7639 47.6201 36.6857 47.8057C36.6063 47.9912 36.5177 48.1727 36.4201 48.3494C36.3236 48.527 36.2183 48.6996 36.1045 48.8666C35.9907 49.0325 35.8686 49.1926 35.7389 49.3463C35.613 49.4948 35.48 49.6372 35.3404 49.7729H50.1373V34.9713C50.1013 35.0098 50.0649 35.0478 50.0279 35.0854C49.8837 35.2267 49.7325 35.3607 49.5748 35.4869C49.4162 35.6123 49.2514 35.7296 49.0811 35.8385C48.9117 35.9471 48.737 36.0472 48.5576 36.1385C48.3775 36.2299 48.1929 36.3123 48.0045 36.3854C47.8162 36.4595 47.6243 36.5242 47.4295 36.5791C47.236 36.6326 47.0399 36.6764 46.842 36.7104C46.6429 36.7454 46.4421 36.7704 46.2404 36.7854C46.0974 36.7956 45.9541 36.8009 45.8107 36.801C45.6088 36.8007 45.407 36.7902 45.2061 36.7697C45.0052 36.7495 44.8055 36.7193 44.6076 36.6791C44.4094 36.6395 44.2134 36.5899 44.0201 36.5307C43.8277 36.4714 43.6384 36.4026 43.4529 36.3244C43.2674 36.245 43.0859 36.1563 42.9092 36.0588C42.7316 35.9623 42.559 35.8569 42.392 35.7432C42.2261 35.6293 42.066 35.5073 41.9123 35.3775C41.7565 35.2466 41.6073 35.1079 41.4654 34.9619C41.3252 34.8176 41.1922 34.6664 41.067 34.5088C40.9417 34.3507 40.8243 34.1864 40.7154 34.0166C40.6068 33.8472 40.5067 33.6725 40.4154 33.4932C40.3239 33.3125 40.2415 33.1274 40.1686 32.9385C40.0949 32.7501 40.0308 32.5582 39.9764 32.3635C39.9224 32.17 39.8781 31.9739 39.8436 31.776C39.8091 31.5768 39.7845 31.376 39.7701 31.1744C39.7599 31.0319 39.7547 30.8891 39.7545 30.7463C39.7548 30.5443 39.7652 30.3425 39.7857 30.1416C39.8065 29.9407 39.8372 29.741 39.8779 29.5432C39.9176 29.345 39.9671 29.1489 40.0264 28.9557C40.0856 28.7628 40.1544 28.5729 40.2326 28.3869C40.311 28.2014 40.3986 28.0199 40.4951 27.8432C40.5927 27.6661 40.6991 27.494 40.8139 27.3275C40.9272 27.1612 41.0487 27.0006 41.1779 26.8463C41.3089 26.691 41.4476 26.5423 41.5936 26.401C41.7379 26.2607 41.8891 26.1277 42.0467 26.0025C42.2053 25.8772 42.3701 25.7598 42.5404 25.651C42.7098 25.5423 42.8845 25.4422 43.0639 25.351C43.244 25.2595 43.4286 25.1771 43.617 25.1041C43.8053 25.0299 43.9972 24.9653 44.192 24.9104C44.3855 24.8569 44.5816 24.8131 44.7795 24.7791C44.9786 24.7441 45.1794 24.719 45.3811 24.7041C45.5241 24.6938 45.6674 24.6886 45.8107 24.6885C46.0127 24.6888 46.2145 24.6992 46.4154 24.7197C46.6163 24.7399 46.816 24.7702 47.0139 24.8104C47.2121 24.85 47.4081 24.8995 47.6014 24.9588C47.7937 25.0181 47.983 25.0869 48.1686 25.165C48.3541 25.244 48.5356 25.3321 48.7123 25.4291C48.8899 25.5261 49.0625 25.632 49.2295 25.7463C49.3954 25.8601 49.5555 25.9821 49.7092 26.1119C49.8575 26.2353 49.9999 26.3656 50.1357 26.5025V11.7182H35.3389C35.9149 11.155 36.3728 10.4825 36.6856 9.74008C36.9984 8.99769 37.16 8.20034 37.1607 7.39473C37.1612 6.59935 37.0048 5.81169 36.7008 5.07674C36.3967 4.34179 35.9507 3.67396 35.3885 3.1114C34.8262 2.54883 34.1586 2.10257 33.4238 1.7981C32.689 1.49363 31.9014 1.33691 31.1061 1.33691V1.3416Z" stroke="#0094F2" stroke-width="2" stroke-linecap="round" stroke-linejoin="round"/>
</g>
<defs>
<clipPath id="clip0_268_1926">
<rect width="50" height="50" fill="white" transform="translate(0.916992 0.555664)"/>
</clipPath>
</defs>
</svg>
