<svg width="170" height="146" viewBox="0 0 170 146" fill="none" xmlns="http://www.w3.org/2000/svg">
<path d="M138.425 75.517V40.5047C138.425 26.8779 127.337 15.8327 113.661 15.8327H103.283C89.606 15.8327 78.5182 26.8779 78.5182 40.5047V50.8473C78.5182 64.4741 67.4304 75.5193 53.7537 75.5193H43.377C29.6991 75.5193 18.6113 64.4741 18.6113 50.8473V15.835" stroke="#017B32" stroke-opacity="0.12" stroke-width="31" stroke-linecap="round" stroke-linejoin="round"/>
<path d="M86.1005 17.6732C86.1005 17.6732 89.903 15.779 93.2288 17.1994C96.5546 18.6197 94.8138 20.3563 97.3476 21.7766C99.8815 23.197 101.308 22.8819 103.05 25.4062C104.792 27.9306 103.05 29.826 104.476 32.0352C105.902 34.2445 107.17 34.4021 107.011 37.4038C106.852 40.4055 105.11 43.2392 106.061 45.9234C107.012 48.6077 108.595 49.3955 107.487 53.0251C106.378 56.6547 104.635 54.9193 104.792 57.9175C104.949 60.9157 106.693 61.3895 106.534 65.0191C106.375 68.6488 95.4464 79.0649 79.1304 80.4911C62.8144 81.9173 46.0228 79.6963 43.0086 77.487C39.9945 75.2778 40.0027 75.7516 36.2013 72.4383C32.4 69.1249 31.9232 68.1773 32.8744 64.5465C33.8256 60.9157 33.9884 59.0169 32.0825 57.1285C30.1765 55.2402 29.7056 50.6571 32.2406 48.1327C34.7757 45.6083 35.5676 43.8717 36.042 39.7683C36.5164 35.6648 38.577 31.5614 42.6959 30.7725C46.8147 29.9835 48.3985 29.1946 50.4579 26.1952C52.5173 23.1958 54.2593 20.04 58.2199 19.2511C62.1806 18.4621 62.6551 18.936 65.1901 17.3581C67.7251 15.7802 68.3589 14.0436 71.3683 14.0436C74.3778 14.0436 74.3778 15.6215 77.071 14.9901C79.7641 14.3587 81.1898 14.0436 83.0911 14.675C84.9923 15.3064 86.1005 17.6732 86.1005 17.6732Z" fill="black"/>
<path d="M66.6477 59.2001C66.6477 59.2001 63.8526 61.9474 60.3863 63.1682C56.92 64.389 46.7471 68.5146 42.3869 72.1909C38.0268 75.8672 32.5467 80.8786 28.1877 88.0071C23.8288 95.1356 15.5536 105.163 10.1872 110.396C4.82079 115.629 -0.656925 128.218 1.35446 135.123C3.36584 142.029 8.61747 145.482 13.0948 145.705C17.5721 145.928 21.5913 145.482 26.2865 141.138C30.9817 136.794 34.933 130.779 37.9518 125.433C40.9706 120.087 43.1695 113.738 43.1695 113.738L48.8662 107.17C48.8662 107.17 50.32 118.532 51.3263 125.994C52.3326 133.457 52.1088 144.373 52.1088 144.373H105.996C105.996 144.373 104.877 134.237 104.429 125.883C103.982 117.529 103.983 103.494 103.983 103.494C103.983 103.494 113.375 105.499 116.952 106.948C120.53 108.396 125.411 115.896 127.983 119.126C130.554 122.356 133.909 127.516 138.045 133.977C142.182 140.438 150.12 143.407 155.113 143.036C160.595 142.629 166.033 140.363 168.493 134.571C170.953 128.779 167.486 119.983 163.015 113.63C158.543 107.278 155.188 100.153 147.921 95.0294C140.653 89.9059 137.194 87.0092 134.176 81.8916C131.158 76.774 125.567 72.5352 119.194 69.6373C112.822 66.7394 109.58 63.956 101.195 62.2847C92.8098 60.6135 89.4922 61.4678 86.8471 59.2025L66.6477 59.2001Z" fill="#017B32" fill-opacity="0.7"/>
<path d="M46.2998 81.8484C46.2998 81.8484 49.3561 75.6851 49.9524 75.4622C50.5487 75.2393 59.4177 74.2741 66.4992 77.0226C73.5806 79.771 78.872 85.0427 78.872 85.0427C78.872 85.0427 85.5493 78.9576 92.9588 75.7609C99.6665 72.8654 102.872 72.5678 103.394 72.8654C103.917 73.163 106.674 77.9889 106.972 79.6963C107.269 81.4038 77.6854 91.1337 77.6854 91.1337L46.2998 81.8484Z" fill="#F6F0D8"/>
<path d="M104.726 78.7522C103.842 78.7522 103.842 80.0838 104.726 80.0838C105.611 80.0838 105.611 78.7522 104.726 78.7522ZM104.726 75.6454C105.333 75.6454 105.092 75.3875 104.472 74.3616C103.798 74.6417 103.998 75.6454 104.726 75.6454ZM102.499 76.5324C101.615 76.5324 101.615 77.864 102.499 77.864C103.384 77.864 103.384 76.5324 102.499 76.5324ZM103.163 72.7966C102.901 72.7557 102.461 72.7639 101.84 72.8538C101.953 73.6462 103.12 73.596 103.163 72.7966ZM100.271 78.7522C99.3867 78.7522 99.3867 80.0838 100.271 80.0838C101.156 80.0838 101.156 78.7522 100.271 78.7522ZM100.271 74.3138C99.3867 74.3138 99.3867 75.6454 100.271 75.6454C101.156 75.6454 101.156 74.3138 100.271 74.3138ZM102.499 80.9708C101.719 80.9708 101.574 82.0877 102.335 82.2802C103.026 81.9896 103.167 82.0071 103.167 81.6372C103.167 81.4606 103.097 81.2913 102.971 81.1664C102.846 81.0414 102.676 80.9711 102.499 80.9708ZM95.8173 78.7522C94.9328 78.7522 94.9328 80.0838 95.8173 80.0838C96.7017 80.0838 96.7006 78.7522 95.8173 78.7522ZM96.2156 74.448C95.0921 74.8646 95.1484 74.8238 95.1484 74.979C95.1484 75.8601 96.485 75.8601 96.485 74.979C96.4848 74.8757 96.4604 74.7738 96.4136 74.6816C96.3668 74.5894 96.299 74.5094 96.2156 74.448ZM98.0442 76.5324C97.1598 76.5324 97.1598 77.864 98.0442 77.864C98.9287 77.864 98.9287 76.5324 98.0442 76.5324ZM93.5892 76.5324C92.7047 76.5324 92.7047 77.864 93.5892 77.864C94.4736 77.864 94.4736 76.5324 93.5892 76.5324ZM91.3622 78.7522C90.4743 78.7522 90.4813 80.0838 91.3622 80.0838C92.2432 80.0838 92.2455 78.7522 91.3622 78.7522ZM95.8173 83.1905C94.9328 83.1905 94.9328 84.521 95.8173 84.521C96.7017 84.521 96.7006 83.1905 95.8173 83.1905ZM92.9578 85.8655C93.6044 85.6321 94.3799 85.4092 93.5892 85.4092C93.4492 85.4095 93.3128 85.4538 93.1995 85.5357C93.0861 85.6176 93.0016 85.733 92.9578 85.8655ZM98.0442 80.9708C97.1598 80.9708 97.1598 82.3024 98.0442 82.3024C98.9287 82.3024 98.9287 80.9708 98.0442 80.9708ZM93.5892 80.9708C92.7047 80.9708 92.7047 82.3024 93.5892 82.3024C94.4736 82.3024 94.4736 80.9708 93.5892 80.9708ZM91.3622 83.1905C90.4743 83.1905 90.4813 84.521 91.3622 84.521C92.2432 84.521 92.2455 83.1905 91.3622 83.1905ZM87.2048 78.8245C86.8615 79.0393 86.5253 79.254 86.2407 79.4396C86.2699 80.3067 87.5749 80.2845 87.5749 79.4174C87.5747 79.294 87.5399 79.1732 87.4745 79.0685C87.4091 78.9637 87.3157 78.8792 87.2048 78.8245ZM89.7913 77.312C88.901 77.7963 88.7042 77.864 89.1341 77.864C89.2915 77.8641 89.4437 77.8087 89.564 77.7076C89.6843 77.6066 89.7648 77.4665 89.7913 77.312ZM86.2453 88.2335L87.3898 87.8355C87.3018 87.7428 87.1888 87.6773 87.0643 87.6471C86.9398 87.6169 86.8092 87.6232 86.6882 87.6653C86.5673 87.7073 86.4611 87.7834 86.3825 87.8842C86.3039 87.985 86.2563 88.1063 86.2453 88.2335ZM86.9072 83.1905C86.0228 83.1905 86.0228 84.521 86.9072 84.521C87.7917 84.521 87.7905 83.1905 86.9072 83.1905ZM89.1341 85.4092C88.2497 85.4092 88.2497 86.7408 89.1341 86.7408C90.0186 86.7408 90.0186 85.4092 89.1341 85.4092ZM84.6791 85.4092C83.7958 85.4092 83.7958 86.7408 84.6791 86.7408C85.5624 86.7408 85.5635 85.4092 84.6791 85.4092ZM89.1341 80.9708C88.2497 80.9708 88.2497 82.3024 89.1341 82.3024C90.0186 82.3024 90.0186 80.9708 89.1341 80.9708ZM84.6791 80.9708C83.7958 80.9708 83.7958 82.3024 84.6791 82.3024C85.5624 82.3024 85.5635 80.9708 84.6791 80.9708ZM82.4522 87.6289C81.5677 87.6289 81.5677 88.9594 82.4522 88.9594C83.3366 88.9594 83.3366 87.6289 82.4522 87.6289ZM82.4522 83.1905C81.5677 83.1905 81.5677 84.521 82.4522 84.521C83.3366 84.521 83.3366 83.1905 82.4522 83.1905ZM77.9971 87.6289C77.1127 87.6289 77.1127 88.9594 77.9971 88.9594C78.8816 88.9594 78.8816 87.6289 77.9971 87.6289ZM77.9971 84.521C78.3884 84.521 78.3486 84.521 77.3563 83.6761C77.3278 83.7748 77.3227 83.8788 77.3415 83.9799C77.3603 84.0809 77.4024 84.1762 77.4646 84.2582C77.5268 84.3402 77.6073 84.4066 77.6997 84.4522C77.7922 84.4979 77.894 84.5214 77.9971 84.521ZM80.2241 85.4092C79.3408 85.4092 79.3408 86.7408 80.2241 86.7408C81.1073 86.7408 81.1085 85.4092 80.2241 85.4092ZM75.7702 85.4092C74.8858 85.4092 74.8858 86.7408 75.7702 86.7408C76.6547 86.7408 76.6535 85.4092 75.7702 85.4092ZM75.6378 82.2896C75.4891 82.1729 75.3368 82.0561 75.1798 81.9394C75.2249 82.0283 75.2895 82.1059 75.3688 82.1665C75.4481 82.2271 75.54 82.2691 75.6378 82.2896ZM73.5421 87.6289C72.6495 87.6289 72.6752 88.9594 73.5421 88.9594C74.409 88.9594 74.4266 87.6289 73.5421 87.6289ZM73.5421 83.1905C72.6495 83.1905 72.6741 84.521 73.5421 84.521C74.4102 84.521 74.4266 83.1905 73.5421 83.1905ZM79.5575 90.5069L80.7512 90.1066C80.6664 89.9975 80.5497 89.9174 80.4171 89.8774C80.2845 89.8374 80.1427 89.8396 80.0114 89.8836C79.8801 89.9277 79.7659 90.0114 79.6845 90.1231C79.6032 90.2348 79.5588 90.3689 79.5575 90.5069ZM75.1165 90.3727L76.3922 90.7509C76.732 89.8639 75.3169 89.4449 75.1165 90.3727ZM69.0871 78.7522C68.2026 78.7522 68.2026 80.0838 69.0871 80.0838C69.9715 80.0838 69.9715 78.7522 69.0871 78.7522ZM66.8601 77.864C66.9966 77.8638 67.1297 77.8218 67.2413 77.7437C67.353 77.6657 67.4379 77.5553 67.4845 77.4275C67.16 77.2886 66.8309 77.1521 66.4982 77.0226C65.9417 76.8066 66.1538 77.864 66.8601 77.864ZM64.8921 78.8047C63.6843 78.2958 63.6843 80.5401 64.8921 80.0313C65.0129 79.9801 65.1159 79.8947 65.1883 79.7856C65.2607 79.6766 65.2993 79.5487 65.2993 79.418C65.2993 79.2872 65.2607 79.1594 65.1883 79.0503C65.1159 78.9412 65.0129 78.8558 64.8921 78.8047ZM68.4287 88.3945C69.4104 88.6851 69.756 88.9267 69.756 88.2942C69.756 87.3488 68.2858 87.4527 68.4287 88.3945ZM69.0871 83.1905C68.2026 83.1905 68.2026 84.521 69.0871 84.521C69.9715 84.521 69.9715 83.1905 69.0871 83.1905ZM71.3152 85.4092C70.4307 85.4092 70.4307 86.7408 71.3152 86.7408C72.1996 86.7408 72.1985 85.4092 71.3152 85.4092ZM66.8601 85.4092C65.9757 85.4092 65.9757 86.7408 66.8601 86.7408C67.7446 86.7408 67.7434 85.4092 66.8601 85.4092ZM71.3152 80.9708C70.4307 80.9708 70.4307 82.3024 71.3152 82.3024C72.1996 82.3024 72.1985 80.9708 71.3152 80.9708ZM66.8601 80.9708C65.9757 80.9708 65.9757 82.3024 66.8601 82.3024C67.7446 82.3024 67.7434 80.9708 66.8601 80.9708ZM64.8921 83.2419C63.6843 82.7342 63.6843 84.9773 64.8921 84.4697C65.0128 84.4183 65.1157 84.3327 65.188 84.2236C65.2603 84.1144 65.2989 83.9866 65.2989 83.8558C65.2989 83.725 65.2603 83.5971 65.188 83.488C65.1157 83.3788 65.0128 83.2933 64.8921 83.2419ZM60.177 78.7522C59.2926 78.7522 59.2926 80.0838 60.177 80.0838C61.0615 80.0838 61.0615 78.7522 60.177 78.7522ZM60.5624 75.5217C59.0173 75.2964 60.0224 75.6454 60.177 75.6454C60.3153 75.6452 60.45 75.602 60.5624 75.5217ZM62.4051 76.5324C61.5207 76.5324 61.5207 77.864 62.4051 77.864C63.2895 77.864 63.2895 76.5324 62.4051 76.5324ZM57.9501 76.5324C57.0656 76.5324 57.0656 77.864 57.9501 77.864C58.8345 77.864 58.8345 76.5324 57.9501 76.5324ZM60.177 83.1905C59.2926 83.1905 59.2926 84.521 60.177 84.521C61.0615 84.521 61.0615 83.1905 60.177 83.1905ZM62.4051 85.4092C62.2837 85.4096 62.1647 85.4429 62.0608 85.5055C61.9569 85.5681 61.8721 85.6576 61.8153 85.7645C61.7585 85.8714 61.732 85.9917 61.7385 86.1124C61.745 86.2332 61.7843 86.35 61.8522 86.4502L62.6628 86.6836C63.3329 86.4105 63.1314 85.4092 62.4051 85.4092ZM62.4051 80.9708C61.5207 80.9708 61.5207 82.3024 62.4051 82.3024C63.2895 82.3024 63.2895 80.9708 62.4051 80.9708ZM57.9501 80.9708C57.0656 80.9708 57.0656 82.3024 57.9501 82.3024C58.8345 82.3024 58.8345 80.9708 57.9501 80.9708ZM55.722 83.1905C54.8387 83.1905 54.8387 84.521 55.722 84.521C56.6052 84.521 56.6064 83.1905 55.722 83.1905ZM51.2681 78.7522C50.3837 78.7522 50.3837 80.0838 51.2681 80.0838C52.1526 80.0838 52.1514 78.7522 51.2681 78.7522ZM51.889 75.2194C51.4204 75.2544 51.0174 75.2941 50.7035 75.3361C50.7693 75.4406 50.863 75.5246 50.9741 75.5789C51.0852 75.6332 51.2093 75.6556 51.3325 75.6434C51.4557 75.6313 51.573 75.5852 51.6713 75.5103C51.7696 75.4354 51.845 75.3347 51.889 75.2194ZM56.3628 75.1459C55.9352 75.1307 55.5041 75.1214 55.0648 75.1179C55.0958 75.2646 55.1757 75.3965 55.2915 75.4922C55.4073 75.5879 55.5522 75.6418 55.7026 75.645C55.853 75.6483 56.0001 75.6007 56.12 75.5101C56.2399 75.4195 56.3254 75.2911 56.3628 75.1459ZM53.495 76.5324C52.6106 76.5324 52.6106 77.864 53.495 77.864C54.3795 77.864 54.3795 76.5324 53.495 76.5324ZM49.1361 76.5429C48.7026 77.2548 48.1989 77.864 49.04 77.864C49.8811 77.864 49.9514 76.6608 49.1361 76.5429ZM51.2681 83.1905C50.7199 83.1905 51.1791 83.2921 51.8199 83.4823C51.759 83.3923 51.6768 83.3187 51.5806 83.2678C51.4843 83.2169 51.377 83.1904 51.2681 83.1905ZM53.495 80.9708C52.6106 80.9708 52.6106 82.3024 53.495 82.3024C54.3795 82.3024 54.3795 80.9708 53.495 80.9708ZM49.04 80.9708C48.1556 80.9708 48.1556 82.3024 49.04 82.3024C49.9244 82.3024 49.9198 80.9708 49.04 80.9708ZM55.722 80.0838C56.6064 80.0838 56.6064 78.7522 55.722 78.7522C54.8375 78.7522 54.8399 80.0838 55.722 80.0838ZM47.4597 79.5726L47.3145 79.8527C47.3848 79.7723 47.4346 79.6763 47.4597 79.5726Z" fill="#1D1D1B"/>
<path d="M45.1459 90.6446C45.1459 90.6446 43.9112 83.5115 44.2404 83.019C44.5695 82.5265 53.6225 81.7072 62.3475 82.691C71.0725 83.6749 75.845 87.7748 76.5034 87.9429C77.1617 88.1109 79.3008 88.5988 81.9354 87.4515C84.57 86.3043 89.8357 82.6957 97.5719 81.2193C105.308 79.743 109.429 80.0698 109.429 80.0698L110.582 87.2029L114.532 118.115C114.532 118.115 108.607 121.067 102.517 122.707C96.4262 124.346 92.3109 125.823 89.1832 127.134C86.0554 128.446 81.7761 128.768 78.1551 128.768C74.5341 128.768 63.3409 126.965 58.2404 126.637C53.1399 126.309 49.6724 124.84 49.6724 124.84C49.6724 124.84 47.3681 112.54 46.5446 104.833C45.7258 97.1604 45.1459 90.6446 45.1459 90.6446Z" fill="#129ED8"/>
<path d="M21.0322 107.374C21.0322 107.374 25.718 101.552 29.92 97.8619C34.122 94.1716 38.4798 92.205 41.4424 91.3846C44.405 90.5641 45.1466 90.647 45.1466 90.647L45.7229 96.2221C45.7229 96.2221 49.1799 95.4845 53.212 94.992C57.2442 94.4995 61.8538 94.7469 61.9358 97.3705C62.0178 99.9941 58.7261 99.9124 57.0802 100.159C57.0802 100.159 63.7469 99.092 63.6649 102.782C63.5829 106.473 57.9857 105.734 56.0106 105.98C56.0106 105.98 62.183 105.324 62.1022 108.522C62.0213 111.72 57.6577 111.146 55.1906 111.473C55.1906 111.473 60.0463 110.408 60.2115 113.195C60.3766 115.982 56.2613 116.393 54.2851 116.639C52.3088 116.885 51.6516 117.623 47.6195 118.197C43.5874 118.771 42.4335 120.083 41.364 121.149C40.2944 122.214 37.9902 125.33 37.9902 125.33C37.9902 125.33 32.9693 124.921 27.2901 119.017C21.6109 113.114 21.0322 107.374 21.0322 107.374Z" fill="#DF6D59"/>
<path d="M45.7232 96.2221C43.8321 96.622 41.9637 97.1218 40.126 97.7194M57.4717 100.178C53.7675 100.363 50.1255 100.855 47.9653 101.717M57.5349 95.013C55.8059 95.8124 55.2506 98.8877 56.7325 99.8097M59.9411 100.487C58.5822 101.654 58.3971 104.36 59.3847 105.221M57.1624 105.959C53.9526 106.083 50.1255 106.698 47.9653 107.251M57.3475 111.433C54.2811 111.574 51.2282 111.924 48.2102 112.483M58.5822 106.452C57.1624 107.127 56.6071 110.08 58.1499 110.695M56.6071 112.17C55.2494 113.523 56.0519 115.245 56.6071 115.983" stroke="#AB433C" stroke-linecap="round" stroke-linejoin="round"/>
<path d="M110.578 87.203L110.989 90.7287C110.989 90.7287 106.462 91.3029 102.512 92.4513C98.5621 93.5997 94.858 94.992 95.4343 97.3705C96.0107 99.749 97.2477 99.7479 97.2477 99.7479C97.2477 99.7479 94.6143 101.06 95.2727 103.274C95.931 105.488 98.8116 105.16 98.8116 105.16C98.8116 105.16 96.7545 106.062 97.4129 108.357C98.0713 110.653 100.705 110.408 100.705 110.408C100.705 110.408 99.47 110.982 99.9643 113.032C100.459 115.081 102.351 115.327 105.808 114.999C109.264 114.671 112.227 113.769 113.539 114.425C114.851 115.081 117.902 116.229 120.451 116.393C123 116.556 126.623 118.197 128.105 119.345C128.105 119.345 132.466 117.295 137.242 111.801C142.018 106.308 144.238 100.978 144.238 100.978C144.238 100.978 136.173 94.5824 132.305 92.1222C128.436 89.662 126.049 87.9405 120.206 87.2846C114.363 86.6287 110.578 87.203 110.578 87.203Z" fill="#DF6D59"/>
<path d="M110.988 90.7287C115.125 90.0938 119.383 90.2782 119.383 90.2782M97.5986 99.6311C101.611 98.401 102.721 97.9704 106.736 97.4137C110.751 96.857 113.28 96.8605 113.28 96.8605M98.8287 93.9125C101.172 94.5275 101.976 96.7403 100.742 98.401M98.8076 105.16C101.791 103.993 105.741 103.008 109.075 102.639C112.409 102.27 114.753 102.454 114.753 102.454M100.701 110.408C104.384 109.096 109.569 108.424 112.778 108.481" stroke="#AB433C" stroke-linecap="round" stroke-linejoin="round"/>
<path d="M99.2607 99.379C101.487 100.178 102.471 102.946 100.741 104.484M102.099 104.484C104.569 105.775 104.261 108.665 103.211 109.465M104.136 109.834C105.803 111.248 105.556 113.893 104.075 114.692" stroke="#AB433C" stroke-linecap="round" stroke-linejoin="round"/>
<path d="M144.239 100.978C153.332 105.982 158.326 109.848 161.234 115.116C164.141 120.384 164.289 124.695 165.481 126.849M21.0331 107.373C18.1256 110.291 14.5479 112.294 10.7466 115.193C6.94522 118.092 4.03884 123.732 4.33639 130.119M63.5182 62.3932C65.7674 65.3424 70.1439 67.107 77.1316 67.2284C83.8792 67.3451 88.7852 65.067 91.0215 61.2763" stroke="black" stroke-linecap="round" stroke-linejoin="round"/>
<path d="M64.6638 39.4742C64.6638 39.4742 60.8718 40.4826 59.1872 37.3735C57.5027 34.2644 59.1029 31.5824 61.1248 30.9102C63.1467 30.238 64.6638 31.2463 65.253 33.0109C65.8423 34.7756 64.6638 39.4742 64.6638 39.4742ZM83.9588 24.7854C84.7237 24.4353 84.5445 26.4636 85.7277 29.0662C86.9108 31.6688 88.087 33.2677 89.5185 34.2702C90.95 35.2727 92.2995 36.2006 92.2995 36.2006C92.2995 36.2006 91.4572 33.6832 93.1418 32.592C94.8263 31.5007 96.7651 31.4167 97.0181 33.4311C97.2712 35.4455 96.8494 37.4598 94.8275 39.3073C92.8056 41.1548 91.8778 41.3217 91.8778 41.3217C91.8778 41.3217 90.3619 45.4345 86.9073 48.6241C86.9073 48.6241 86.065 51.9818 86.5699 55.6756C87.0748 59.3694 88.2557 60.5434 88.2557 60.5434C88.2557 60.5434 84.1263 64.7449 77.3857 64.2372C70.6452 63.7296 67.528 62.559 65.4217 60.5434C65.4217 60.5434 67.3605 57.4379 67.781 53.6577C68.2016 49.8775 67.8653 44.1717 67.8653 44.1717C67.8653 44.1717 66.4327 40.9821 66.1808 39.9702C67.98 38.7794 69.6216 37.3679 71.0669 35.7687C73.5106 33.0845 73.848 30.0606 74.347 29.7244C74.846 29.3883 77.2967 30.3967 80.0766 28.8013C82.8564 27.2059 82.8635 25.2884 83.9588 24.7854Z" fill="#DF6D59"/>
<path d="M73.5117 33.347C77.9773 32.3398 80.1257 34.5223 80.1257 34.5223M85.6023 35.5715C90.0679 34.5643 92.2163 36.7467 92.2163 36.7467" stroke="black" stroke-linecap="round" stroke-linejoin="round"/>
<path d="M76.5349 39.3283C76.3427 40.0145 75.9854 40.2911 75.4805 40.1452C74.9757 39.9993 74.8081 39.5827 75.0003 38.8976C75.1924 38.2125 75.5485 37.9348 76.0546 38.0807C76.5606 38.2266 76.7258 38.6432 76.5349 39.3283ZM88.6641 40.9143C88.4602 41.5971 88.0983 41.8678 87.591 41.7185C87.0838 41.5691 86.9292 41.1442 87.1318 40.4627C87.3345 39.7811 87.6965 39.5092 88.2037 39.6586C88.7109 39.8079 88.8667 40.2328 88.6641 40.9143Z" fill="black"/>
<path d="M77.9765 43.6932C79.5556 44.7004 81.9595 45.0143 83.8537 44.3852M67.8657 44.1752C69.3406 47.0929 72.8163 50.1144 77.8711 50.8065C82.9259 51.4986 85.6437 49.6523 86.9077 48.6241M61.6348 33.9352C62.3217 34.9165 62.9342 35.9476 63.4669 37.0198M94.6803 34.5643C94.1742 35.9496 93.4795 37.7154 93.4795 37.7154" stroke="#AB433C" stroke-linecap="round" stroke-linejoin="round"/>
<path d="M84.1271 38.8475C84.1904 37.4026 84.338 36.0757 84.338 36.0757C84.338 36.0757 86.7114 35.9928 88.8036 36.2846C90.8958 36.5763 92.3425 37.2509 92.5522 37.6279C92.7619 38.0048 91.71 41.7827 90.1086 42.9964C88.5072 44.2102 85.0948 43.2905 84.4212 42.3253M71.7847 34.5643C71.0256 36.1387 70.9834 39.5372 72.1209 40.8595C73.2584 42.1818 77.2156 42.9112 78.6084 41.4057C80.0013 39.9002 81.0943 37.0198 81.0943 35.9496C81.0943 35.9496 79.8279 35.1327 76.5443 34.6063C73.4271 34.1021 71.7847 34.5643 71.7847 34.5643Z" stroke="#FFF202" stroke-linecap="round" stroke-linejoin="round"/>
<path d="M82.5482 37.3968C83.5591 38.7191 85.6443 40.7965 84.8911 41.6776C84.1378 42.5588 81.2256 42.2868 81.2256 42.2868" stroke="#AB433C" stroke-linecap="round" stroke-linejoin="round"/>
<path d="M81.1367 36.1597C82.5799 35.9181 84.1274 36.5157 84.1274 36.5157" stroke="#FFF202" stroke-width="2" stroke-linecap="round" stroke-linejoin="round"/>
<path d="M75.5166 89.2745C75.5166 95.9572 76.4116 105.165 77.0079 111.848C77.6041 118.531 78.0516 127.888 78.0516 127.888" stroke="black" stroke-linecap="round" stroke-linejoin="round"/>
</svg>
