<svg width="164" height="129" viewBox="0 0 164 129" fill="none" xmlns="http://www.w3.org/2000/svg">
<g clip-path="url(#clip0_300_6518)">
<path d="M4.77246 128.344C4.77593 127.762 11.7444 127.135 85.716 127.587C162.044 128.053 161.649 127.762 161.645 128.344C161.642 128.925 130.555 129.034 85.6526 128.76C40.75 128.486 4.76899 128.925 4.77246 128.344Z" fill="#766782"/>
<path d="M111.127 61.8818C111.127 61.8818 109.917 64.4053 110.082 64.5774C110.246 64.7496 110.918 64.5907 110.918 64.5907L112.798 62.0777L111.127 61.8818ZM117.15 61.9771C117.15 61.9771 116.609 64.5112 116.774 64.6833C116.939 64.8555 117.611 64.6966 117.611 64.6966L118.821 62.1731L117.15 61.9771ZM142.899 62.3847C142.899 62.3847 144.031 64.9453 143.861 65.1121C143.691 65.2789 143.025 65.0988 143.025 65.0988L141.223 62.5276L142.899 62.3847ZM136.876 62.2893C136.876 62.2893 137.339 64.8393 137.169 65.0061C136.999 65.1729 136.332 64.9928 136.332 64.9928L135.2 62.4322L136.876 62.2893Z" fill="#6D3424"/>
<path d="M116.771 49.1625C116.771 49.1625 116.777 49.5968 116.796 50.2887C116.792 50.2901 116.787 50.2917 116.782 50.2931C115.312 50.2459 115.166 52.5578 115.279 53.6848C115.437 55.2765 116.044 57.2709 117.439 58.2112C117.582 58.9335 117.755 59.472 117.965 59.692C118.289 60.0337 118.703 60.2518 119.183 60.3907L123.656 60.4756C124.141 60.355 124.562 60.1528 124.899 59.8237C126.009 58.741 126.482 49.3468 126.482 49.3468L116.771 49.1625Z" fill="#F1404C"/>
<path d="M117.368 55.4902C117.193 54.422 117.062 53.3681 117.042 52.2836C117.032 51.7268 116.192 51.7058 116.185 52.2673C116.169 53.4223 116.237 54.591 116.456 55.7265C116.572 56.3328 117.467 56.0899 117.368 55.4902Z" fill="#8B1D23"/>
<path d="M119.79 45.8703C119.526 45.061 119.513 44.1701 119.954 43.4257C120.504 42.4992 121.572 42.0629 122.465 41.4715C123.016 41.1064 123.518 40.6645 123.951 40.1622C124.254 39.8108 124.534 39.4029 124.568 38.9375C124.601 38.4735 124.382 38.0262 124.105 37.655C123.828 37.2838 123.489 36.9626 123.223 36.583C122.653 35.7682 122.459 34.6942 122.709 33.7279C122.655 34.4588 123.195 35.1152 123.824 35.4772C124.453 35.8391 125.177 35.988 125.852 36.251C127.14 36.7528 128.259 37.6904 128.987 38.8783C129.328 39.4361 129.591 40.082 129.516 40.734C129.407 41.6923 128.586 42.4333 127.694 42.7717C126.802 43.11 125.83 43.1354 124.884 43.2433C123.938 43.3512 122.954 43.5678 122.236 44.2016C121.486 44.8634 122.011 45.3678 122.245 46.1794C122.29 46.3362 122.33 46.5037 122.287 46.661C122.215 46.9205 121.946 47.063 121.781 47.2742C121.524 47.6024 121.538 48.0632 121.564 48.4814C121.123 48.0211 120.718 47.5259 120.354 47.002C120.119 46.6648 119.923 46.2778 119.79 45.8703Z" fill="white"/>
<path d="M127.847 59.0847L139.156 59.2994C140.504 57.7454 141.528 55.4095 140.348 53.7622C139.414 52.4588 137.988 52.3132 136.691 52.7731C136.325 52.5106 135.9 52.3255 135.422 52.2534C133.588 51.9764 131.584 53.0422 130.228 54.2094C128.948 55.3113 127.553 57.0569 127.883 58.8645C127.846 58.9268 127.835 59.0068 127.847 59.0847Z" fill="#82272C"/>
<path d="M137.452 52.8935C137.063 52.5466 136.5 53.0724 136.864 53.4671C138.472 55.2094 137.503 57.353 136.233 58.937C135.885 59.3707 136.423 59.9916 136.845 59.5807C138.562 57.9063 139.494 54.7112 137.452 52.8935ZM134.815 53.9312C134.809 53.8768 134.803 53.8225 134.797 53.7683C134.782 53.7233 134.763 53.6805 134.742 53.6385C134.738 53.6196 134.733 53.5987 134.731 53.5894C134.731 53.5876 134.731 53.5856 134.73 53.5838C134.73 53.5784 134.73 53.5745 134.73 53.5662C134.73 53.5536 134.731 53.541 134.732 53.5283C134.732 53.527 134.732 53.5267 134.732 53.5252C134.792 53.2753 134.668 52.9791 134.404 52.913C134.154 52.8503 133.869 52.9791 133.8 53.2456C133.751 53.4322 133.745 53.6112 133.776 53.801C133.788 53.8754 133.811 53.9419 133.838 54.0119C133.895 54.155 133.961 54.2388 134.087 54.3359C134.36 54.5457 134.851 54.2838 134.815 53.9312ZM131.314 57.0106C131.206 56.7916 130.994 56.6473 130.789 56.5281C130.586 56.4098 130.332 56.4532 130.185 56.6384C130.051 56.8077 130.034 57.1053 130.21 57.2597C130.307 57.3443 130.407 57.4222 130.511 57.4971C130.642 57.5912 130.781 57.6257 130.938 57.6461C131.08 57.6648 131.235 57.5593 131.306 57.4416C131.387 57.3063 131.382 57.1492 131.314 57.0106Z" fill="#641301"/>
<path d="M136.621 56.2826C136.583 56.1655 136.548 56.0477 136.453 55.9629C136.306 55.8328 136.127 55.7779 135.938 55.8542C135.774 55.921 135.632 56.0968 135.64 56.2861C135.645 56.4175 135.68 56.5263 135.75 56.635C135.88 56.8362 136.109 56.9343 136.337 56.8421C136.542 56.7587 136.694 56.5106 136.621 56.2826ZM140.435 54.2151C140.253 54.1331 140.066 54.1783 139.915 54.3046C139.818 54.3862 139.766 54.4991 139.719 54.6136C139.674 54.7208 139.702 54.9024 139.761 54.9986C139.81 55.0794 139.873 55.1424 139.953 55.1871C140.187 55.3172 140.494 55.223 140.627 54.9884C140.684 54.8866 140.709 54.7776 140.719 54.6598C140.735 54.4714 140.596 54.2874 140.435 54.2151Z" fill="#641301"/>
<path d="M127.312 57.3354C127.312 57.3354 127.594 60.431 127.93 60.609C128.266 60.7871 140.125 61.0122 140.295 61.0154C140.464 61.0186 141.023 58.2823 141.03 57.9391C141.036 57.5959 127.312 57.3354 127.312 57.3354Z" fill="#F6B542"/>
<path d="M135.593 58.0956C135.587 57.8903 135.271 57.8827 135.276 58.0896C135.296 58.9854 135.103 59.7837 134.83 60.6265C134.776 60.7931 135.036 60.9184 135.113 60.7538C135.493 59.9377 135.618 58.9907 135.593 58.0956Z" fill="#D7992C"/>
<path d="M144.662 62.866C144.708 61.9096 144.632 61.1586 144.326 61.092C143.461 60.9039 109.518 59.7445 109.335 60.2561C109.29 60.3817 109.264 61.2638 109.269 62.3058L144.662 62.866Z" fill="#91503A"/>
<path d="M47.6416 21.4547C47.6416 21.4547 49.6705 29.4826 49.55 37.2948C49.4296 45.1069 49.5472 37.4764 49.5472 37.4764L56.2226 35.038L54.2721 21.9231L47.6416 21.4547Z" fill="#973A0C"/>
<path d="M55.0364 18.8459C55.0504 17.9375 55.07 16.6657 54.8962 16.2995C54.7224 15.9333 53.6519 15.5529 49.8939 14.9482C47.9029 14.6279 46.5257 13.8085 45.3224 13.102C44.9371 12.9272 44.5513 12.7527 44.1621 12.5837C42.7327 11.9631 41.3737 12.0691 39.8758 12.0645C39.0229 12.1715 38.176 12.3322 37.4856 12.534C37.0571 12.7498 36.6709 13.0293 36.3613 13.417C36.3375 13.4643 36.3169 13.513 36.2962 13.5617C36.2052 14.1438 36.1513 14.7224 36.4175 15.2844C36.6726 15.8228 37.05 16.318 37.5424 16.65C38.2164 17.1043 38.9977 17.3293 39.6598 17.7981C40.7233 18.4072 41.9379 19.3093 42.9943 20.2908C44.586 21.7698 54.0667 23.5553 54.0667 23.5553C54.0667 23.5553 55.8546 23.9471 55.863 23.402C55.8715 22.857 55.0224 19.7542 55.0364 18.8459Z" fill="#ED4450"/>
<path d="M54.8975 16.2995C54.7237 15.9333 53.6532 15.5529 49.8952 14.9482C47.9042 14.6279 46.527 13.8085 45.3237 13.102C44.9384 12.9272 44.5526 12.7527 44.1634 12.5837C42.734 11.9631 41.375 12.0691 39.8771 12.0645C39.0242 12.1715 38.1774 12.3322 37.4869 12.534C37.0562 12.7509 36.6683 13.0322 36.3579 13.4231C36.3365 13.4662 36.3176 13.5103 36.2986 13.5545C36.2093 14.1244 36.1557 14.6908 36.4006 15.2417C36.8074 15.6021 37.3539 15.9723 38.0352 16.2144C39.641 16.785 44.6462 17.9545 46.0727 18.5222C47.4991 19.09 51.075 19.8735 52.877 19.3568C54.1019 19.0056 54.7496 18.3932 55.0447 17.6946C55.0375 17.0846 55.0036 16.5231 54.8975 16.2995Z" fill="white"/>
<path d="M54.4985 15.9828H54.4984C53.9096 15.7018 52.5969 15.383 49.8947 14.9482C47.9038 14.6279 46.5266 13.8085 45.3232 13.102C44.9379 12.9272 44.5522 12.7527 44.163 12.5837C42.7335 11.9631 41.3745 12.0691 39.8765 12.0645C39.0236 12.1715 38.1768 12.3322 37.4863 12.5341C37.1883 12.6841 36.913 12.8683 36.6676 13.0951C36.5464 13.4352 36.6838 13.7118 36.9434 13.94C38.6424 14.7014 43.6034 16.062 44.5799 16.4089C45.6504 16.7893 49.3972 18.1207 52.0932 17.7999C54.7891 17.479 55.256 16.3205 54.4985 15.9828Z" fill="#4A3333"/>
<path d="M54.3789 63.5017L66.5485 63.6943L71.6586 63.5401C71.6586 63.5401 73.3835 50.5742 70.9538 45.2658C68.5241 39.9573 63.9589 33.5248 63.9589 33.5248L58.4829 39.6167C58.4829 39.6167 56.4736 30.3171 55.4002 30.1183C54.3269 29.9196 46.9201 33.2551 46.3736 33.7916C45.8271 34.3281 46.7043 35.6141 48.0747 39.8154C49.4451 44.0166 51.2386 55.6753 51.7263 58.9541C52.188 62.0587 53.4836 63.2207 54.3789 63.5017ZM63.0551 51.4103L61.2447 52.472L59.4064 43.7202C59.4064 43.7202 62.0238 48.4864 63.0551 51.4103Z" fill="#6168AA"/>
<path d="M64.3997 50.42C62.1679 51.4758 60.0071 52.697 57.9374 54.0591C57.2084 54.3303 56.4876 54.6282 55.7745 54.9375C55.0726 55.242 54.0404 55.5303 53.6184 56.2306C53.5125 56.4062 53.7756 56.5651 53.8869 56.3953C54.1254 56.0319 54.5409 55.8735 54.9169 55.6969C55.334 55.5009 55.7555 55.3149 56.1802 55.1366C56.3225 55.0769 56.4657 55.0198 56.6088 54.9622C55.3848 55.8202 54.1949 56.7269 53.0455 57.6796C52.7454 57.9283 53.2389 58.1278 53.5374 57.8925C57.0519 55.1214 60.7343 52.9989 64.737 51.0259C65.1358 50.8293 64.7975 50.2317 64.3997 50.42Z" fill="#333A74"/>
<path opacity="0.5" d="M61.6368 59.2733C60.5304 59.3907 59.4424 59.6638 58.405 60.0701C57.9209 60.2597 57.4532 60.4814 56.9911 60.72C56.4592 60.9947 55.8947 61.3 55.2815 61.2954C54.7733 61.2915 54.2334 61.0448 54.046 60.5416C53.9371 60.2489 53.9235 59.8596 53.6844 59.6313C53.3372 59.2998 52.8377 59.6913 52.5763 59.1736C52.2814 58.5895 52.538 57.8659 52.9797 57.4457C53.0562 57.3729 53.0354 57.2486 52.9516 57.1933C52.6435 56.9899 52.6424 56.5828 52.6215 56.2504C52.5957 55.8398 52.5612 55.4302 52.5153 55.0214C52.4316 54.2771 52.3177 53.5368 52.1846 52.8C51.9035 51.2441 51.5526 49.7009 51.2172 48.1564C50.5577 45.1184 49.8776 42.0836 49.0696 39.0821C48.6093 37.3726 48.1109 35.6718 47.5377 33.9974C47.4801 33.8293 47.2146 33.8952 47.2703 34.0675C48.2713 37.1626 49.114 40.3007 49.8538 43.4697C50.5951 46.6452 51.3443 49.8408 51.9101 53.0538C52.0808 54.023 52.218 54.9991 52.2878 55.9814C52.3214 56.4538 52.2999 56.9988 52.6385 57.3444C52.1103 57.9648 51.8591 59.0951 52.5659 59.6727C52.7359 59.8115 52.8851 59.8375 53.0922 59.8401C53.4463 59.8447 53.4703 59.8113 53.59 60.1234C53.6287 60.2242 53.6468 60.3338 53.6753 60.4379C53.7983 60.8876 54.0303 61.2195 54.4511 61.4307C55.4995 61.957 56.5649 61.3036 57.5005 60.8406C58.8218 60.1867 60.2221 59.8 61.6747 59.5946C61.8526 59.5694 61.8177 59.2541 61.6368 59.2733Z" fill="#333A74"/>
<path d="M59.6035 43.2422C59.3622 42.003 59.0539 40.7681 58.6921 39.5596C58.633 39.3623 58.3317 39.4385 58.384 39.6404C58.702 40.8657 58.8607 42.2086 59.1409 43.4433C59.1898 43.6589 59.6454 43.4572 59.6035 43.2422Z" fill="#333A74"/>
<path d="M59.783 36.7298C59.783 36.7298 58.7401 37.8564 58.3018 38.8783C58.3884 39.2332 58.482 39.5865 58.5675 39.9418C59.5035 39.5545 61.5682 37.3033 61.5682 37.3033L59.783 36.7298Z" fill="#4A3333"/>
<path d="M61.2304 29.7871L63.9589 33.5249C63.9589 33.5249 64.4717 35.1685 59.7468 39.0916C59.7468 39.0916 57.7745 33.3427 56.408 31.7277C55.0415 30.1128 61.2304 29.7871 61.2304 29.7871Z" fill="#973A0C"/>
<path d="M60.3943 32.0147C60.3943 32.0147 59.8366 33.278 58.0431 33.2496C56.2496 33.2212 52.5363 29.7097 51.2949 28.7814C50.0534 27.8532 45.5872 27.002 43.987 26.0681C42.3868 25.1342 39.9686 22.3868 41.8014 19.8717C43.6342 17.3567 47.6937 18.0028 51.0595 20.7819C54.4252 23.561 57.4575 24.6993 58.1665 25.2558C58.8754 25.8121 62.967 28.0575 60.3943 32.0147Z" fill="#4A3333"/>
<path d="M58.1664 25.2557C58.0543 25.1678 57.8812 25.0641 57.6609 24.9429C57.8399 25.1073 58.011 25.2798 58.1672 25.4669C58.4817 25.8439 58.8374 26.3129 58.9434 26.8115C59.4788 28.3078 59.6671 30.9421 57.2626 31.5107C55.9644 31.8177 54.7869 31.4249 53.8193 30.8503C55.2997 32.0325 56.9974 33.2329 58.0431 33.2494C59.8367 33.2778 60.3943 32.0146 60.3943 32.0146C62.967 28.0575 58.8753 25.8121 58.1664 25.2557Z" fill="white"/>
<path d="M58.8093 25.7133C59.3369 26.3907 59.8188 27.1182 60.0627 27.8911C60.1682 28.2255 60.2562 28.5682 60.2801 28.9184C60.3336 29.7016 60.0604 30.4816 59.6358 31.1384C59.4354 31.4483 59.1985 31.7385 58.905 31.9596C58.4469 32.3048 57.8704 32.4642 57.2997 32.4842C56.7806 32.5023 56.2638 32.4106 55.7607 32.2763C56.6268 32.8391 57.4428 33.2401 58.0433 33.2495C59.8369 33.2779 60.7533 32.0203 60.7533 32.0203C62.8689 28.7661 60.1198 26.6649 58.8093 25.7133Z" fill="#ED4450"/>
<path d="M71.6157 37.2805C71.5864 37.3002 71.466 37.3598 71.2779 37.4544C68.4593 37.2379 65.6403 38.9883 63.8627 41.0785C63.6181 41.366 64.0068 41.7909 64.2742 41.5086C65.2741 40.4531 66.3812 39.5191 67.7046 38.9075C68.3563 38.6064 69.0058 38.4218 69.6638 38.3236C67.4421 39.6167 64.2551 41.9324 65.3022 44.2915C67.4849 49.2088 73.8655 46.7212 73.8655 46.7212L74.7762 38.6197L71.6157 37.2805Z" fill="#FF96B5"/>
<path d="M62.1841 63.6253L64.5818 63.6633L95.4063 63.6585C97.6932 63.2687 99.9792 62.8729 102.263 62.4669C103.192 62.3019 104.128 62.1781 105.054 61.9972C105.61 61.8886 106.637 61.8634 106.857 61.2197C107.339 59.8069 105.749 58.023 104.896 57.1076C104.71 56.9082 104.52 56.7099 104.377 56.4774C103.479 55.0192 104.014 52.939 101.91 52.4848C101.807 52.4624 101.699 52.4437 101.611 52.3827C101.55 52.3396 101.504 52.2783 101.459 52.2178C99.5327 49.6153 98.789 46.3608 96.7972 43.8142C96.1171 42.9445 95.1594 42.4732 94.1445 42.1036C92.8197 41.6212 91.4295 41.242 90.0361 41.0248L77.6689 40.2839C77.6689 40.2839 69.9286 41.9786 68.6507 43.4121C67.3728 44.8457 67.1514 47.568 66.7759 48.6525C66.4003 49.7368 60.916 56.3738 60.689 59.4595C60.4858 62.2231 61.8888 63.408 62.1841 63.6253Z" fill="#F1E6DC"/>
<path d="M75.2357 51.8518C75.1504 51.6608 74.8775 51.8218 74.9573 52.0108C75.2646 52.7389 75.1854 53.4849 74.9316 54.1909C74.9321 53.8819 74.9022 53.5644 74.8302 53.2333C74.4944 51.6913 73.7505 50.0953 72.8832 48.7918C72.6468 48.4365 71.9389 48.1749 72.1591 48.5559C72.858 49.7659 73.6603 51.6 74.0569 52.9494C74.5296 54.5582 73.9894 55.7073 73.4634 57.1936C73.3505 57.5127 73.8678 57.7523 74.0079 57.4364C74.3707 56.6185 74.7064 55.844 74.8539 55.0297C74.8996 55.0265 74.9438 55.0036 74.9732 54.9476C75.4817 53.9803 75.6951 52.8812 75.2357 51.8518ZM78.8345 50.0299C78.372 49.4563 77.8395 48.5186 77.1995 48.1347C76.7067 47.8391 76.0368 48.2721 75.5646 48.4893C75.38 48.5742 75.198 48.6635 75.0177 48.7575C74.7436 48.9004 74.7128 49.0476 74.6089 48.7943C74.4652 48.4439 74.8913 47.6773 75.0197 47.333C75.3731 46.3853 75.8294 45.4833 76.208 44.5466C76.3056 44.305 75.9232 44.1424 75.7983 44.3639C75.2919 45.2623 74.8582 46.2115 74.4859 47.1748C74.304 47.6454 73.5988 48.9662 74.0674 49.4586C74.4806 49.8929 75.1971 49.3256 75.5843 49.1497C75.8537 49.0273 76.2043 48.8128 76.4969 48.7754C76.5926 48.7418 76.6884 48.7084 76.7841 48.6749C76.9517 48.7896 77.0965 48.9272 77.2185 49.0876C77.6248 49.5277 78.5666 50.3764 78.9409 50.8441C79.2057 51.1747 79.0991 50.3582 78.8345 50.0299ZM86.7458 44.9706C86.4475 46.2523 85.15 51.1307 84.8929 52.4219C84.1837 52.0587 83.2235 51.487 82.5386 51.7584C82.2709 51.8645 82.0546 52.0938 81.8399 52.2786C81.2122 52.8187 80.8138 53.1144 79.9521 52.9694C79.6318 52.9155 79.4749 53.3925 79.8065 53.4736C80.6965 53.6916 80.9596 53.8096 81.6709 53.2134C82.3402 52.6524 82.6288 52.2493 83.6579 52.5994C84.1232 52.7577 84.589 53.0129 85.0375 53.2102C85.19 53.2774 85.4073 53.1449 85.4399 52.9871C85.7323 51.5713 86.8534 46.4002 87.1044 44.9762C87.1749 44.5765 86.8412 44.5603 86.7458 44.9706Z" fill="#E5D6CA"/>
<path opacity="0.5" d="M80.0331 55.588C79.8009 55.1342 79.5401 54.6942 79.423 54.1915C79.2812 53.5827 79.3523 52.9673 79.5533 52.382C79.6116 52.2124 79.359 52.1462 79.2937 52.3051C78.9256 53.1993 79.0068 54.1382 79.4066 55.0052C79.6294 55.4883 79.9197 55.9424 80.08 56.4532C80.2626 57.0351 80.2304 57.5896 80.1526 58.1835C80.1307 58.35 80.3908 58.3807 80.4355 58.2268C80.6975 57.3247 80.4471 56.3969 80.0331 55.588Z" fill="#E5D6CA"/>
<path d="M76.9043 43.361C76.9043 43.361 78.7903 49.0243 79.3004 50.8496C79.8104 52.6749 79.9842 41.4109 79.9842 41.4109L76.9043 43.361Z" fill="#BB5122"/>
<path d="M78.882 56.0673C78.3204 58.6894 76.3537 60.8278 73.88 61.7346C72.5175 62.234 71.0412 62.3816 69.6039 62.2202C68.217 62.0646 66.848 61.3726 65.4365 61.6008C64.2522 61.7924 63.2475 62.5181 62.1397 62.932C61.552 63.1516 60.9199 63.2762 60.3001 63.1261C60.1614 63.0925 60.0277 63.0463 59.8982 62.9906C59.8837 63.1092 59.8681 63.2278 59.8516 63.3461C60.5306 63.5981 61.2589 63.5979 61.9913 63.363C63.1025 63.0066 64.0758 62.2908 65.2142 62.0124C66.6356 61.6649 68.0469 62.384 69.4476 62.5617C70.7381 62.7252 72.0673 62.6419 73.322 62.2903C75.6308 61.6434 77.6602 60.0255 78.6618 57.7987C78.8987 57.2721 79.0681 56.7224 79.178 56.1548C79.2158 55.96 78.9243 55.8696 78.882 56.0673Z" fill="#4A3333"/>
<path d="M62.1532 63.6248L67.8085 63.7143C68.8791 63.0459 73.9034 59.7818 73.4549 57.6626C72.9532 55.2923 68.6319 56.3143 67.9145 56.3029C67.197 56.2915 63.7893 56.2376 61.7659 59.4766C59.9706 62.3505 61.7329 63.4201 62.1532 63.6248Z" fill="#F1E6DC"/>
<path d="M94.5623 64.1378C95.3534 64.1465 95.8067 64.1515 95.8067 64.1515C95.7557 63.4712 94.7412 58.6953 94.7412 58.6953C94.7412 58.6953 91.273 59.671 90.3818 59.2934C89.4907 58.9159 80.1641 58.7683 78.9143 58.385C77.6644 58.0018 73.0096 57.383 73.0096 57.383C73.0096 57.383 72.5602 57.6923 70.2912 59.1572C66.0329 61.9065 65.9277 62.9043 65.9277 62.9043C65.9277 62.9043 66.4438 63.4427 66.9274 63.7004L94.5623 64.1378Z" fill="#BB5122"/>
<path d="M72.9048 56.6701C71.913 55.7867 70.6351 55.3085 69.3075 55.4596C68.5353 55.5475 67.9719 55.8575 67.2882 56.1833C66.891 56.3725 66.8982 56.3064 66.4332 56.2288C66.1054 56.1741 65.7713 56.1812 65.4432 56.23C62.8911 56.6096 60.4691 59.6531 60.787 62.2409C60.8236 62.5387 61.3276 62.479 61.3083 62.1778C61.157 59.8204 63.5383 56.7107 66.0503 56.8555C66.4054 56.876 66.7866 57.1351 67.1375 57.0699C67.6197 56.9802 68.121 56.4573 68.6069 56.3006C69.962 55.8637 71.6706 56.2026 72.7453 57.1062C73.0687 57.378 73.2294 56.9592 72.9048 56.6701Z" fill="#E5D6CA"/>
<path d="M79.2574 55.4177C78.8208 52.9321 77.2684 50.7437 76.2798 48.4641C75.2005 45.9752 74.4041 43.3659 73.8905 40.6983C73.8517 40.4964 73.5478 40.5771 73.5852 40.7784C74.068 43.371 74.8197 45.9049 75.8421 48.332C76.8535 50.7333 78.3248 52.943 78.929 55.5039C78.9802 55.721 79.2952 55.6332 79.2574 55.4177Z" fill="#4A3333"/>
<path d="M90.4822 27.9417C90.4822 27.9417 91.0921 24.2707 94.2892 25.1487C97.4864 26.0267 100.178 31.9259 98.8149 34.5247C97.4515 37.1235 94.0393 36.1667 93.4368 35.6964C92.8343 35.2262 90.2354 33.2504 90.2354 33.2504L90.4822 27.9417Z" fill="#FF96B5"/>
<path d="M74.2072 40.246C74.2072 40.246 68.6315 38.4059 70.2467 33.6047C71.9837 28.4417 77.9164 31.5229 78.6525 32.3701C79.3886 33.2173 77.5723 37.1579 77.5723 37.1579L74.2072 40.246Z" fill="#601922"/>
<path d="M93.2617 35.2729C93.1259 35.5999 92.9887 35.9264 92.8517 36.253C92.3293 37.4985 91.8805 38.7723 91.3431 40.0114C90.7947 41.2756 90.1782 42.5108 89.6031 43.7636C89.2485 44.5359 89.1672 45.2539 88.6687 45.9371C88.2325 46.535 87.8907 47.2112 87.6396 47.9086C87.1466 49.2778 87.0085 50.7816 87.2785 52.2152C87.3035 52.3482 87.332 52.4833 87.3158 52.6177C87.2977 52.7687 87.2246 52.9062 87.1619 53.0445C86.6848 54.0959 86.7731 55.3492 87.2107 56.4181C87.6483 57.4871 88.4056 58.3925 89.2403 59.1826C90.2501 60.1384 91.3576 60.1937 92.6898 60.0911C93.3487 60.0403 94.0125 59.9515 94.6295 59.7161C95.971 59.2044 96.9676 58.0371 97.5658 56.7547C98.3876 54.9926 98.7834 52.9697 98.6758 51.0507C98.5713 49.1864 98.3004 47.3285 97.8534 45.5156C97.2859 43.2142 96.4245 40.9685 95.1672 38.9446C94.5512 37.9531 94.5681 37.7351 94.5681 37.7351C96.4596 39.5641 99.6357 45.1316 99.9464 49.0687C99.9872 49.5858 100.77 49.4247 100.748 48.9249C100.517 43.5939 96.9788 39.0456 93.2617 35.2729ZM92.3827 33.1634C92.3509 33.1223 92.3148 33.0921 92.277 33.068C91.9277 32.4795 91.5918 31.9588 91.286 31.5089C90.9725 29.0921 90.1178 26.7804 88.3281 25.1511C87.4941 22.9344 86.3145 20.6097 84.8326 20.1281C81.9284 19.1843 81.3872 21.7866 80.7686 22.4886C80.15 23.1907 77.2279 19.9851 73.2852 23.9888C69.3424 27.9924 73.8846 31.3419 73.8846 31.3419L80.5482 38.0339L80.5113 38.6655C82.2215 38.7832 83.9149 39.0659 85.6065 39.3516C87.0139 39.5893 88.4179 39.8506 89.8042 40.1883C90.6404 38.7753 91.3792 37.3201 92.1605 35.8744C92.4763 35.2903 92.7989 34.7096 93.1168 34.1264C92.8728 33.801 92.6278 33.4797 92.3827 33.1634Z" fill="#FF96B5"/>
<path d="M89.3628 36.5977C88.4163 39.3559 85.7545 38.1749 85.7545 38.1749C85.4177 39.2817 85.8635 44.0503 85.8635 44.0503C84.1933 47.8413 80.2048 50.6888 80.2048 50.6888L79.648 51.9525L78.6225 48.4844C78.8365 46.1252 78.3383 43.3919 78.3383 43.3919C78.3835 43.3974 73.8503 44.4412 71.961 41.8925C69.59 37.6841 72.6124 31.9174 75.3124 27.9038C76.0586 26.803 77.5935 25.8411 78.9415 26.1053C80.2033 26.3515 80.5743 27.4767 81.5598 28.1093C82.0631 28.4316 82.6679 28.5352 83.2304 28.7282C83.7952 28.9211 84.3709 29.2557 84.5757 29.8213C84.6872 30.1362 84.6694 30.484 84.7439 30.8109C84.8487 31.269 85.1301 31.67 85.2105 32.1323C85.2653 32.4359 85.229 32.7467 85.2217 33.0552C85.2129 33.4906 85.258 33.9285 85.3227 34.3604C85.3503 34.5439 85.3928 34.7465 85.544 34.8522C85.8468 35.0681 86.0229 34.513 86.2073 34.3535C86.4562 34.1345 86.7245 33.932 87.011 33.7644C87.5453 33.448 88.2871 33.1559 88.8567 33.5566C89.9311 34.2953 89.6066 35.8788 89.3628 36.5977Z" fill="#BB5122"/>
<path d="M74.4184 35.0211C74.4826 34.8197 74.7081 34.7002 74.9077 34.7677C75.1043 34.8342 75.3009 34.9006 75.4975 34.9671C75.6965 35.0345 75.8124 35.2592 75.7476 35.4628C75.6835 35.6643 75.4581 35.7838 75.2583 35.7162C75.0618 35.6498 74.8652 35.5833 74.6686 35.5168C74.4696 35.4495 74.3536 35.2248 74.4184 35.0211Z" fill="#973A0C"/>
<path d="M80.3 29.2663C80.7885 29.5063 80.6767 29.4272 81.1524 29.6945C81.6353 29.9657 82.0832 30.2975 82.555 30.5873C82.9807 30.8486 82.615 31.5435 82.1856 31.28C81.714 30.9906 81.2666 30.6565 80.783 30.3872C80.3063 30.1218 80.419 30.1992 79.9306 29.959C79.481 29.738 79.85 29.0451 80.3 29.2663ZM75.7305 30.0239C75.8389 29.9674 75.9177 29.8585 75.9287 29.7309C75.9454 29.5385 75.8026 29.376 75.6094 29.3677C75.3816 29.3578 75.1405 29.3461 74.9178 29.3938C74.6382 29.4538 74.3608 29.5563 74.0859 29.6365C73.971 29.6701 73.8545 29.7042 73.7514 29.7662C73.6483 29.8281 73.5582 29.922 73.5252 30.0394C73.3838 30.5436 74.098 30.2538 74.3281 30.2055C74.7295 30.1212 75.1374 30.0487 75.5484 30.0649C75.6132 30.0675 75.6758 30.0524 75.7305 30.0239Z" fill="#641301"/>
<path d="M80.2859 33.6905C80.3998 33.4982 80.4293 33.2518 80.3388 33.0477C80.0299 32.3516 79.0756 32.8687 79.0453 33.4736C79.0313 33.754 79.2214 33.9494 79.4921 34.0123C79.7505 34.0723 80.0968 33.9618 80.2531 33.7411C80.2647 33.7248 80.2756 33.7079 80.2859 33.6905ZM72.5366 33.1205C72.5074 32.8896 72.6294 32.6108 72.7631 32.4513C72.9194 32.2648 73.3815 32.1841 73.5379 32.4153C73.5741 32.4687 73.5829 32.5361 73.5864 32.6009C73.6009 32.8649 73.5359 33.1484 73.3451 33.3289C73.1543 33.5094 72.8196 33.542 72.6396 33.3503C72.5794 33.2861 72.5474 33.2066 72.5366 33.1205ZM74.3103 37.7361C74.3841 37.7427 74.4577 37.7552 74.5309 37.7663C74.9787 37.8346 75.432 37.856 75.8846 37.855C76.2224 37.8542 76.5562 37.7772 76.8957 37.7958C77.4798 37.8278 76.8702 38.1516 76.6195 38.2287C75.8691 38.4594 75.0718 38.5324 74.2927 38.4419C74.0592 38.4148 73.578 38.2924 73.77 37.9447C73.8379 37.8217 73.9779 37.7542 74.116 37.7371C74.1806 37.729 74.2454 37.7304 74.3103 37.7361Z" fill="#1A1A1A"/>
<path d="M89.354 32.8401C89.395 32.6693 91.5828 29.6471 88.3291 25.1511C88.3291 25.1511 89.162 25.3296 90.1552 26.6092C91.1483 27.8888 92.6149 30.9059 91.58 33.44C90.545 35.9741 89.354 32.8401 89.354 32.8401Z" fill="#601922"/>
<path d="M78.341 43.2021C77.7719 43.4033 76.9714 43.5633 76.9776 43.5832C77.0116 43.6919 77.0477 43.8004 77.0833 43.9089C77.0848 43.9267 77.0866 43.9446 77.0911 43.9632C77.5961 46.0484 78.328 48.0592 79.082 50.0626C79.2386 50.4788 79.1874 46.4866 79.0344 44.6096C79.5001 44.3923 79.9342 44.0571 80.2714 43.7474C81.0293 43.0511 81.6141 42.1871 82.1384 41.3024C81.836 41.579 80.8694 42.3081 78.341 43.2021Z" fill="#973A0C"/>
<path d="M95.8338 64.1579L105.012 64.3032C105.765 63.5809 106.945 62.3146 106.958 61.4493C106.976 60.1776 105.584 57.249 103.285 55.0338C100.985 52.8185 99.8927 53.8924 99.8927 53.8924L93.6289 59.4903C93.6289 59.4903 93.688 61.0679 94.2127 61.9844C94.5494 62.5724 95.3222 63.5393 95.8338 64.1579Z" fill="#F1E6DC"/>
<path d="M79.7584 55.425C82.7824 50.8679 85.9365 46.0864 87.0509 40.6309C87.0898 40.4408 86.8093 40.3528 86.7617 40.5452C85.4185 45.9733 82.4961 50.6402 79.4559 55.2362C79.2793 55.17 79.0811 55.1371 78.9513 55.1245C78.9149 55.121 78.8857 55.1331 78.8614 55.1515C78.7814 55.1662 78.7206 55.2365 78.714 55.3255C78.6971 55.5519 78.6856 55.7784 78.6821 56.0053C78.6798 56.1566 78.6459 56.3624 78.7242 56.5017C78.9055 56.8242 79.2047 56.459 79.3419 56.3054C79.4628 56.17 79.5777 56.0291 79.6878 55.8846C79.7713 55.7749 79.8765 55.6554 79.8145 55.5116C79.8011 55.4803 79.7813 55.4518 79.7584 55.425Z" fill="#4A3333"/>
<path d="M87.0667 41.571C87.0667 41.571 82.7588 40.7812 84.597 35.6542C86.4352 30.5272 90.4033 32.7024 91.1395 33.5496C91.8756 34.3968 91.575 39.1752 91.575 39.1752L87.0667 41.571Z" fill="#752329"/>
<path d="M91.7584 33.7148C88.7963 32.4213 85.4848 35.7171 86.5689 38.741C86.6378 38.9335 86.9718 38.8768 86.9298 38.662C86.6736 37.3525 86.8721 36.014 87.8129 35.015C88.8365 33.928 90.2615 33.7795 91.6349 34.0915C91.8514 34.1407 91.9655 33.8052 91.7584 33.7148Z" fill="#51131D"/>
<path d="M100.609 53.9033C100.609 53.9033 98.8339 52.6045 97.2357 51.4902C95.9052 50.5625 91.8925 46.1969 90.5847 44.7594C91.7332 43.3705 93.8343 40.7814 94.1047 40.1063C94.4793 39.1708 94.6971 36.2103 94.6448 35.5352C94.5926 34.8601 94.1134 34.4454 93.6517 34.2556C93.19 34.0659 92.8633 32.7334 92.1621 32.3363C91.4607 31.9392 91.4956 32.3893 91.0339 32.1996C90.5723 32.0098 90.2978 31.3524 90.0582 31.145C89.8186 30.9376 89.1523 30.9906 88.9823 31.6833C88.8124 32.3761 90.5069 34.0527 90.5591 34.7277C90.6114 35.4028 89.8447 37.0486 89.8447 37.0486C89.8447 37.0486 89.4832 35.266 89.2262 34.8336C88.9692 34.4012 86.6432 33.2275 86.4733 33.9203C86.3035 34.613 87.7409 35.8572 87.7409 35.8572C87.7409 35.8572 88.085 37.4147 87.9089 38.1739C87.7327 38.9332 86.5362 39.4745 85.5474 41.1379C85.1551 41.7979 85.523 42.926 85.6974 43.5957C86.0361 44.8959 86.5114 46.1607 87.0084 47.406C88.2341 50.4769 89.7378 53.3877 91.4275 56.2168C92.2214 57.5461 93.034 58.8659 93.8795 60.1623C93.8795 60.1623 97.6061 62.9442 99.2336 62.0601C100.861 61.1759 100.609 53.9033 100.609 53.9033Z" fill="#BB5122"/>
<path d="M91.5917 32.6077C91.3009 32.2814 91.0668 32.3278 91.2822 32.7217C91.6635 33.4189 92.0472 34.3364 92.2293 35.1178C92.4328 35.9913 92.0002 36.7009 91.9414 37.545C91.9217 37.8268 92.2929 38.1154 92.4994 37.8173C93.7734 35.9783 92.9103 34.0876 91.5917 32.6077ZM93.8516 34.6596C93.7441 34.4666 93.4554 34.3513 93.5351 34.5546C93.6584 34.8693 93.7266 35.4672 93.7284 35.8083C93.7302 36.1501 93.6201 36.4559 93.5438 36.7838C93.5038 36.956 93.7575 37.094 93.8623 36.9392C94.3051 36.2848 94.2233 35.3263 93.8516 34.6596ZM90.9487 44.6929C90.9422 44.6832 90.9345 44.6742 90.9278 44.6647C90.9212 44.6385 90.9096 44.6125 90.8853 44.5882C90.8691 44.5721 90.8523 44.5566 90.836 44.5404C90.7038 44.3728 90.5528 44.2159 90.4106 44.0606C90.3562 44.0012 90.2898 43.9995 90.2364 44.0277C90.1923 44.0302 90.1505 44.0509 90.1205 44.0833C90.0559 44.1395 90.0306 44.2352 90.1129 44.3098C90.2944 44.4744 90.4506 44.6587 90.596 44.8562C90.6396 44.9156 90.7047 44.9492 90.7732 44.9357C90.8966 44.9543 91.0352 44.8209 90.9487 44.6929ZM85.9994 43.5051C85.7832 42.8377 85.6308 42.261 85.8037 41.5578C85.9006 41.1633 85.6524 40.7429 85.5488 41.1379C85.3507 41.8934 85.0102 43.0559 85.4428 43.733C85.619 44.0088 86.1124 43.8536 85.9994 43.5051Z" fill="#973A0C"/>
<path d="M105.039 56.9817C103.934 55.8152 103.176 54.4038 101.611 53.8003C101.421 53.727 101.339 54.0004 101.478 54.1071C102.177 54.6441 102.746 54.9857 103.276 55.7277C103.606 56.189 103.915 56.6558 104.279 57.0908C105.275 58.2816 106.427 59.3144 106.427 60.9975C106.427 61.4442 107.058 61.4398 107.103 61.0076C107.272 59.347 106.088 58.0894 105.039 56.9817Z" fill="#E5D6CA"/>
<path d="M162.484 77.7891L162.761 94.6937L130.449 95.9995L85.0723 95.2813L89.119 77.1731L162.484 77.7891Z" fill="#F1E6DC"/>
<path d="M144.761 75.3279C144.761 75.3279 164.49 75.6402 164.297 76.5458C164.104 77.4513 163.731 78.354 163.731 78.354C163.731 78.354 91.9746 78.1269 91.061 79.2028C90.1475 80.2787 89.5786 93.8989 90.8285 94.2821C92.0783 94.6654 155.584 94.7618 158.804 95.358C162.024 95.9541 164.524 96.7206 164.333 97.4445C164.143 98.1683 156.1 96.2238 153.581 96.7291C151.061 97.2344 90.7977 96.2805 88.8219 96.431C86.8461 96.5814 3.63071 94.901 2.38643 94.1544C1.14215 93.4078 0.481833 76.1876 4.44956 75.7692C8.41728 75.3507 144.761 75.3279 144.761 75.3279Z" fill="#ED4450"/>
<path d="M139.099 81.7803C139.002 81.7787 138.923 81.6982 138.923 81.599C138.923 81.4987 139.003 81.4171 139.102 81.417L162.544 81.3656C162.638 81.3687 162.724 81.4467 162.724 81.547C162.724 81.6473 162.644 81.7289 162.545 81.729L139.103 81.7804C139.102 81.7804 139.1 81.7804 139.099 81.7803ZM148.031 84.2841C147.933 84.2825 147.854 84.2017 147.854 84.1026C147.854 84.0021 147.934 83.9207 148.033 83.9207L162.685 83.9119C162.686 83.9119 162.687 83.9119 162.688 83.912C162.785 83.9135 162.864 83.9942 162.864 84.0935C162.864 84.1939 162.784 84.2754 162.685 84.2754L148.034 84.2841C148.033 84.2842 148.032 84.2841 148.031 84.2841ZM107.407 89.4563C107.309 89.4547 107.23 89.3741 107.23 89.2747C107.23 89.1745 107.31 89.093 107.409 89.0928L142.333 89.0414C142.334 89.0414 142.335 89.0414 142.336 89.0415C142.434 89.043 142.513 89.1236 142.513 89.223C142.513 89.3233 142.433 89.4047 142.334 89.4049L107.41 89.4563C107.409 89.4563 107.408 89.4563 107.407 89.4563ZM96.6033 92.0111C96.5057 92.0096 96.4269 91.929 96.4268 91.8296C96.4266 91.7293 96.5068 91.6479 96.6059 91.6477L131.53 91.5964C131.531 91.5964 131.532 91.5964 131.533 91.5964C131.631 91.598 131.709 91.6785 131.71 91.7779C131.71 91.8782 131.629 91.9596 131.53 91.9598L96.6065 92.0112C96.6054 92.0111 96.6043 92.0111 96.6033 92.0111Z" fill="#E5D6CA"/>
<path d="M41.1879 85.2382C32.71 84.7384 24.1899 84.7291 15.709 85.1647C14.6991 85.2166 14.6599 86.8041 15.6843 86.7686C24.1811 86.4742 32.6693 86.5495 41.1615 86.9485C42.2496 86.9996 42.2704 85.302 41.1879 85.2382ZM55.8848 85.4903C54.0593 85.4524 52.2341 85.4209 50.4083 85.3973C49.5248 85.386 48.6415 85.3826 47.758 85.3803C46.8823 85.3781 45.9737 85.2932 45.1131 85.4754C44.4998 85.6052 44.4919 86.5671 45.0939 86.7209C45.946 86.9386 46.8596 86.8899 47.7342 86.9239C48.6172 86.9582 49.5 86.9915 50.3834 87.0167C52.2086 87.069 54.0336 87.113 55.8592 87.1509C56.9141 87.1729 56.9411 85.5122 55.8848 85.4903Z" fill="#C02328"/>
<path d="M6.35645 75.7017C6.35645 75.7017 57.0771 84.2983 58.8763 83.9634C60.6755 83.6284 107.967 76.5628 107.967 76.5628L6.35645 75.7017Z" fill="#C02328"/>
<path d="M8.61143 109.336C8.60297 109.881 8.33301 127.387 8.33301 127.387L66.4536 127.697L65.3361 108.919L8.61143 109.336Z" fill="#F1E6DC"/>
<path d="M153.578 108.541C153.578 108.541 159.497 108.635 160.035 108.643C160.573 108.652 160.453 128.094 159.733 128.264C159.012 128.435 6.69726 128.75 6.16761 128.196C5.63796 127.643 5.09985 127.634 6.18439 127.106C7.26892 126.578 44.5721 127.35 45.4773 126.82C46.3825 126.289 46.9766 111.033 45.9117 110.29C44.8467 109.546 7.50431 111.317 6.98305 110.219C6.46179 109.12 7.32605 107.498 7.32605 107.498L153.578 108.541Z" fill="#4A3333"/>
<path d="M78.7056 116.709C75.0553 116.661 71.405 116.613 67.7548 116.564C66.7359 116.551 66.7096 118.149 67.73 118.168C71.38 118.235 75.03 118.303 78.68 118.37C79.7349 118.389 79.7623 116.723 78.7056 116.709ZM77.4397 119.86C74.8184 119.515 72.1683 119.522 69.5312 119.657C68.5241 119.709 68.4894 121.301 69.5065 121.254C72.1471 121.133 74.7779 121.241 77.4166 121.351C78.384 121.391 78.3552 119.981 77.4397 119.86ZM139.785 117.666C129.4 117.618 119.015 117.633 108.63 117.637C107.612 117.637 107.584 119.234 108.606 119.241C118.99 119.306 129.374 119.383 139.758 119.397C140.858 119.399 140.888 117.671 139.785 117.666Z" fill="#302020"/>
<path d="M29.8856 114.216C29.7884 114.214 29.7098 114.134 29.7091 114.035C29.7084 113.935 29.7881 113.853 29.8872 113.852L45.4967 113.736C45.5931 113.732 45.6766 113.816 45.6773 113.916C45.6781 114.017 45.5984 114.099 45.4993 114.099L29.8898 114.216C29.8884 114.216 29.8869 114.216 29.8856 114.216ZM8.50017 116.603C8.40211 116.601 8.32329 116.52 8.32365 116.421C8.32408 116.32 8.40479 116.239 8.50386 116.24L40.0761 116.376C40.1699 116.379 40.255 116.458 40.2547 116.558C40.2542 116.659 40.1735 116.74 40.0745 116.739L8.50227 116.603C8.50162 116.603 8.5009 116.603 8.50017 116.603ZM8.42453 121.508C8.32835 121.507 8.24996 121.428 8.24808 121.33C8.2462 121.23 8.32495 121.147 8.42395 121.145L18.6528 120.944C18.7547 120.936 18.8339 121.021 18.8357 121.122C18.8376 121.222 18.7589 121.305 18.6599 121.307L8.43097 121.508C8.42873 121.508 8.42663 121.508 8.42453 121.508ZM11.9836 123.382C11.8874 123.38 11.809 123.302 11.8071 123.204C11.8053 123.103 11.8839 123.02 11.983 123.019L22.2119 122.817C22.3131 122.809 22.3928 122.895 22.3948 122.995C22.3967 123.095 22.3179 123.178 22.2189 123.18L11.99 123.382C11.9878 123.382 11.9857 123.382 11.9836 123.382Z" fill="#E5D6CA"/>
<path d="M70.7227 108.033C70.7227 108.033 107.19 115.258 108.454 114.732C109.718 114.207 142.364 108.364 142.364 108.364L70.7227 108.033Z" fill="#302020"/>
<path d="M1.65758 94.8698C1.65758 94.8698 1.8425 106.14 1.64355 107.408L108.73 108.376L108.918 96.2041L1.65758 94.8698Z" fill="white"/>
<path d="M155.733 96.7631C155.733 96.7631 -0.112968 93.3879 -0.126998 94.2963C-0.141027 95.2048 0.758591 95.0372 1.11164 95.4063C1.46476 95.7753 46.9372 95.9035 49.8992 95.9967C50.7047 96.022 104.788 96.502 105.362 97.1025C106.468 98.2591 106.422 106.886 106.054 107.425C105.687 107.965 -0.126926 105.927 -0.325941 107.195C-0.524884 108.464 0.909949 108.487 1.44516 108.677C1.98045 108.867 155.004 109.109 155.545 108.935C156.086 108.762 157.678 98.6112 155.733 96.7631Z" fill="#61B7B0"/>
<path d="M107.686 108.981C134.226 109.007 155.345 109 155.546 108.936C156.086 108.762 157.678 98.6112 155.733 96.7632C155.733 96.7632 134.102 96.2946 106.957 95.7537C107.492 96.0889 108.029 96.6254 108.182 97.4643C108.504 99.2429 109.262 107.431 107.686 108.981Z" fill="#338C81"/>
<path d="M11.2771 99.2925L1.41253 99.1348C1.36299 99.134 1.32344 99.0928 1.32423 99.0425C1.32503 98.9923 1.36581 98.9523 1.41528 98.9531L11.2798 99.1108C11.3294 99.1116 11.3689 99.1528 11.3681 99.203C11.3674 99.2533 11.3266 99.2933 11.2771 99.2925ZM9.54938 100.81C9.50013 100.809 9.46079 100.768 9.46108 100.718C9.46137 100.668 9.50186 100.628 9.55147 100.628L54.0373 100.969C54.0375 100.969 54.0377 100.969 54.038 100.969C54.0873 100.97 54.1267 101.01 54.1263 101.06C54.126 101.111 54.0855 101.151 54.0359 101.15L9.5501 100.81C9.54981 100.81 9.54966 100.81 9.54938 100.81ZM1.61849 103.228C1.56924 103.228 1.5299 103.187 1.53019 103.137C1.53055 103.087 1.57097 103.046 1.62058 103.047L46.1064 103.387C46.1066 103.387 46.1069 103.387 46.1071 103.387C46.1563 103.388 46.1957 103.429 46.1954 103.479C46.1952 103.529 46.1547 103.569 46.1051 103.569L1.61921 103.228C1.61899 103.228 1.61878 103.228 1.61849 103.228Z" fill="#F1E6DC"/>
<path d="M2.13867 63.8027C2.13867 63.8027 3.2428 73.6332 3.04104 75.0839C3.04104 75.0839 60.7628 77.9964 61.3148 77.0965C61.8669 76.1967 61.5138 64.1974 61.5138 64.1974L2.13867 63.8027Z" fill="#E5EAEC"/>
<path d="M154.789 64.9468L0.722718 62.5083C0.722718 62.5083 -0.0115121 63.587 0.7003 63.9617C1.41211 64.3364 58.1025 64.3251 59.1703 64.8871C60.762 65.725 61.3365 75.643 59.8933 76.1654C58.4501 76.6877 1.45138 73.4232 1.07027 74.8709C0.689091 76.3186 1.76805 76.154 2.66485 76.1683C3.56165 76.1825 58.2567 77.5933 59.5094 77.7948C60.7621 77.9964 155.145 76.7644 155.877 75.8673C156.608 74.9703 154.789 64.9468 154.789 64.9468Z" fill="#752329"/>
<path d="M19.5017 66.2582H19.5016L2.10421 65.9747C2.00514 65.9731 1.9261 65.8904 1.92776 65.7902C1.92942 65.6897 2.01085 65.6097 2.10993 65.6114H2.11L19.5074 65.8949C19.6065 65.8965 19.6855 65.9792 19.6839 66.0794C19.6822 66.1798 19.6007 66.2598 19.5017 66.2582ZM9.79118 67.74C9.69341 67.7385 9.61465 67.6577 9.61465 67.5583C9.61473 67.4579 9.69507 67.3767 9.79414 67.3766L33.4747 67.388C33.5791 67.3935 33.6541 67.4692 33.654 67.5697C33.6539 67.6701 33.5736 67.7514 33.4745 67.7514L9.79393 67.7401C9.79299 67.74 9.79212 67.74 9.79118 67.74Z" fill="#ACBDCF"/>
<path d="M17.0947 71.1324C17.0948 71.0256 22.6322 70.8335 22.6322 70.8335C22.6322 70.8335 29.1116 71.2157 29.1116 71.3225C29.1115 71.4293 22.6233 71.4131 22.6233 71.4131C22.6233 71.4131 17.0947 71.2381 17.0947 71.1324Z" fill="#4A3333"/>
<path d="M55.9998 72.651C55.9987 72.651 55.9977 72.651 55.9966 72.6509L35.197 71.9583C35.098 71.9549 35.0203 71.871 35.0235 71.7706C35.0269 71.6704 35.1054 71.5886 35.2087 71.595L56.0084 72.2876C56.1074 72.291 56.185 72.3749 56.1818 72.4753C56.1785 72.5745 56.0972 72.6526 55.9998 72.651Z" fill="#ACBDCF"/>
<path d="M132.828 70.0785C121.399 70.1963 109.977 70.3106 98.5476 70.2577C97.5379 70.253 97.5118 71.8218 98.5231 71.8474C109.937 72.1366 121.391 72.1596 132.802 71.7533C133.859 71.7158 133.898 70.0675 132.828 70.0785Z" fill="#601922"/>
<path d="M60.9226 63.189C60.7151 63.1935 60.5069 63.1762 60.3 63.1261C59.736 62.9896 59.252 62.6492 58.8207 62.2692C58.002 61.5478 57.304 60.6389 56.2965 60.1712C55.063 59.5985 53.6677 59.8243 52.3882 60.0917C46.2102 61.3825 39.9629 61.9864 33.654 61.6788C30.5021 61.525 27.36 61.162 24.2558 60.5866C22.7235 60.3025 21.2021 59.9643 19.6909 59.5817C18.5314 59.2881 17.2285 58.9554 16.0545 59.3611C13.6523 60.1914 13.5939 63.6014 14.168 65.6467C14.8583 68.106 16.7328 70.062 19.1276 70.8615C19.5402 70.9992 19.9631 71.0949 20.3915 71.1586C20.4069 71.2483 20.4554 71.3315 20.5363 71.3798C20.5598 71.3938 20.582 71.4026 20.6035 71.4086C20.6211 71.4359 20.6475 71.4576 20.6864 71.465C20.9197 71.5093 21.1561 71.5455 21.3934 71.574C21.6625 71.6175 21.9356 71.6505 22.1982 71.6312C22.2029 71.6308 22.2062 71.6285 22.2107 71.6279C22.2616 71.6334 22.315 71.6167 22.3527 71.5816C22.3972 71.5403 22.4338 71.48 22.4618 71.4101C22.5114 71.4196 22.5638 71.406 22.6066 71.3716C22.7559 71.2519 22.7203 71.0443 22.6409 70.895C22.607 70.8311 22.5427 70.8136 22.4835 70.8252C22.4304 70.6803 22.3227 70.5821 22.1472 70.6071C22.1296 70.6005 22.1112 70.5946 22.0887 70.5938C21.6266 70.5775 21.1535 70.6239 20.694 70.6724C20.6713 70.6748 20.6516 70.6819 20.6337 70.691C20.5626 70.7027 20.501 70.7433 20.4651 70.8053C17.9294 70.4232 15.6961 68.7012 14.7472 66.2586C13.8823 64.0319 13.8112 59.728 17.0101 59.5468C18.3523 59.4708 19.703 59.97 20.9944 60.2716C22.4844 60.6195 23.9856 60.9183 25.4947 61.168C28.4731 61.6606 31.4811 61.9648 34.497 62.0757C40.5547 62.2984 46.5482 61.6793 52.4771 60.4404C53.8786 60.1475 55.3941 59.9305 56.6522 60.7868C57.5594 61.4042 58.2128 62.3279 59.1119 62.9568C59.6845 63.3574 60.3114 63.5448 60.9587 63.5363C60.946 63.4206 60.9338 63.3049 60.9226 63.189Z" fill="#4A3333"/>
</g>
<defs>
<clipPath id="clip0_300_6518">
<rect width="164" height="129" fill="white"/>
</clipPath>
</defs>
</svg>
