<svg width="58" height="58" viewBox="0 0 58 58" fill="none" xmlns="http://www.w3.org/2000/svg">
<path d="M22.9932 57.9932C35.6957 57.9932 45.9932 47.6957 45.9932 34.9932C45.9932 22.2906 35.6957 11.9932 22.9932 11.9932C10.2906 11.9932 -0.00683594 22.2906 -0.00683594 34.9932C-0.00683594 47.6957 10.2906 57.9932 22.9932 57.9932Z" fill="#F35244"/>
<path d="M22.9932 51.9932C32.382 51.9932 39.9932 44.382 39.9932 34.9932C39.9932 25.6043 32.382 17.9932 22.9932 17.9932C13.6043 17.9932 5.99316 25.6043 5.99316 34.9932C5.99316 44.382 13.6043 51.9932 22.9932 51.9932Z" fill="white"/>
<path d="M22.9932 45.9932C29.0683 45.9932 33.9932 41.0683 33.9932 34.9932C33.9932 28.918 29.0683 23.9932 22.9932 23.9932C16.918 23.9932 11.9932 28.918 11.9932 34.9932C11.9932 41.0683 16.918 45.9932 22.9932 45.9932Z" fill="#F35244"/>
<path d="M22.9932 39.9932C25.7546 39.9932 27.9932 37.7546 27.9932 34.9932C27.9932 32.2317 25.7546 29.9932 22.9932 29.9932C20.2317 29.9932 17.9932 32.2317 17.9932 34.9932C17.9932 37.7546 20.2317 39.9932 22.9932 39.9932Z" fill="#FFA912"/>
<path opacity="0.2" d="M33.3129 14.4478C34.3769 18.7172 34.1932 23.2023 32.7837 27.3704C31.3741 31.5385 28.7979 35.2145 25.361 37.9617C21.924 40.709 17.7708 42.4122 13.3946 42.8689C9.01834 43.3256 4.60297 42.5167 0.672852 40.5383C1.60141 44.2818 3.45659 47.7318 6.06767 50.5706C8.67876 53.4095 11.9619 55.546 15.615 56.7837C19.268 58.0213 23.1737 58.3203 26.9726 57.6532C30.7715 56.9861 34.3416 55.3742 37.3544 52.966C40.3673 50.5577 42.726 47.4304 44.2136 43.8718C45.7012 40.3132 46.27 36.4376 45.8675 32.6016C45.465 28.7656 44.1042 25.0925 41.9103 21.9201C39.7164 18.7478 36.7599 16.1782 33.3129 14.4478Z" fill="black"/>
<path d="M23.0072 36.0066C22.8095 36.0065 22.6163 35.9478 22.452 35.8379C22.2876 35.728 22.1595 35.5719 22.0839 35.3892C22.0083 35.2066 21.9885 35.0056 22.027 34.8117C22.0655 34.6178 22.1607 34.4397 22.3004 34.2998L44.5724 12.0273C44.6647 11.9322 44.7751 11.8563 44.897 11.8042C45.0189 11.752 45.15 11.7247 45.2826 11.7237C45.4152 11.7227 45.5467 11.748 45.6694 11.7983C45.7921 11.8486 45.9035 11.9228 45.9973 12.0166C46.091 12.1103 46.1652 12.2218 46.2155 12.3445C46.2658 12.4672 46.2911 12.5987 46.2901 12.7313C46.2891 12.8639 46.2617 12.9949 46.2096 13.1169C46.1575 13.2388 46.0816 13.3491 45.9864 13.4414L23.7143 35.7137C23.6215 35.8067 23.5113 35.8805 23.39 35.9308C23.2686 35.981 23.1385 36.0068 23.0072 36.0066Z" fill="#7A432A"/>
<path opacity="0.2" d="M23.0072 36.0066C22.8095 36.0065 22.6163 35.9478 22.452 35.8379C22.2876 35.728 22.1595 35.5719 22.0839 35.3892C22.0083 35.2066 21.9885 35.0056 22.027 34.8117C22.0655 34.6178 22.1607 34.4397 22.3004 34.2998L44.5724 12.0273C44.6647 11.9322 44.7751 11.8563 44.897 11.8042C45.0189 11.752 45.15 11.7247 45.2826 11.7237C45.4152 11.7227 45.5467 11.748 45.6694 11.7983C45.7921 11.8486 45.9035 11.9228 45.9973 12.0166C46.091 12.1103 46.1652 12.2218 46.2155 12.3445C46.2658 12.4672 46.2911 12.5987 46.2901 12.7313C46.2891 12.8639 46.2617 12.9949 46.2096 13.1169C46.1575 13.2388 46.0816 13.3491 45.9864 13.4414L23.7143 35.7137C23.6215 35.8067 23.5113 35.8805 23.39 35.9308C23.2686 35.981 23.1385 36.0068 23.0072 36.0066Z" fill="black"/>
<path d="M58.0069 9.90684L46.6969 21.2168L37.4969 20.5168L36.7969 11.3168L41.5269 6.58684L43.1569 4.95684L48.1069 0.00683594L48.8169 9.19684L58.0069 9.90684Z" fill="#7A432A"/>
<path d="M53.0564 14.857C52.8875 14.6885 52.6642 14.5857 52.4264 14.567L44.0864 13.927L43.4464 5.58703C43.4277 5.34923 43.3249 5.12588 43.1564 4.95703L41.5264 6.58703L42.1564 14.937C42.1759 15.1745 42.2791 15.3973 42.4476 15.5658C42.6161 15.7343 42.8389 15.8375 43.0764 15.857L51.4264 16.487L53.0564 14.857Z" fill="white"/>
<path opacity="0.2" d="M44.9855 17.0107L42.1805 16.7973C41.1551 16.7193 40.1916 16.2766 39.4645 15.5495C38.7373 14.8224 38.2946 13.8589 38.2166 12.8335L38.009 10.1049L36.7969 11.317L37.4969 20.517L46.6969 21.217L58.0069 9.90699L55.2221 9.69189L49.6205 15.2939C49.0172 15.8971 48.2907 16.3628 47.4907 16.6592C46.6907 16.9555 45.8361 17.0754 44.9855 17.0107Z" fill="black"/>
</svg>
