<svg width="49" height="34" viewBox="0 0 49 34" fill="none" xmlns="http://www.w3.org/2000/svg">
<path d="M3.01965 13.136C8.35614 7.02768 16.1537 3.52457 24.4122 3.52457C32.6721 3.52457 40.4697 7.02918 45.8047 13.1375C45.9337 13.2867 46.0911 13.4089 46.2676 13.497C46.4441 13.5851 46.6364 13.6373 46.8332 13.6507C47.03 13.6641 47.2276 13.6384 47.4144 13.575C47.6013 13.5117 47.7737 13.412 47.9218 13.2816C48.2215 13.0198 48.4049 12.6498 48.432 12.2528C48.459 11.8559 48.3274 11.4644 48.066 11.1644C42.1604 4.39997 33.54 0.521484 24.4122 0.521484C15.2858 0.521484 6.6654 4.39847 0.758329 11.1599C0.498733 11.4601 0.36855 11.8509 0.39624 12.2468C0.42393 12.6427 0.607238 13.0116 0.906095 13.2727C1.20495 13.5339 1.59505 13.6661 1.9911 13.6405C2.38715 13.6148 2.75695 13.4335 3.01965 13.136Z" fill="#00A995"/>
<path d="M39.5836 19.0897C39.7076 19.2431 39.8607 19.3704 40.0342 19.4644C40.2076 19.5584 40.3979 19.6171 40.5941 19.6372C40.7904 19.6573 40.9886 19.6383 41.1775 19.5815C41.3664 19.5247 41.5422 19.431 41.6947 19.3059C42.0034 19.0547 42.1997 18.6913 42.2405 18.2954C42.2813 17.8995 42.1633 17.5037 41.9125 17.1948C37.6481 11.9529 31.268 8.94678 24.412 8.94678C17.5574 8.94678 11.1788 11.9529 6.91146 17.1918C6.78694 17.3447 6.69375 17.5206 6.63723 17.7096C6.5807 17.8985 6.56194 18.0967 6.58202 18.2929C6.62257 18.6891 6.81885 19.0529 7.12768 19.3044C7.43651 19.5559 7.8326 19.6744 8.2288 19.6339C8.625 19.5933 8.98887 19.397 9.24036 19.0882C12.9342 14.552 18.4658 11.9484 24.412 11.9484C30.3611 11.9499 35.8913 14.552 39.5836 19.0897Z" fill="#00A995"/>
<path d="M33.2127 24.9064C33.4498 25.2093 33.794 25.4099 34.1745 25.4669C34.555 25.5239 34.9428 25.433 35.2583 25.2129C35.5739 24.9927 35.7931 24.6601 35.8709 24.2833C35.9487 23.9065 35.8792 23.5142 35.6767 23.1871C33.1346 19.5444 28.9243 17.3701 24.4121 17.3701C19.8324 17.3701 15.5875 19.5954 13.0544 23.3222C12.844 23.6519 12.7704 24.0506 12.8492 24.4337C12.928 24.8168 13.153 25.1541 13.4764 25.3739C13.7999 25.5938 14.1963 25.6789 14.5815 25.6113C14.9667 25.5436 15.3104 25.3284 15.5395 25.0115C17.5125 22.106 20.8294 20.3732 24.4136 20.3732C27.9423 20.3732 31.2336 22.0684 33.2127 24.9064Z" fill="#00A995"/>
<path d="M24.4103 33.5557C26.0689 33.5557 27.4134 32.232 27.4134 30.5991C27.4134 28.9663 26.0689 27.6426 24.4103 27.6426C22.7518 27.6426 21.4072 28.9663 21.4072 30.5991C21.4072 32.232 22.7518 33.5557 24.4103 33.5557Z" fill="#00A995"/>
</svg>
